<?xml version="1.0" encoding="utf-8"?>
<!-- Generator: Adobe Illustrator 24.0.1, SVG Export Plug-In . SVG Version: 6.00 Build 0)  -->
<svg version="1.1" id="Layer_1" xmlns="http://www.w3.org/2000/svg" xmlns:xlink="http://www.w3.org/1999/xlink" x="0px" y="0px"
	 viewBox="0 0 30 30" style="enable-background:new 0 0 30 30;" xml:space="preserve">
<style type="text/css">
	.st0{fill:#CD2026;}
	.st1{display:none;}
	.st2{display:inline;}
</style>
<g>
	<g>
		<path class="st0" d="M15,2c7.2,0,13,5.8,13,13s-5.8,13-13,13S2,22.2,2,15S7.8,2,15,2 M15,0C6.7,0,0,6.7,0,15s6.7,15,15,15
			s15-6.7,15-15S23.3,0,15,0L15,0z"/>
	</g>
	<g>
		<path class="st0" d="M15,2.9c6.7,0,12.1,5.4,12.1,12.1S21.7,27.1,15,27.1S2.9,21.7,2.9,15S8.3,2.9,15,2.9 M15,1C7.3,1,1,7.3,1,15
			s6.3,14,14,14s14-6.3,14-14S22.7,1,15,1L15,1z"/>
	</g>
	<g class="st1">
		<path class="st2" d="M12.1,12.1l6-0.9l-3.3,11.3c-0.2,0.9,0.3,1.2,1,0.5l1.4-1.8l0.5,0.3c-0.6,0.9-1.1,1.9-1.9,2.7
			c-0.8,0.8-1.7,1.4-2.9,1.4c-0.5,0-1.1-0.1-1.5-0.5c-0.6-0.4-0.7-1.1-0.6-1.8c0-0.2,0.1-0.3,0.1-0.5l2.6-8.9c0-0.6-0.3-1-0.9-1.1
			h-0.7L12.1,12.1z"/>
		<circle class="st2" cx="17.1" cy="6.7" r="2.3"/>
	</g>
	<g>
		<path class="st0" d="M12.7,12.6l4.9-0.7l-2.7,9.2c-0.2,0.7,0.2,1,0.8,0.4l1.1-1.5l0.4,0.2c-0.5,0.7-0.9,1.5-1.5,2.2
			s-1.4,1.1-2.4,1.1c-0.4,0-0.9-0.1-1.2-0.4c-0.5-0.3-0.6-0.9-0.5-1.5c0-0.2,0.1-0.2,0.1-0.4l2.1-7.2c0-0.5-0.2-0.8-0.7-0.9h-0.6
			L12.7,12.6z"/>
		<circle class="st0" cx="16.7" cy="8.3" r="1.9"/>
	</g>
</g>
</svg>
