<?xml version="1.0" encoding="utf-8"?>
<!-- Generator: Adobe Illustrator 24.0.1, SVG Export Plug-In . SVG Version: 6.00 Build 0)  -->
<svg version="1.1" id="Layer_1" xmlns="http://www.w3.org/2000/svg" xmlns:xlink="http://www.w3.org/1999/xlink" x="0px" y="0px"
	 viewBox="0 0 300 300" style="enable-background:new 0 0 300 300;" xml:space="preserve">
<style type="text/css">
	.st0{display:none;}
	.st1{display:inline;}
	.st2{fill:#FFFFFF;}
	.st3{fill:#303336;}
	.st4{fill:#F24900;}
	.st5{display:inline;fill:#981B1E;}
	.st6{fill:#981B1E;}
</style>
<g id="Layer_1_1_" class="st0">
</g>
<g id="Layer_2_1_">
	<g class="st0">
		<path class="st1" d="M150,27.5c32.9,0,63.7,12.8,87,36s36,54.1,36,87s-12.8,63.7-36,87s-54.1,36-87,36s-63.7-12.8-87-36
			s-36-54.1-36-87s12.8-63.7,36-87S117.1,27.5,150,27.5 M150,0.5C67.2,0.5,0,67.7,0,150.5s67.2,150,150,150s150-67.2,150-150
			S232.8,0.5,150,0.5L150,0.5z"/>
	</g>
	<path class="st2" d="M287.5,90.1c-1.4,1.6-2.8,3.1-4.4,4.5c-5.3,4.8-11.7,8.3-18.6,10.4c5.6,14.1,8.5,29.3,8.5,45
		c0,32.8-12.8,63.7-36,87c-23.2,23.2-54.1,36-87,36s-63.7-12.8-87-36c-23.2-23.2-36-54.1-36-87s12.8-63.7,36-87
		c23.2-23.2,54.1-36,87-36c18.1,0,35.6,3.9,51.5,11.2c2.8-7.7,7.3-14.4,13.4-19.8c0.9-0.8,1.8-1.6,2.8-2.3C197.3,5.8,174.3,0,150,0
		C67.2,0,0,67.2,0,150s67.2,150,150,150s150-67.2,150-150C300,128.7,295.6,108.4,287.5,90.1z"/>
	<g>
		<circle class="st2" cx="150" cy="150" r="83.5"/>
	</g>
	<path class="st2" d="M279,57c-0.3,4.7-1.3,8.8-2.8,12.4c-4.2,9.8-12.4,15.3-21.3,16.9c-16.5,2.9-35.4-7.5-35.9-29.3
		c0.2-2.7,0.6-5.2,1.2-7.6c2.7-10.7,9.7-17.4,17.9-20.4C255.4,22.8,278.4,33,279,57z"/>
</g>
<g id="Layer_2_copy_2">
	<g class="st0">
		<path class="st1" d="M150,27.5c32.9,0,63.7,12.8,87,36s36,54.1,36,87s-12.8,63.7-36,87s-54.1,36-87,36s-63.7-12.8-87-36
			s-36-54.1-36-87s12.8-63.7,36-87S117.1,27.5,150,27.5 M150,0.5C67.2,0.5,0,67.7,0,150.5s67.2,150,150,150s150-67.2,150-150
			S232.8,0.5,150,0.5L150,0.5z"/>
	</g>
	<path class="st3" d="M287.5,90.1c-1.4,1.6-2.8,3.1-4.4,4.5c-5.3,4.8-11.7,8.3-18.6,10.4c5.6,14.1,8.5,29.3,8.5,45
		c0,32.8-12.8,63.7-36,87c-23.2,23.2-54.1,36-87,36s-63.7-12.8-87-36c-23.2-23.2-36-54.1-36-87s12.8-63.7,36-87
		c23.2-23.2,54.1-36,87-36c18.1,0,35.6,3.9,51.5,11.2c2.8-7.7,7.3-14.4,13.4-19.8c0.9-0.8,1.8-1.6,2.8-2.3C197.3,5.8,174.3,0,150,0
		C67.2,0,0,67.2,0,150s67.2,150,150,150s150-67.2,150-150C300,128.7,295.6,108.4,287.5,90.1z"/>
	<g>
		<circle class="st3" cx="150" cy="150" r="83.5"/>
	</g>
	<path class="st3" d="M279,57c-0.3,4.7-1.3,8.8-2.8,12.4c-4.2,9.8-12.4,15.3-21.3,16.9c-16.5,2.9-35.4-7.5-35.9-29.3
		c0.2-2.7,0.6-5.2,1.2-7.6c2.7-10.7,9.7-17.4,17.9-20.4C255.4,22.8,278.4,33,279,57z"/>
</g>
<g id="Layer_2_copy">
	<path class="st4" d="M287.5,90.1c-1.4,1.6-2.8,3.1-4.4,4.5c-5.3,4.8-11.7,8.3-18.6,10.4c5.6,14.1,8.5,29.3,8.5,45
		c0,32.8-12.8,63.7-36,87c-23.2,23.2-54.1,36-87,36s-63.7-12.8-87-36c-23.2-23.2-36-54.1-36-87s12.8-63.7,36-87
		c23.2-23.2,54.1-36,87-36c18.1,0,35.6,3.9,51.5,11.2c2.8-7.7,7.3-14.4,13.4-19.8c0.9-0.8,1.8-1.6,2.8-2.3C197.3,5.8,174.3,0,150,0
		C67.2,0,0,67.2,0,150s67.2,150,150,150s150-67.2,150-150C300,128.7,295.6,108.4,287.5,90.1z"/>
	<g>
		<circle class="st4" cx="150" cy="150" r="83.5"/>
	</g>
	<path class="st4" d="M279,57c-0.3,4.7-1.3,8.8-2.8,12.4c-4.2,9.8-12.4,15.3-21.3,16.9c-16.5,2.9-35.4-7.5-35.9-29.3
		c0.2-2.7,0.6-5.2,1.2-7.6c2.7-10.7,9.7-17.4,17.9-20.4C255.4,22.8,278.4,33,279,57z"/>
</g>
<g id="Layer_2_copy_1_" class="st0">
	<path class="st5" d="M287.5,90.1c-1.4,1.6-2.8,3.1-4.4,4.5c-5.3,4.8-11.7,8.3-18.6,10.4c5.6,14.1,8.5,29.3,8.5,45
		c0,32.8-12.8,63.7-36,87c-23.2,23.2-54.1,36-87,36s-63.7-12.8-87-36c-23.2-23.2-36-54.1-36-87s12.8-63.7,36-87
		c23.2-23.2,54.1-36,87-36c18.1,0,35.6,3.9,51.5,11.2c2.8-7.7,7.3-14.4,13.4-19.8c0.9-0.8,1.8-1.6,2.8-2.3C197.3,5.8,174.3,0,150,0
		C67.2,0,0,67.2,0,150s67.2,150,150,150s150-67.2,150-150C300,128.7,295.6,108.4,287.5,90.1z"/>
	<g class="st1">
		<circle class="st6" cx="150" cy="150" r="83.5"/>
	</g>
	<path class="st5" d="M279,57c-0.3,4.7-1.3,8.8-2.8,12.4c-4.2,9.8-12.4,15.3-21.3,16.9c-16.5,2.9-35.4-7.5-35.9-29.3
		c0.2-2.7,0.6-5.2,1.2-7.6c2.7-10.7,9.7-17.4,17.9-20.4C255.4,22.8,278.4,33,279,57z"/>
</g>
</svg>
