<?xml version="1.0" encoding="utf-8"?>
<!-- Generator: Adobe Illustrator 24.0.1, SVG Export Plug-In . SVG Version: 6.00 Build 0)  -->
<svg version="1.1" id="Layer_1" xmlns="http://www.w3.org/2000/svg" xmlns:xlink="http://www.w3.org/1999/xlink" x="0px" y="0px"
	 viewBox="0 0 100 80" style="enable-background:new 0 0 100 80;" xml:space="preserve">
<style type="text/css">
	.st0{fill:#3AAAE0;}
	.st1{display:none;fill:#3AAAE0;}
	.st2{fill:none;stroke:#FDB81E;stroke-width:1.5069;stroke-miterlimit:10.0005;}
	.st3{fill:#FDB81E;}
	.st4{fill:#FDB81E;stroke:#100C35;stroke-width:3.3877;stroke-miterlimit:10;}
	.st5{fill:#212121;}
	.st6{fill:#0071BC;}
	.st7{display:none;fill:#100C35;enable-background:new    ;}
	.st8{font-family:'Kalam-Bold';}
	.st9{font-size:10.0815px;}
	.st10{display:none;}
	.st11{display:inline;}
	.st12{display:none;fill:#FFFFFF;}
	.st13{display:inline;fill:#FFFFFF;}
	.st14{display:inline;fill:#00AEEF;}
</style>
<g>
	<ellipse class="st0" cx="49.7" cy="40.1" rx="38.3" ry="37.7"/>
	<ellipse class="st0" cx="49.7" cy="2.4" rx="3.8" ry="2.4"/>
	<ellipse transform="matrix(0.1675 -0.9859 0.9859 0.1675 43.9427 58.0854)" class="st0" cx="56.4" cy="3" rx="2.4" ry="3.8"/>
	<ellipse transform="matrix(0.3309 -0.9437 0.9437 0.3309 37.6885 62.4254)" class="st0" cx="62.9" cy="4.6" rx="2.4" ry="3.8"/>
	<ellipse transform="matrix(0.4861 -0.8739 0.8739 0.4861 28.8784 63.9729)" class="st0" cx="68.8" cy="7.4" rx="2.4" ry="3.8"/>
	<ellipse transform="matrix(0.6286 -0.7777 0.7777 0.6286 18.8288 61.9507)" class="st0" cx="74.3" cy="11.3" rx="2.4" ry="3.8"/>
	<ellipse transform="matrix(0.7539 -0.6569 0.6569 0.7539 8.9995 55.8055)" class="st0" cx="79" cy="15.9" rx="2.4" ry="3.8"/>
	<ellipse transform="matrix(0.8576 -0.5142 0.5142 0.8576 0.8812 45.5981)" class="st0" cx="82.8" cy="21.2" rx="2.4" ry="3.8"/>
	<ellipse transform="matrix(0.9354 -0.3536 0.3536 0.9354 -4.091 32.0263)" class="st0" cx="85.6" cy="27.2" rx="2.4" ry="3.7"/>
	<ellipse transform="matrix(0.9836 -0.1801 0.1801 0.9836 -4.6057 16.2906)" class="st0" cx="87.4" cy="33.5" rx="2.4" ry="3.7"/>
	<ellipse class="st0" cx="87.9" cy="40.1" rx="2.4" ry="3.7"/>
	<ellipse transform="matrix(0.1801 -0.9836 0.9836 0.1801 25.8127 124.1184)" class="st0" cx="87.4" cy="46.6" rx="3.7" ry="2.4"/>
	<ellipse transform="matrix(0.3536 -0.9354 0.9354 0.3536 5.9002 114.2872)" class="st0" cx="85.6" cy="52.9" rx="3.7" ry="2.4"/>
	<ellipse transform="matrix(0.5142 -0.8576 0.8576 0.5142 -10.2654 99.6343)" class="st0" cx="82.8" cy="58.9" rx="3.8" ry="2.4"/>
	<ellipse transform="matrix(0.6569 -0.7539 0.7539 0.6569 -21.3766 81.6132)" class="st0" cx="79" cy="64.3" rx="3.8" ry="2.4"/>
	<ellipse transform="matrix(0.7777 -0.6286 0.6286 0.7777 -26.8148 62.0287)" class="st0" cx="74.3" cy="68.9" rx="3.8" ry="2.4"/>
	<ellipse transform="matrix(0.8739 -0.4861 0.4861 0.8739 -26.6497 42.6087)" class="st0" cx="68.8" cy="72.7" rx="3.8" ry="2.4"/>
	<ellipse transform="matrix(0.9437 -0.3309 0.3309 0.9437 -21.4224 25.0328)" class="st0" cx="62.8" cy="75.4" rx="3.8" ry="2.4"/>
	<ellipse transform="matrix(0.9859 -0.1675 0.1675 0.9859 -12.1334 10.5193)" class="st0" cx="56.3" cy="77.2" rx="3.8" ry="2.4"/>
	<ellipse class="st0" cx="49.7" cy="77.7" rx="3.8" ry="2.4"/>
	<ellipse transform="matrix(0.1675 -0.9859 0.9859 0.1675 -40.1855 106.8415)" class="st0" cx="43.2" cy="77.2" rx="2.4" ry="3.8"/>
	<ellipse transform="matrix(0.3309 -0.9437 0.9437 0.3309 -46.6669 85.0615)" class="st0" cx="36.7" cy="75.4" rx="2.4" ry="3.8"/>
	<ellipse transform="matrix(0.4861 -0.8739 0.8739 0.4861 -47.7852 64.0115)" class="st0" cx="30.5" cy="72.6" rx="2.4" ry="3.8"/>
	<ellipse transform="matrix(0.6286 -0.7777 0.7777 0.6286 -44.2868 45.1113)" class="st0" cx="25.1" cy="68.9" rx="2.4" ry="3.8"/>
	<ellipse transform="matrix(0.7539 -0.6569 0.6569 0.7539 -37.2231 29.2188)" class="st0" cx="20.4" cy="64.3" rx="2.4" ry="3.8"/>
	<ellipse transform="matrix(0.8576 -0.5142 0.5142 0.8576 -27.9367 16.8696)" class="st0" cx="16.5" cy="58.9" rx="2.4" ry="3.8"/>
	<ellipse transform="matrix(0.9354 -0.3536 0.3536 0.9354 -17.8523 8.2678)" class="st0" cx="13.7" cy="53" rx="2.4" ry="3.7"/>
	<ellipse transform="matrix(0.9836 -0.1801 0.1801 0.9836 -8.1962 2.9235)" class="st0" cx="12" cy="46.6" rx="2.4" ry="3.7"/>
	<ellipse class="st0" cx="11.4" cy="40.1" rx="2.4" ry="3.7"/>
	<ellipse transform="matrix(0.1801 -0.9836 0.9836 0.1801 -23.1333 39.1381)" class="st0" cx="11.9" cy="33.4" rx="3.7" ry="2.4"/>
	<ellipse transform="matrix(0.3536 -0.9354 0.9354 0.3536 -16.6645 30.3627)" class="st0" cx="13.6" cy="27.2" rx="3.7" ry="2.4"/>
	<ellipse transform="matrix(0.5142 -0.8576 0.8576 0.5142 -10.3006 24.4939)" class="st0" cx="16.5" cy="21.3" rx="3.8" ry="2.4"/>
	<ellipse transform="matrix(0.6569 -0.7539 0.7539 0.6569 -4.9884 20.8213)" class="st0" cx="20.4" cy="15.9" rx="3.8" ry="2.4"/>
	<ellipse transform="matrix(0.7777 -0.6286 0.6286 0.7777 -1.5003 18.2805)" class="st0" cx="25.1" cy="11.3" rx="3.8" ry="2.4"/>
	<ellipse transform="matrix(0.8739 -0.4861 0.4861 0.8739 0.2338 15.7642)" class="st0" cx="30.5" cy="7.4" rx="3.8" ry="2.4"/>
	<ellipse transform="matrix(0.9437 -0.3309 0.3309 0.9437 0.5152 12.3757)" class="st0" cx="36.6" cy="4.7" rx="3.8" ry="2.4"/>
	<ellipse transform="matrix(0.9859 -0.1675 0.1675 0.9859 0.1046 7.2439)" class="st0" cx="43" cy="3" rx="3.8" ry="2.4"/>
</g>
<g>
	<polyline class="st1" points="96.4,28.4 91,39.2 90.6,40.1 91,41 96.4,51.8 3,51.8 8.4,41 8.8,40.1 8.4,39.2 3,28.4 96.4,28.4 	"/>
	<polygon class="st0" points="99.7,26.3 -0.3,26.3 6.5,40 -0.3,53.8 99.7,53.8 92.9,40.1 	"/>
</g>
<g>
	<ellipse class="st2" cx="49.7" cy="40.1" rx="34.9" ry="34.3"/>
	<g>
		<path class="st3" d="M34.5,9.4c-5.3,2.4-9.6,5.9-12.9,10.6l25.7,22l4.8-3.9L34.5,9.4z"/>
		<path class="st3" d="M77.8,20c-3.3-4.7-7.6-8.3-12.9-10.6L47.3,38.1l4.8,3.9L77.8,20z"/>
	</g>
	<g>
		<path class="st3" d="M34.5,70.8c-5.3-2.4-9.6-5.9-12.9-10.6l25.7-22l4.8,3.9L34.5,70.8z"/>
		<path class="st3" d="M77.8,60.2c-3.3,4.7-7.6,8.3-12.9,10.6L47.3,42.1l4.8-3.9L77.8,60.2z"/>
	</g>
</g>
<g>
	<g>
		<path class="st4" d="M32,28.5c3.8-5.6,10.3-9.3,17.7-9.3c11.8,0,21.3,9.3,21.3,21s-9.5,21-21.3,21s-21.3-9.3-21.3-21
			C28.4,35.8,29.7,31.8,32,28.5L32,28.5z"/>
		<g>
			<path class="st3" d="M91.4,40.1l6.2,12.4H66.9c-3.9,5.2-10.1,8.6-17.2,8.6s-13.3-3.3-17.2-8.6H1.8l6.1-12.4L1.8,27.7h30.7
				c3.9-5.2,10.1-8.6,17.2-8.6s13.3,3.3,17.2,8.6h30.7L91.4,40.1z"/>
		</g>
	</g>
	<g>
		<g>
			<path class="st5" d="M49.7,19.1c7.2,0,13.8,3.4,17.8,9.3l0.4,0.6h0.7h26.8l-5.2,10.4l-0.3,0.6l0.3,0.6l5.2,10.4H68.6h-0.7
				l-0.4,0.6c-4,5.9-10.6,9.3-17.8,9.3s-13.8-3.4-17.8-9.3l-0.4-0.6h-0.7H4l5.2-10.4l0.3-0.6l-0.3-0.6L4,29.2h26.8h0.7l0.4-0.6
				C35.9,22.6,42.5,19.1,49.7,19.1 M49.7,17.8c-7.9,0-14.8,3.9-18.9,9.9h-29l6.1,12.5L1.8,52.6h29c4.1,6,11,9.9,18.9,9.9
				s14.8-3.9,18.9-9.9h29l-6.2-12.5l6.2-12.5h-29C64.5,21.7,57.6,17.8,49.7,17.8L49.7,17.8z"/>
		</g>
		<g>
			<g>
				<polygon class="st5" points="90.6,40.2 96.6,52.3 96,52.6 95.3,52.6 89.1,40.2 95.3,27.7 96,27.7 96.6,28 				"/>
			</g>
		</g>
		<g>
			<g>
				<polygon class="st5" points="10,40.2 3.9,52.6 3.1,52.6 2.5,52.3 8.5,40.2 2.5,28 3.1,27.7 3.9,27.7 				"/>
			</g>
		</g>
	</g>
</g>
<g>
	<polygon class="st6" points="89.6,47 90.1,47.9 91.1,48.1 90.4,48.8 90.5,49.7 89.6,49.3 88.7,49.7 88.9,48.8 88.2,48.1 89.2,47.9 
			"/>
	<polygon class="st6" points="9.3,47 9.8,47.9 10.8,48.1 10.1,48.8 10.2,49.7 9.3,49.3 8.4,49.7 8.6,48.8 7.9,48.1 8.9,47.9 	"/>
	<polygon class="st6" points="89.6,30.4 90.1,31.3 91.1,31.4 90.4,32.1 90.5,33.1 89.6,32.6 88.7,33.1 88.9,32.1 88.2,31.4 
		89.2,31.3 	"/>
	<polygon class="st6" points="9.3,30.4 9.8,31.3 10.8,31.4 10.1,32.1 10.2,33.1 9.3,32.6 8.4,33.1 8.6,32.1 7.9,31.4 8.9,31.3 	"/>
</g>
<text transform="matrix(1.0163 0 0 1 9.501 43.4961)" class="st7 st8 st9">DUBINSKO PRANJE</text>
<g>
	<path class="st5" d="M10.8,34.8c0.5,0,1.1,0.2,1.7,0.5c0.6,0.3,1.2,0.7,1.7,1.3c0.5,0.5,1,1.1,1.3,1.9c0.4,0.7,0.5,1.5,0.5,2.2
		c0,0.6-0.3,1.3-0.9,2.1c-0.6,0.8-1.3,1.5-2.1,2.2s-1.4,0.9-1.9,0.9c-0.1,0-0.3-0.2-0.5-0.7s-0.4-0.8-0.4-1c0-0.4,0.2-1.5,0.5-3.3
		c0.3-1.9,0.6-3.1,0.7-3.7c-0.2-0.2-0.4-0.5-0.6-0.9c-0.2-0.3-0.2-0.6-0.2-0.8S10.6,34.8,10.8,34.8z M14.6,40.1
		c0-0.3-0.2-0.7-0.6-1.3c-0.4-0.5-0.8-1-1.4-1.3c0,0.8-0.3,2.3-0.8,4.7c0,0.1-0.1,0.3-0.1,0.6c-0.1,0.3-0.1,0.5-0.1,0.6
		c0.6-0.3,1.3-0.9,2-1.7C14.2,41.1,14.6,40.5,14.6,40.1z"/>
	<path class="st5" d="M17.7,34.8c0.2,0,0.4,0.2,0.6,0.5c0.2,0.3,0.4,0.7,0.4,1c0,0.3-0.1,1.2-0.4,2.7c-0.3,1.5-0.4,2.4-0.4,3
		s0,1,0.1,1.3c0.1,0.3,0.2,0.4,0.4,0.4c0.2,0,0.4-0.2,0.6-0.5c0.2-0.3,0.4-0.8,0.6-1.4c0.2-0.6,0.4-1.2,0.5-2
		c0.1-0.8,0.2-1.5,0.2-2.2s0-1.2-0.1-1.6c0-0.4-0.1-0.7-0.1-0.7c0-0.3,0.1-0.5,0.3-0.5c0.2,0,0.5,0.3,0.8,0.8
		c0.3,0.5,0.5,1.2,0.5,1.9s-0.1,1.6-0.3,2.5c-0.2,0.9-0.4,1.9-0.7,2.7c-0.3,0.9-0.7,1.6-1.1,2.1c-0.5,0.6-0.9,0.8-1.4,0.8
		s-0.9-0.4-1.3-1.1c-0.4-0.7-0.6-1.5-0.6-2.3s0.1-1.7,0.2-2.7c0.1-1,0.3-1.9,0.4-2.7c0.1-0.8,0.2-1.4,0.2-1.7
		C17.4,35,17.5,34.8,17.7,34.8z"/>
	<path class="st5" d="M27.3,42c0,0.6-0.2,1.2-0.7,1.8s-1,1.1-1.6,1.4c-0.6,0.3-1.3,0.5-1.8,0.5c-0.3,0-0.5-0.2-0.9-0.7
		c-0.3-0.5-0.5-0.8-0.5-1.1c0-0.2,0-0.3,0.1-0.4c0.1-0.1,0.1-0.2,0.2-0.2s0.2,0.1,0.4,0.3c0.2,0.2,0.4,0.3,0.5,0.3s0.2,0,0.3,0
		c-0.2-0.1-0.3-0.3-0.5-0.5c-0.2-0.2-0.3-0.5-0.3-0.7c0-0.1,0.1-0.8,0.3-2.2c0.2-1.3,0.3-2.5,0.4-3.4c-0.1-0.2-0.2-0.4-0.3-0.6
		c-0.1-0.2-0.1-0.4-0.1-0.5c0-0.3,0.1-0.5,0.4-0.7s0.6-0.3,1.1-0.3c0.9,0,1.7,0.2,2.2,0.5c0.5,0.3,0.8,1,0.8,1.8
		c0,0.5-0.1,1-0.4,1.5s-0.7,1-1.1,1.5h0.1c0.4,0.2,0.7,0.4,1,0.7C27.1,41.3,27.3,41.6,27.3,42z M26,41.9c0-0.2-0.2-0.4-0.6-0.5
		s-0.7-0.2-1-0.2c-0.1,0-0.3-0.2-0.5-0.5c-0.3,1.8-0.5,2.8-0.5,3c0.6-0.2,1.1-0.5,1.7-0.8C25.8,42.6,26,42.2,26,41.9z M25.5,36.9
		c-0.2,0-0.7,0.1-1.5,0.3c0.2,0.4,0.4,0.7,0.4,1c0,0.3-0.1,0.8-0.2,1.5c0.1-0.1,0.3-0.3,0.6-0.5c0.3-0.2,0.4-0.4,0.5-0.5
		s0.2-0.2,0.3-0.3c0.2-0.3,0.3-0.6,0.3-0.9C26,37,25.8,36.9,25.5,36.9z"/>
	<path class="st5" d="M28.5,45c-0.2-0.4-0.3-0.7-0.3-0.9c0-0.2,0.2-1.6,0.5-4.1s0.5-4.1,0.5-4.7c0-0.3,0.1-0.5,0.3-0.5
		c0.2,0,0.4,0.2,0.6,0.7c0.3,0.5,0.4,0.9,0.4,1.3c0,0.2-0.1,0.8-0.3,2c-0.2,1.2-0.3,2-0.4,2.5c-0.1,0.5-0.1,0.9-0.2,1.2
		c0,0.4-0.1,0.7-0.1,0.9c-0.2,1.3-0.3,2-0.4,2.2c0,0.1-0.1,0.1-0.1,0.1C28.9,45.6,28.7,45.4,28.5,45z"/>
	<path class="st5" d="M35.6,34.8c0.2,0,0.4,0.2,0.6,0.5c0.2,0.3,0.3,0.5,0.3,0.7c0,0.6-0.1,1.7-0.3,3.2c-0.2,1.5-0.4,3-0.8,4.3
		c-0.3,1.4-0.6,2.1-0.8,2.1c-0.1,0-0.2-0.1-0.4-0.3c-0.2-0.2-0.3-0.4-0.3-0.6s-0.2-0.7-0.3-1.4c-0.3-1.6-0.7-3-1-3.9
		c0,0.3-0.1,0.7-0.2,1.3c-0.1,0.5-0.1,1-0.2,1.3c0,0.3-0.1,0.7-0.2,1.1c-0.1,0.4-0.1,0.8-0.2,1c-0.1,0.2-0.1,0.5-0.2,0.8
		c-0.1,0.5-0.2,0.7-0.3,0.7c-0.1,0-0.3-0.2-0.5-0.5c-0.2-0.4-0.3-0.7-0.3-0.9c0-0.2,0.2-1.7,0.6-4.1c0.4-2.5,0.6-4,0.6-4.6
		c0-0.4,0.1-0.6,0.2-0.6s0.3,0.1,0.4,0.3c0.2,0.2,0.3,0.4,0.5,0.7c0.1,0.3,0.4,1.2,0.7,2.8s0.6,2.7,0.8,3.3c0.3-1.2,0.5-2.9,0.7-5.1
		c0.1-0.9,0.1-1.5,0.2-1.7C35.5,34.9,35.5,34.8,35.6,34.8z"/>
	<path class="st5" d="M41.4,42.6c0,0.8-0.3,1.6-0.8,2.2c-0.5,0.6-1.2,0.9-1.8,0.9s-1.2-0.3-1.7-0.8c-0.4-0.5-0.6-1-0.6-1.6
		s0.1-0.8,0.3-0.8s0.3,0.1,0.5,0.4c0.2,0.2,0.4,0.5,0.6,0.7c0.2,0.2,0.5,0.4,0.7,0.4s0.6-0.2,0.9-0.5c0.3-0.3,0.5-0.6,0.5-0.8
		s-0.2-0.6-0.6-1.2c-0.4-0.5-0.8-1.1-1.1-1.7s-0.6-1-0.6-1.3c0-0.3,0-0.7,0.1-1c0.1-0.4,0.2-0.6,0.3-0.8c0.4-0.5,0.8-1,1.4-1.4
		c0.6-0.4,1.1-0.6,1.5-0.6c0.3,0,0.5,0.2,0.6,0.5c0.2,0.3,0.3,0.7,0.3,1c0,0.1-0.1,0.3-0.2,0.3c-0.2,0.1-0.4,0.2-0.6,0.3
		s-0.6,0.2-0.9,0.4c-0.7,0.4-1,0.7-1,1c0,0.1,0.1,0.3,0.3,0.7c0.2,0.4,0.5,0.6,0.8,1c0.3,0.3,0.5,0.8,0.8,1.3
		C41.3,41.6,41.4,42.1,41.4,42.6z"/>
	<path class="st5" d="M42.8,45.6L42.8,45.6c-0.2,0-0.4-0.2-0.6-0.6c-0.2-0.4-0.3-0.8-0.3-1.1c0-0.3,0.2-1.7,0.6-4
		c0.4-2.4,0.6-3.9,0.6-4.5c0-0.4,0.1-0.6,0.3-0.6s0.3,0.2,0.6,0.7c0.2,0.5,0.3,0.9,0.3,1.3c0,0.3-0.1,0.9-0.3,2c0.5-1.1,1-2,1.5-2.7
		c0.5-0.7,0.8-1.1,1-1.1s0.3,0.1,0.5,0.3s0.3,0.4,0.3,0.6s-0.2,0.5-0.5,1s-0.8,1.1-1.3,1.8s-0.9,1.4-1.2,2.1c0,0.8,0.3,1.5,0.9,2.3
		c0.2,0.2,0.4,0.5,0.7,0.7s0.5,0.5,0.7,0.6s0.3,0.3,0.3,0.5c0,0.5-0.2,0.8-0.7,0.8s-1-0.3-1.5-0.9c-0.5-0.6-1-1.4-1.2-2.3
		c-0.2,0.7-0.3,1.3-0.3,1.6c0,0.3-0.1,0.5-0.1,0.7c0,0.1,0,0.2,0,0.3s0,0.1,0,0.2c0,0.1,0,0.1,0,0.2v0.1
		C42.9,45.5,42.9,45.6,42.8,45.6z"/>
	<path class="st5" d="M49.6,45.6c-0.5,0-0.9-0.4-1.3-1.1c-0.4-0.7-0.6-1.4-0.6-2.2c0-0.9,0.1-1.8,0.3-2.8c0.2-1,0.5-1.8,0.9-2.5
		c0.4-0.7,0.7-1.3,1.2-1.7c0.4-0.5,0.8-0.7,1.2-0.7c0.6,0,1.2,0.4,1.6,1.2c0.4,0.8,0.6,1.7,0.6,2.8c0,1-0.2,2.1-0.5,3.1
		c-0.3,1-0.8,2-1.4,2.7C50.9,45.2,50.3,45.6,49.6,45.6z M50.6,43.1c0.4-0.5,0.7-1.2,1-1.9c0.3-0.7,0.4-1.5,0.4-2.3
		c0-0.8-0.1-1.3-0.2-1.7c-0.1-0.4-0.3-0.6-0.5-0.6s-0.5,0.3-0.8,0.9s-0.7,1.3-0.9,2.3c-0.3,0.9-0.4,1.8-0.4,2.7c0,0.4,0,0.8,0.1,1
		c0.1,0.3,0.2,0.4,0.3,0.4C49.9,43.8,50.2,43.5,50.6,43.1z"/>
	<path class="st5" d="M56.9,45.5c-0.2,0-0.3-0.2-0.5-0.6c-0.2-0.4-0.3-0.7-0.3-0.9c0-0.2,0.1-0.7,0.2-1.5c0.5-2.3,0.8-4.2,0.8-5.9
		c-0.2-0.4-0.3-0.6-0.3-0.8c0-0.3,0.3-0.6,0.8-0.9c0.5-0.3,1-0.4,1.5-0.4c0.8,0,1.4,0.3,1.9,0.8s0.7,1.3,0.7,2.1
		c0,1.1-0.4,2.1-1.1,3c-0.7,0.9-1.6,1.5-2.7,1.8c-0.3,1.7-0.5,2.7-0.6,3C57.1,45.4,57,45.5,56.9,45.5z M60.2,37.4
		c0-0.3-0.1-0.6-0.2-0.8c-0.2-0.2-0.4-0.3-0.6-0.3c-0.3,0-0.6,0.2-1.1,0.5c0.1,0.3,0.2,0.7,0.2,0.9c0,0.5-0.1,1.4-0.3,2.4
		c0.6-0.4,1.1-0.8,1.5-1.3C60,38.4,60.2,37.9,60.2,37.4z"/>
	<path class="st5" d="M66.7,45c0,0.4-0.2,0.6-0.6,0.6c-0.5,0-1.1-0.4-1.6-1.2c-0.6-0.8-1-1.7-1.2-2.5c-0.1,0.5-0.2,0.8-0.2,1
		c0,0.2-0.1,0.4-0.2,0.8c-0.1,0.4-0.1,0.6-0.2,0.8c-0.1,0.2-0.1,0.4-0.1,0.6c-0.1,0.4-0.2,0.6-0.3,0.6c-0.2,0-0.3-0.2-0.5-0.6
		c-0.2-0.4-0.3-0.7-0.3-0.9c0-0.2,0.1-0.7,0.2-1.3c0.5-2,0.7-3.7,0.8-5.3c-0.1-0.2-0.2-0.4-0.3-0.6S62,36.6,62,36.4
		c0-0.3,0.3-0.6,0.8-0.9s1.1-0.5,1.8-0.5c0.7,0,1.2,0.2,1.7,0.7s0.7,1.1,0.7,1.9c0,0.6-0.1,1.1-0.3,1.6S66.2,40,66,40.3
		c-0.2,0.3-0.8,0.5-1,0.7s-0.3,0.4-0.3,0.5c0,0.2,0.1,0.5,0.2,0.7c0.1,0.2,0.3,0.5,0.4,0.8c0.2,0.3,0.4,0.5,0.5,0.7
		c0.1,0.2,0.3,0.4,0.3,0.5c0.1,0.1,0.2,0.3,0.3,0.4C66.6,44.7,66.7,44.9,66.7,45z M65.3,37.5c0-0.4-0.3-0.6-0.8-0.6
		c-0.3,0-0.6,0.1-0.9,0.3c0.2,0.4,0.3,0.7,0.3,1c0,0.6,0,1.2-0.2,1.9c0.1-0.1,0.2-0.2,0.4-0.4c0.2-0.2,0.3-0.4,0.5-0.5
		c0.1-0.1,0.2-0.3,0.4-0.5C65.1,38.4,65.3,38,65.3,37.5z"/>
	<path class="st5" d="M71.8,40.1c0.3,0,0.4,0,0.6,0.1s0.2,0.2,0.2,0.4c0,0.3-0.3,0.5-0.9,0.8c0,0.8,0,1.5,0,2.2c0,0.7,0,1.2-0.1,1.5
		c-0.1,0.3-0.2,0.5-0.3,0.5s-0.3-0.1-0.4-0.4c-0.1-0.2-0.2-0.6-0.2-1.2s-0.1-1.3-0.2-2.2c-0.7,0.2-1.2,0.4-1.5,0.5
		c-0.5,2.2-0.9,3.1-1,3.1s-0.3-0.1-0.6-0.4c-0.3-0.3-0.3-0.6-0.3-0.9c0-0.2,0.1-0.7,0.4-1.6c-0.1-0.1-0.2-0.3-0.3-0.5
		s-0.1-0.4-0.1-0.6c0-0.3,0.3-0.6,1-0.9c0.1-0.2,0.1-0.4,0.2-0.7c0.1-0.3,0.2-0.8,0.4-1.8c0.2-0.9,0.4-1.7,0.5-2.3
		c0.1-0.3,0.3-0.6,0.6-0.8c0.3-0.3,0.6-0.4,0.8-0.4c0.2,0,0.4,0.5,0.6,1.5c0.2,1,0.3,2.3,0.4,3.8L71.8,40.1L71.8,40.1z M69.5,40.3
		c0.2,0,0.5-0.1,0.9-0.2c0-0.3-0.1-0.8-0.1-1.5s-0.1-1.2-0.1-1.5C70.1,37.8,69.8,38.8,69.5,40.3z"/>
	<path class="st5" d="M77.9,34.8c0.2,0,0.4,0.2,0.6,0.5c0.2,0.3,0.3,0.5,0.3,0.7c0,0.6-0.1,1.7-0.3,3.2c-0.2,1.5-0.4,3-0.8,4.3
		c-0.3,1.4-0.6,2.1-0.8,2.1c-0.1,0-0.2-0.1-0.4-0.3c-0.2-0.2-0.3-0.4-0.3-0.6c-0.1-0.2-0.2-0.7-0.3-1.4c-0.3-1.6-0.7-3-1-3.9
		c-0.1,0.3-0.1,0.7-0.2,1.3c-0.1,0.5-0.1,1-0.2,1.3c-0.1,0.3-0.1,0.7-0.2,1.1c-0.1,0.4-0.1,0.8-0.2,1c-0.1,0.3-0.1,0.5-0.2,0.8
		c-0.1,0.5-0.2,0.7-0.3,0.7c-0.1,0-0.3-0.2-0.5-0.5c-0.2-0.4-0.3-0.7-0.3-0.9c0-0.2,0.2-1.7,0.6-4.1c0.4-2.5,0.6-4,0.6-4.6
		c0-0.4,0.1-0.6,0.2-0.6s0.3,0.1,0.4,0.3c0.1,0.2,0.3,0.4,0.5,0.7c0.1,0.3,0.4,1.2,0.7,2.8s0.6,2.7,0.8,3.3c0.3-1.2,0.5-2.9,0.7-5.1
		c0.1-0.9,0.1-1.5,0.2-1.7C77.8,34.9,77.8,34.8,77.9,34.8z"/>
	<path class="st5" d="M78.9,42.8c0-0.3,0-0.5,0.1-0.6c0-0.1,0.1-0.2,0.2-0.2s0.2,0.1,0.4,0.4c0.2,0.3,0.3,0.6,0.5,0.8
		c0.2,0.3,0.4,0.4,0.6,0.4s0.3-0.3,0.5-1c0.2-0.6,0.3-1.5,0.5-2.5c0.2-1,0.3-1.7,0.3-2c0.1-0.8,0.2-1.3,0.2-1.4
		C82,37,81.7,37,81.3,37.1c-0.4,0.1-0.7,0.1-0.8,0.1s-0.3-0.1-0.3-0.2C80,37,80,36.9,80,36.7c0-0.4,0.3-0.7,0.8-1
		c0.5-0.3,1-0.5,1.5-0.6s0.8-0.2,1.1-0.2c0.4,0,0.6,0.2,0.6,0.5c0,0.2-0.1,0.8-0.4,1.9c-0.2,1.1-0.4,1.8-0.4,2.2
		c-0.4,2.3-0.6,3.7-0.8,4.3c-0.3,1-0.6,1.7-1.1,1.8c-0.1,0-0.2,0.1-0.3,0.1c-0.5,0-0.9-0.3-1.3-1C79.1,43.9,78.9,43.3,78.9,42.8z"/>
	<path class="st5" d="M85.8,39.4c0.3,0,0.7,0,1.1-0.1c0.4,0,0.7-0.1,0.8-0.1s0.2,0,0.2,0.1s0.1,0.2,0.1,0.3c0,0.4-0.3,0.8-0.8,1
		c-0.6,0.3-1.1,0.4-1.8,0.5c-0.3,1.2-0.4,2-0.4,2.3c0,0.2,0.1,0.3,0.2,0.3c0.8,0,1.5-0.2,2.3-0.5c0.3-0.1,0.4-0.2,0.5-0.2
		s0.2,0.1,0.2,0.4c0,0.4-0.2,0.7-0.5,1c-0.3,0.3-0.8,0.6-1.3,0.8c-0.5,0.2-1.1,0.3-1.6,0.3c-0.3,0-0.6-0.2-0.8-0.5
		c-0.2-0.3-0.4-0.8-0.4-1.2s0.2-1.6,0.5-3.4s0.5-3.2,0.5-4.1c0,0,0-0.1,0-0.2c0-0.1,0-0.3,0-0.3c0.1-0.3,0.3-0.5,0.6-0.5
		s1-0.1,1.8-0.1c1.4,0,2.1,0.2,2.1,0.7c0,0.3-0.2,0.5-0.5,0.6c-0.2,0.1-0.6,0.2-1,0.2c-0.6,0.1-1.2,0.3-1.7,0.5
		C85.9,37.7,85.9,38.5,85.8,39.4L85.8,39.4L85.8,39.4z"/>
</g>
<g>
	<path class="st6" d="M43.7,50.8c0,0.1,0,0.1-0.1,0.2c0,0-0.1,0-0.2,0.1c-0.1,0-0.2,0-0.3,0s-0.1,0-0.1,0C42.9,51,42.9,51,42.8,51
		c-0.1,0-0.3,0-0.5-0.1c-0.1,0-0.2,0-0.2,0s-0.1,0-0.2,0c0,0.2-0.1,0.3-0.2,0.5c0,0.1-0.1,0.2-0.1,0.3s-0.1,0.2-0.1,0.2
		s-0.1,0.2-0.2,0.5c-0.1,0.3-0.2,0.6-0.3,0.9c-0.1,0.2-0.1,0.3-0.1,0.4s-0.1,0.2-0.1,0.3s-0.1,0.2-0.1,0.3L40.5,55
		c0,0.1-0.1,0.3-0.2,0.5c-0.1,0.2-0.1,0.4-0.2,0.6c-0.1,0.3-0.1,0.4-0.2,0.5c-0.1,0.1-0.1,0.2-0.1,0.2s-0.1,0-0.2,0
		c-0.1,0-0.2,0-0.3-0.2c-0.1-0.1-0.1-0.2-0.1-0.3s0-0.4,0.2-0.7c0.1-0.3,0.2-0.6,0.3-0.8c0-0.1,0-0.2,0.1-0.3s0-0.1,0-0.2
		c0,0,0-0.1,0.1-0.2s0.1-0.2,0.1-0.3s0.2-0.8,0.6-1.9l0.1-0.2c0.1-0.1,0.1-0.2,0.2-0.4c0,0,0.1-0.1,0.1-0.2c0,0,0,0,0-0.1s0,0,0-0.1
		l0,0l0,0l0,0l0,0h-0.5h-0.2c-0.4,0-0.6,0-0.6,0.1h-0.1c-0.2,0-0.3,0-0.4-0.1s-0.2,0-0.2-0.1c0-0.1,0.1-0.2,0.2-0.2s0.2-0.1,0.4-0.1
		c0.1,0,0.2,0,0.3-0.1h0.3h0.3c0.4-0.1,0.8-0.1,1.2-0.1c0.2,0,0.3,0,0.4,0c0.1,0,0.2,0,0.2,0c0.1,0,0.2,0,0.4,0s0.3,0,0.4,0.1
		c0.1,0,0.3,0.1,0.3,0.2S43.7,50.6,43.7,50.8C43.7,50.7,43.7,50.8,43.7,50.8z"/>
	<path class="st6" d="M43.7,56.4c-0.1,0-0.3,0-0.5,0c-0.1,0-0.3,0-0.4-0.1s-0.2-0.1-0.2-0.2c0-0.1,0.1-0.2,0.3-0.3
		c0.2-0.1,0.4-0.1,0.7-0.1H44l0.1-0.2v-0.1v-0.1l0.1-0.3l0.1-0.5c0.2-0.6,0.3-1,0.4-1.2c0-0.1,0.1-0.2,0.2-0.5
		c0.1-0.3,0.1-0.4,0.2-0.6c0.3-0.9,0.4-1.3,0.4-1.4c-0.1,0-0.2,0-0.5,0s-0.4,0-0.5,0.1c0,0-0.1,0-0.2,0c-0.1-0.1-0.1-0.1-0.1-0.2
		c0,0,0,0,0-0.1c0-0.1,0-0.2,0.1-0.2c0.1-0.1,0.2-0.1,0.5-0.2c0.3-0.1,0.5-0.1,0.7-0.2c0.1,0,0.2,0,0.3-0.1c0.1,0,0.2-0.1,0.3-0.1
		s0.3-0.1,0.3-0.1s0.2,0,0.3,0c0.2,0,0.3,0,0.3,0c0.2,0,0.3,0,0.3,0c0.4,0,0.6,0.1,0.7,0.3v0.1c0,0.1,0,0.2-0.1,0.2
		s-0.1,0.1-0.2,0.1c-0.1,0-0.3,0-0.6,0.1c-0.4,0-0.7,0.1-0.7,0.1l-0.1,0.1c0,0,0,0,0,0.1s0,0.3-0.2,0.6L46,52.2
		c-0.2,0.5-0.3,0.9-0.3,1s-0.1,0.2-0.1,0.3c0,0.2-0.1,0.3-0.1,0.5s-0.1,0.3-0.1,0.5l-0.5,1.3h0.6c0.4,0,0.6-0.1,0.7-0.1
		c0.1,0,0.1,0,0.1,0s0,0,0,0.1c0,0,0,0,0,0.1c0.1,0.1,0.1,0.2,0.1,0.2c0,0.1-0.1,0.2-0.2,0.3s-0.4,0.1-0.6,0.1c-0.3,0-0.5,0-0.7,0
		s-0.3,0-0.3,0s-0.1,0-0.1,0.1c0,0.1,0,0.1-0.1,0.1c0,0-0.1,0-0.2,0c-0.1,0-0.2,0-0.3-0.2C43.8,56.5,43.8,56.4,43.7,56.4z"/>
	<path class="st6" d="M49,56.7c0,0,0-0.1,0-0.2c0-0.1,0-0.1-0.1-0.2s-0.1-0.1-0.2-0.1c-0.1-0.1-0.1-0.2-0.2-0.3
		c-0.1-0.1-0.1-0.2-0.1-0.5c0-0.2,0-0.5-0.1-0.9c0-0.2,0-0.3,0-0.3c0-0.3,0-0.5,0-0.8c0-0.3,0.1-0.5,0.1-0.9c0-0.1,0-0.3,0-0.5
		c0-0.1,0-0.2,0-0.3v-0.1c0-0.1,0.1-0.3,0.1-0.5c0-0.2,0-0.3,0.1-0.5v-0.2c0-0.2,0-0.3,0-0.3c0-0.2,0-0.3,0-0.4
		c0-0.1,0.1-0.2,0.3-0.3c0,0,0.1,0,0.2,0c0.1,0,0.1,0,0.2,0c0.2,0.1,0.2,0.2,0.2,0.5c0,0.1,0,0.2,0,0.4c0,0.4,0,0.8-0.1,1.1
		c-0.1,0.4-0.2,1-0.2,1.6l-0.1,1c0,0.5,0,0.8,0,0.8c0,0.1,0,0.2,0,0.2c0,0.1,0,0.2,0.1,0.2c0,0,0,0,0.1-0.1c0,0,0-0.1,0.1-0.1
		c0-0.1,0-0.2,0.1-0.2c0.2-0.4,0.4-0.8,0.5-1.1c0.1-0.3,0.2-0.5,0.4-0.7c0.1-0.3,0.2-0.5,0.3-0.6c0.1-0.2,0.2-0.5,0.5-1
		c0,0,0.1-0.2,0.2-0.4s0.3-0.4,0.4-0.7c0.2-0.3,0.3-0.5,0.5-0.7c0.1-0.1,0.3-0.2,0.3-0.2h0.1c0.1,0,0.2,0,0.2,0.1
		c0.1,0.1,0.1,0.2,0.1,0.3c0,0.2-0.1,0.5-0.4,0.9c-0.2,0.3-0.4,0.6-0.6,1c-0.2,0.4-0.4,0.7-0.5,0.9c0,0,0,0.1-0.1,0.2
		c0,0.1-0.1,0.2-0.1,0.2c-0.1,0.1-0.1,0.2-0.3,0.4c-0.1,0.2-0.2,0.4-0.3,0.6L50,55.6c0,0.1-0.1,0.2-0.1,0.3
		c-0.1,0.1-0.1,0.2-0.1,0.2c-0.1,0.1-0.2,0.2-0.4,0.3C49.2,56.5,49.2,56.8,49,56.7C49.1,56.7,49,56.7,49,56.7z"/>
	<path class="st6" d="M51.6,56.5c-0.1,0-0.1-0.1-0.2-0.1v-0.1c0-0.1,0-0.2,0.1-0.3s0.2-0.3,0.3-0.6c0-0.1,0.1-0.2,0.2-0.4
		c0.3-0.5,0.4-0.9,0.4-1.2c0,0,0,0,0-0.1s0-0.1,0.2-0.2c0,0,0.1-0.1,0.2-0.2s0.2-0.2,0.3-0.3c0.1-0.2,0.2-0.4,0.3-0.6
		s0.3-0.6,0.7-1.1c0.3-0.6,0.6-1.1,1-1.5c0.1-0.1,0.1-0.2,0.2-0.2c0.1,0,0.2-0.1,0.2-0.1c0.2,0,0.4,0.1,0.6,0.2
		c0.2,0.2,0.3,0.3,0.4,0.5c0,0,0,0.1,0,0.3c0,0.2,0,0.5-0.1,1c0,0.1,0,0.2,0,0.4c0,0.3,0,0.6-0.1,0.9c-0.1,0.7-0.1,1.3-0.2,1.7
		c0,0.4,0,0.8,0,1.1c0,0.2,0,0.3,0,0.4v0.1v0.2c0,0-0.1,0.1-0.2,0.1c-0.1,0-0.3,0-0.4-0.1s-0.2-0.1-0.2-0.2l0,0c0,0,0,0,0-0.1v-0.2
		v-0.5v-1.5h-0.1c-0.1,0-0.4,0-0.8,0.1c-0.4,0-0.7,0.1-0.8,0.1s-0.1,0-0.2,0.1c-0.1,0.1-0.2,0.2-0.2,0.3s-0.1,0.2-0.1,0.3
		c0,0.1-0.1,0.2-0.1,0.2l-0.1,0.1v0.1c0,0.1-0.1,0.3-0.2,0.5c-0.1,0.3-0.3,0.5-0.4,0.7l-0.4,0.4L51.6,56.5z M54.1,53.2
		c0.1,0,0.3,0,0.3,0c0.3-0.1,0.5-0.1,0.6-0.1s0.1,0,0.1,0s0,0,0.1,0s0,0,0,0s0.1-0.4,0.2-1s0.1-1,0.1-1.2c0-0.1,0-0.2,0-0.3
		s0-0.1,0-0.1c-0.1,0-0.2,0.2-0.4,0.5c-0.2,0.3-0.4,0.7-0.6,1c-0.2,0.3-0.3,0.4-0.3,0.4s-0.1,0.2-0.3,0.5c-0.2,0.3-0.2,0.4-0.2,0.4
		C53.9,53.3,54,53.3,54.1,53.2z"/>
	<path class="st6" d="M61.9,50.8c0,0.1,0,0.1-0.1,0.2c0,0-0.1,0-0.2,0.1s-0.2,0-0.3,0s-0.1,0-0.1,0C61.1,51,61.1,51,61,51
		c-0.1,0-0.3,0-0.5-0.1c-0.1,0-0.2,0-0.2,0s-0.1,0-0.2,0c0,0.2-0.1,0.3-0.2,0.5c0,0.1-0.1,0.2-0.1,0.3s-0.1,0.2-0.1,0.2
		s-0.1,0.2-0.2,0.5c-0.1,0.3-0.2,0.6-0.3,0.9c-0.1,0.2-0.1,0.3-0.1,0.4S59,53.9,59,54s-0.1,0.2-0.1,0.3L58.7,55
		c0,0.1-0.1,0.3-0.2,0.5c-0.1,0.2-0.1,0.4-0.2,0.6c-0.1,0.3-0.1,0.4-0.2,0.5c0,0.1-0.1,0.2-0.1,0.2s-0.1,0-0.2,0
		c-0.1,0-0.2,0-0.3-0.2c-0.1-0.1-0.1-0.2-0.1-0.3s0-0.4,0.2-0.7c0.1-0.3,0.2-0.6,0.3-0.8c0-0.1,0-0.2,0.1-0.3s0-0.1,0-0.2
		c0,0,0-0.1,0.1-0.2s0.1-0.2,0.1-0.3s0.2-0.8,0.6-1.9l0.1-0.2c0.1-0.1,0.1-0.2,0.2-0.4c0,0,0.1-0.1,0.1-0.2c0,0,0,0,0-0.1
		c0,0,0,0,0-0.1l0,0l0,0l0,0l0,0h-0.5h-0.2c-0.4,0-0.6,0-0.6,0.1h-0.1c-0.2,0-0.3,0-0.4-0.1c-0.1-0.1-0.1-0.2-0.1-0.3
		s0.1-0.2,0.2-0.2s0.2-0.1,0.4-0.1c0.1,0,0.2,0,0.3-0.1h0.3h0.3c0.4-0.1,0.8-0.1,1.2-0.1c0.2,0,0.3,0,0.4,0s0.2,0,0.2,0
		c0.1,0,0.2,0,0.4,0s0.3,0,0.4,0.1c0.1,0,0.3,0.1,0.3,0.2C61.8,50.5,61.9,50.6,61.9,50.8C61.9,50.7,61.9,50.8,61.9,50.8z"/>
</g>
<g class="st10">
	<g class="st11">
		<g>
			<path class="st0" d="M39.3,50.1h4.3v1.1h-4.3V50.1z M40.9,50.6H42v5.2h-1.1V50.6z"/>
			<path class="st0" d="M45.1,55.8H44v-5.7h1.1V55.8z"/>
			<path class="st0" d="M45.7,50.1h1.1L48,54l1.2-3.8h1.1l-1.9,5.7h-0.9L45.7,50.1z"/>
			<path class="st0" d="M52.8,50.1h0.7l2.2,5.7h-1.2l-1.4-3.9l-1.4,3.9h-1.2L52.8,50.1z M51.6,53.9h3.1V55h-3.1V53.9z"/>
			<path class="st0" d="M55.6,50.1h4.3v1.1h-4.3V50.1z M57.2,50.6h1.1v5.2h-1.1V50.6z"/>
		</g>
	</g>
</g>
<path class="st1" d="M55.4,25.7c-0.4-0.5-1-0.8-1.7-1c-1.5-0.4-3.4,0-4,1.6l0,0c0.1-1.7,1.6-2.5,3.1-2.5c1.1,0,2.1,0.5,2.5,1.3
	c-0.1-0.4-0.3-0.8-0.5-1.1c-0.6-0.3-1.3-0.5-2-0.5c-1.6,0-3.2,1-3.1,2.7l0,0l0,0c-0.6-1.6,0.5-2.8,1.9-3.1c1-0.3,2.2-0.1,2.9,0.5
	c-0.3-0.3-0.6-0.6-0.9-0.9c-0.7-0.1-1.5-0.1-2.1,0.1c-1.5,0.5-2.6,1.8-1.8,3.3l0,0c-1.3-1.4-0.7-2.8,0.5-3.4c0.8-0.5,2-0.7,3-0.3
	c-0.4-0.2-0.8-0.4-1.2-0.6c-0.7,0.1-1.4,0.3-1.9,0.7c-1.2,0.9-1.7,2.4-0.3,3.6l0,0c-1.8-0.9-1.8-2.4-1-3.4c0.6-0.8,1.6-1.3,2.7-1.2
	c-0.5-0.1-0.9-0.2-1.4-0.2c-0.7,0.3-1.2,0.7-1.5,1.2c-0.8,1.2-0.5,2.8,1.3,3.5l0,0c-2-0.4-2.7-1.8-2.3-3c0.2-0.9,0.9-1.6,2-1.9
	c-0.5,0-1,0.1-1.4,0.2c-0.5,0.4-0.8,1-0.9,1.6c-0.2,1.4,0.6,2.8,2.7,3l0,0c-2,0.3-3.2-0.9-3.4-2.1c-0.2-0.9,0.2-1.8,1.1-2.3
	c-0.4,0.2-0.8,0.4-1.2,0.6c-0.3,0.5-0.3,1.2-0.2,1.8c0.3,1.3,1.7,2.4,3.7,2.1l0,0l0,0c-1.8,0.8-3.4,0.1-4.1-1
	c-0.5-0.8-0.5-1.8,0.1-2.5c-0.3,0.3-0.7,0.6-0.9,0.9c0,0.6,0.2,1.2,0.5,1.7c0.9,1.2,2.6,1.8,4.4,0.9l0,0c-1.4,1.3-3.2,1-4.3,0.2
	c-0.8-0.6-1.2-1.5-0.9-2.4c-0.2,0.4-0.4,0.7-0.5,1.1c0.2,0.6,0.6,1.1,1.2,1.5c1.3,0.8,3.2,0.9,4.5-0.4l0,0c-0.8,1.6-2.6,1.9-3.9,1.4
	c-1-0.3-1.8-1.1-1.8-2c0,0.2,0,0.4,0,0.5c0,0.2,0,0.4,0,0.6c0.4,0.5,1,0.8,1.7,1c1.5,0.4,3.4,0,4-1.6l0,0c-0.1,1.7-1.6,2.5-3.1,2.5
	c-1.1,0-2.1-0.5-2.5-1.3c0.1,0.4,0.3,0.8,0.5,1.1c0.6,0.3,1.3,0.5,2,0.5c1.6,0,3.2-1,3.1-2.7l0,0l0,0c0.6,1.6-0.5,2.8-1.9,3.1
	c-1,0.3-2.2,0.1-2.9-0.5c0.3,0.3,0.6,0.6,0.9,0.9c0.7,0.1,1.5,0.1,2.1-0.1c1.5-0.5,2.6-1.8,1.8-3.3l0,0c1.3,1.4,0.7,2.8-0.5,3.4
	c-0.8,0.5-2,0.7-3,0.3c0.4,0.2,0.8,0.4,1.2,0.6c0.7-0.1,1.4-0.3,1.9-0.7c1.2-0.9,1.7-2.4,0.3-3.6l0,0c1.8,0.9,1.8,2.4,1,3.4
	c-0.6,0.8-1.6,1.3-2.7,1.2c0.5,0.1,0.9,0.2,1.4,0.2c0.7-0.3,1.2-0.7,1.5-1.2c0.8-1.2,0.5-2.8-1.3-3.5l0,0c2,0.4,2.7,1.8,2.3,3
	c-0.2,0.9-0.9,1.6-2,1.9c0.5,0,1-0.1,1.4-0.2c0.5-0.4,0.8-1,0.9-1.6c0.2-1.4-0.6-2.8-2.7-3l0,0c2-0.3,3.2,0.9,3.4,2.1
	c0.2,0.9-0.2,1.8-1.1,2.3c0.4-0.2,0.8-0.4,1.2-0.6c0.3-0.5,0.3-1.2,0.2-1.8c-0.3-1.3-1.7-2.4-3.7-2.1l0,0l0,0c1.8-0.8,3.4-0.1,4.1,1
	c0.5,0.8,0.5,1.8-0.1,2.5c0.3-0.3,0.7-0.6,0.9-0.9c0-0.6-0.2-1.2-0.5-1.7c-0.9-1.2-2.6-1.8-4.4-0.9l0,0c1.4-1.3,3.2-1,4.3-0.2
	c0.8,0.6,1.2,1.5,0.9,2.4c0.2-0.4,0.4-0.7,0.5-1.1c-0.2-0.6-0.6-1.1-1.2-1.5c-1.3-0.8-3.2-0.9-4.5,0.4l0,0c0.8-1.6,2.6-1.9,3.9-1.4
	c1,0.3,1.8,1.1,1.8,2c0-0.2,0-0.4,0-0.5C55.5,26.1,55.5,25.9,55.4,25.7z"/>
<path class="st12" d="M52,11.2c-0.9,0-1.7,0.4-2.3,1.1l0,0c0.3-0.9,0.9-1.5,1.6-1.9c0.7-0.4,1.6-0.5,2.4-0.2c0-0.2,0.1-0.3,0.1-0.5
	c-1-0.2-1.9,0-2.6,0.5c-0.7,0.5-1.3,1.2-1.5,2.1l0,0c-0.2-0.9,0-1.8,0.4-2.5s1.1-1.2,2-1.4C52,8.3,52,8.1,52,8
	c-0.9,0.3-1.6,0.9-2,1.7c-0.4,0.8-0.5,1.7-0.2,2.6l0,0c-0.6-0.7-0.9-1.5-0.8-2.4c0-0.8,0.4-1.6,1-2.2c-0.1-0.1-0.2-0.2-0.3-0.3
	c-0.7,0.7-1,1.6-0.9,2.5c0.1,0.9,0.4,1.7,1.1,2.3l0,0c-0.9-0.3-1.5-0.9-1.9-1.6c-0.4-0.7-0.5-1.6-0.2-2.4c-0.2,0-0.3-0.1-0.5-0.1
	c-0.2,1,0,1.9,0.5,2.6c0.5,0.7,1.2,1.3,2.1,1.5l0,0c-0.9,0.2-1.8,0-2.4-0.4c-0.7-0.4-1.2-1.1-1.4-2c-0.2,0-0.3,0.1-0.5,0.1
	c0.3,0.9,0.9,1.7,1.7,2.1c0.8,0.4,1.7,0.5,2.6,0.2l0,0c-0.7,0.6-1.5,0.9-2.3,0.9s-1.6-0.4-2.2-1c-0.1,0.1-0.2,0.2-0.3,0.3
	c0.7,0.7,1.6,1,2.5,0.9c0.9,0,1.7-0.4,2.3-1.1l0,0C49.6,13,49,13.6,48.3,14c-0.7,0.4-1.6,0.5-2.4,0.2c0,0.2-0.1,0.3-0.1,0.5
	c1,0.2,1.9,0,2.6-0.5c0.7-0.5,1.3-1.2,1.5-2.1l0,0c0.2,0.9,0,1.8-0.4,2.5s-1.1,1.2-2,1.4c0,0.2,0.1,0.3,0.1,0.5
	c0.9-0.3,1.6-0.9,2-1.7c0.4-0.8,0.5-1.7,0.2-2.6l0,0c0.6,0.7,0.9,1.5,0.8,2.4c0,0.8-0.4,1.6-1,2.2c0.1,0.1,0.2,0.2,0.3,0.3
	c0.7-0.7,1-1.6,0.9-2.5s-0.4-1.7-1.1-2.3l0,0c0.9,0.3,1.5,0.9,1.9,1.6c0.4,0.7,0.5,1.6,0.2,2.4c0.2,0,0.3,0.1,0.5,0.1
	c0.2-1,0-1.9-0.5-2.6c-0.5-0.7-1.2-1.3-2.1-1.5l0,0c0.9-0.2,1.8,0,2.4,0.4c0.7,0.4,1.2,1.1,1.4,2c0.2,0,0.3-0.1,0.5-0.1
	c-0.3-0.9-0.9-1.7-1.7-2.1c-0.8-0.4-1.7-0.5-2.6-0.2l0,0c0.7-0.6,1.5-0.9,2.3-0.9s1.6,0.4,2.2,1c0.1-0.1,0.2-0.2,0.3-0.3
	C53.8,11.5,52.9,11.2,52,11.2z"/>
<g class="st10">
	<path class="st13" d="M56.1,10.7c-0.2,0-0.4,0.2-0.4,0.4c0,0.1,0,0.2,0.1,0.3c-0.3,0.4-0.7,0.8-1,1.2c-0.4,0.5-0.8,0.9-1.3,1.3
		c-0.1-0.9-0.3-1.8-0.4-2.6c-0.1-0.6-0.1-1.2-0.2-1.8c0.2,0,0.3-0.2,0.3-0.4c0-0.2-0.2-0.4-0.4-0.4s-0.4,0.2-0.4,0.4
		c0,0.1,0,0.2,0.1,0.3c-0.3,0.5-0.5,1.1-0.8,1.6c-0.3,0.5-0.5,1-0.8,1.4c-0.2-0.8-0.4-1.6-0.6-2.4c-0.2-0.8-0.4-2-0.5-2.5
		C49.9,7.4,50,7.3,50,7.1s-0.2-0.4-0.4-0.4s-0.4,0.2-0.4,0.4c0,0.2,0.1,0.3,0.2,0.4C49.3,8,49,9.2,48.9,10c-0.2,0.8-0.4,1.6-0.6,2.4
		C48,12,47.7,11.5,47.5,11c-0.3-0.5-0.5-1-0.8-1.5c0.1-0.1,0.1-0.2,0.1-0.3c0-0.2-0.2-0.4-0.4-0.4S46,9,46,9.2
		c0,0.2,0.1,0.3,0.2,0.4c0,0.6-0.1,1.2-0.2,1.8c-0.1,0.9-0.2,1.8-0.4,2.6c-0.4-0.4-0.9-0.8-1.3-1.3c-0.3-0.4-0.7-0.8-1-1.2
		c0-0.1,0.1-0.2,0.1-0.3c0-0.2-0.2-0.4-0.4-0.4s-0.4,0.2-0.4,0.4c0,0.2,0.2,0.4,0.4,0.4c0.1,0.6,0.2,1.1,0.3,1.7
		c0.1,0.7,0.2,1.4,0.3,2.1v0.1h11.7v-0.1c0.1-0.7,0.2-1.4,0.3-2.1c0.1-0.6,0.2-1.1,0.3-1.7l0,0c0.2,0,0.4-0.2,0.4-0.4
		C56.5,10.9,56.3,10.7,56.1,10.7z"/>
	<polygon class="st13" points="44,16.3 55.4,16.3 55.6,15.4 43.8,15.4 	"/>
</g>
<g class="st10">
	<path class="st14" d="M54.5,22.5c-0.6-0.2-1.3-0.3-2-0.3c-3.3,0-6,2.1-6,4.7c0,1,0.4,1.9,1,2.6c-2-1.3-3-3.2-2.5-5.2
		c0.7-2.6,3.8-3.9,7-3.1C53,21.5,53.8,22,54.5,22.5z"/>
	<path class="st14" d="M44.8,30.3c0.6,0.2,1.3,0.3,2,0.3c3.3,0,6-2.1,6-4.7c0-1-0.4-1.9-1-2.6c2,1.3,3,3.2,2.5,5.2
		c-0.7,2.6-3.8,3.9-7,3.1C46.4,31.2,45.5,30.8,44.8,30.3z"/>
</g>
<g>
	<g>
		<path class="st6" d="M43.8,23.3l0.1,0.2l2.4,5.3c0.1,0.2,0.2,0.3,0.4,0.3h5.8c0.2,0,0.3-0.1,0.4-0.3l2.4-5.3l0.1-0.2l-0.2,0.2
			l-1.8,2.2c-0.1,0.2-0.4,0.2-0.5,0.1c-0.2-0.1-0.3-0.3-0.3-0.5l0.1-2.6v-0.2l-0.1,0.2l-1.1,2.6c-0.1,0.2-0.4,0.4-0.6,0.4
			c-0.3,0-0.5-0.2-0.5-0.5l-0.6-2.6v-0.1v0.1L49,25.1c-0.1,0.3-0.3,0.5-0.5,0.5s-0.5-0.2-0.6-0.4l-1.2-2.5l-0.1-0.2v0.2l0.1,2.6
			c0,0.2-0.1,0.4-0.3,0.5c-0.2,0.1-0.4,0-0.5-0.1L44,23.5L43.8,23.3z M53,28.3c0,0,0.5-2.4,0.9-2.2C54.3,26.3,53,28.3,53,28.3z
			 M52,25.6c0.7,0.1-0.5,2.6-0.5,2.6S51.3,25.5,52,25.6z M49.7,25.4c0.9,0,0,2.6,0,2.6S48.8,25.4,49.7,25.4z M47.4,25.6
			c0.7-0.1,0.5,2.6,0.5,2.6S46.7,25.8,47.4,25.6z M45.5,26.1c0.4-0.2,0.9,2.2,0.9,2.2S45.1,26.3,45.5,26.1z"/>
		<path class="st6" d="M49,21.8c0,0.4,0.3,0.7,0.7,0.7l0,0l0,0c0.4,0,0.7-0.3,0.7-0.7c0-0.4-0.3-0.7-0.7-0.7S49,21.4,49,21.8z
			 M49.3,21.8c0-0.2,0.2-0.4,0.4-0.4s0.4,0.2,0.4,0.4c0,0.2-0.2,0.5-0.4,0.5C49.4,22.3,49.3,22.1,49.3,21.8z"/>
		<path class="st6" d="M52.2,22.1c0,0.3,0.2,0.6,0.5,0.7c0,0,0,0,0.1,0c0,0,0.1,0,0.2,0c0.4,0,0.7-0.3,0.7-0.7
			c0-0.4-0.3-0.7-0.7-0.7C52.5,21.4,52.2,21.7,52.2,22.1z M52.5,22.1c0-0.2,0.2-0.4,0.4-0.4s0.4,0.2,0.4,0.4c0,0.2-0.2,0.4-0.4,0.4
			C52.7,22.5,52.5,22.3,52.5,22.1z"/>
		<path class="st6" d="M55,22.9c0,0.3,0.2,0.5,0.4,0.6c0,0,0,0,0.1,0s0.2,0.1,0.3,0.1c0.4,0,0.7-0.3,0.7-0.7c0-0.4-0.3-0.7-0.7-0.7
			C55.3,22.2,55,22.5,55,22.9z M55.3,22.9c0-0.2,0.2-0.4,0.4-0.4s0.4,0.2,0.4,0.4c0,0.2-0.1,0.4-0.4,0.4
			C55.5,23.3,55.3,23.1,55.3,22.9z"/>
		<path class="st6" d="M45.7,22.1c0,0.4,0.3,0.7,0.7,0.7c0,0,0.1,0,0.2,0c0,0,0,0,0.1,0c0.3-0.1,0.5-0.4,0.5-0.7
			c0-0.4-0.3-0.7-0.7-0.7C46,21.4,45.7,21.7,45.7,22.1z M46,22.1c0-0.2,0.2-0.4,0.4-0.4s0.4,0.2,0.4,0.4c0,0.2-0.2,0.4-0.4,0.4
			C46.2,22.5,46,22.3,46,22.1z"/>
		<path class="st6" d="M42.9,22.9c0,0.4,0.3,0.7,0.7,0.7c0.1,0,0.2,0,0.3-0.1c0,0,0,0,0.1,0c0.2-0.1,0.4-0.4,0.4-0.6
			c0-0.4-0.3-0.7-0.7-0.7S42.9,22.5,42.9,22.9z M43.2,22.9c0-0.2,0.2-0.4,0.4-0.4s0.4,0.2,0.4,0.4c0,0.2-0.1,0.4-0.3,0.4
			C43.4,23.3,43.2,23.1,43.2,22.9z"/>
	</g>
	<path class="st6" d="M63.9,30.3H35.4c-0.2,0-0.3-0.1-0.3-0.3l0,0c0-0.1,0.1-0.3,0.3-0.3h28.5c0.2,0,0.3,0.1,0.3,0.3l0,0
		C64.2,30.2,64.1,30.3,63.9,30.3z"/>
	<g>
		<g>
			<path class="st6" d="M54.3,27.6C54.3,27.7,54.3,27.7,54.3,27.6L54.3,27.6l6.4,1.3h-7.1c-0.1,0-0.2,0.1-0.2,0.2v0.1
				c0,0.1,0.1,0.2,0.2,0.2H64c0.1,0,0.1,0,0.1-0.1s0-0.1-0.1-0.1l-9.7-1.8l0,0h-0.1C54.2,27.4,54.2,27.4,54.3,27.6L54.3,27.6
				L54.3,27.6z"/>
		</g>
		<g>
			<path class="st6" d="M45.1,27.6C45.1,27.7,45.1,27.7,45.1,27.6L45.1,27.6l-6.4,1.3h7.1c0.1,0,0.2,0.1,0.2,0.2v0.1
				c0,0.1-0.1,0.2-0.2,0.2H35.3c-0.1,0-0.1,0-0.1-0.1s0-0.1,0.1-0.1l9.7-1.8l0,0h0.1C45.1,27.4,45.1,27.4,45.1,27.6L45.1,27.6
				L45.1,27.6z"/>
		</g>
	</g>
</g>
</svg>
