<?xml version="1.0" encoding="utf-8"?>
<!-- Generator: Adobe Illustrator 24.0.1, SVG Export Plug-In . SVG Version: 6.00 Build 0)  -->
<svg version="1.1" id="Layer_1" xmlns="http://www.w3.org/2000/svg" xmlns:xlink="http://www.w3.org/1999/xlink" x="0px" y="0px"
	 viewBox="0 0 280 25" style="enable-background:new 0 0 280 25;" xml:space="preserve">
<style type="text/css">
	.st0{fill:#FDB81E;}
</style>
<g>
	<path class="st0" d="M280,8.9c0,0-7.2,3.9-13.8,4.2c-6.7,0.3-12.4,0-20.6-1.4c-11.2-1.8-32.7-9.3-44.1-5.2c-11.5,4-12,4.2-17.8,6.8
		c-6.5,2.9-19.8,8.8-36.1,8.5C130,21.6,98.3,6.6,85.2,7.3c-1.4,0.1-6.5,0.7-10.4,1.8c-3.8,1.1-9.3,3.5-16.8,4.3
		c-3.2,0.4-8.2,1-14,0.8c-1.5-0.1-6.2-0.4-11.9-1.5S21.3,10,16.6,9.5C6.4,8.4,0,9.9,0,9.9V0h280V8.9z M257.6,10.4
		c-0.7-0.9-2-0.4-4.2-0.4c-2.3,0-6-1.1-5.7-1s3.1,1.4,5.9,1.7C256.5,11.2,258.2,11.3,257.6,10.4z M239.4,7.9c0,0-2.4-0.2-5.5-0.8
		c-3.2-0.7-10.2-2.6-14.9-3.2c-8.1-1-15.6,0-14.9,0.1c0.8,0.1,9.5-0.6,17.4,1c3.3,0.6,9.2,2,12.2,2.5C236.9,8,239.4,7.9,239.4,7.9z
		 M182.9,7.8c1.7-0.6-13.1,4.3-18.3,5.6c-2.1,0.6-6.1,1.5-9.9,1.8c-3.9,0.4-8.8,0.4-8.7,0.5c0,0.2,5.7,0.7,11.1,0s5.1-1,7.5-1.5
		C168.4,13.5,181.2,8.4,182.9,7.8z M196.6,6.3c0.2,0-0.8-0.4-4.7,1c-4,1.4-6.6,3.2-6.8,3.4c-0.2,0.1,3.5-1.7,6.5-2.8
		C194.6,6.9,196.5,6.3,196.6,6.3z M279.5,5.5c-0.1,0.1-1.9,1-4.7,2.3s-6.8,2.6-6.6,2.5c0.2,0,3.5-0.6,7.3-2.3S279.6,5.4,279.5,5.5z
		 M30.9,10.7c0.1-0.2-1.9-0.2-4.4-1.1c-2.6-0.9-5.3-1.5-7.7-1.8C14.8,7,7.2,7.8,7.6,7.9C7.9,8,15.7,7.6,20,8.5
		C22.1,9,22.3,9,25.6,10S30.8,10.9,30.9,10.7z M72.1,8.4c0.4-0.1,3.5-1.5,8.3-2.4c4.8-1,8.8-0.5,8.8-0.7s-1-0.8-6.1-0.3
		C77.9,5.6,71.7,8.5,72.1,8.4z M70.7,6.2c0.2,0.1,3.4-1.2,5.6-1.6c2.3-0.3,1.9-0.5,1.9-0.6c0-0.1-1.1-0.2-2.7,0.2
		C73.9,4.7,70.5,6.1,70.7,6.2z M92.4,4c0.1,0.2,3.5,0.7,5.5,1.7s1.8,0.6,1.9,0.5S99.1,5.4,97.5,5C95.9,4.4,92.3,3.9,92.4,4z
		 M64.6,10.2c-0.1,0.3,0.3,0.5,1.9-0.2C68,9.4,69,8.8,68.6,8.9c-0.4,0.1-0.9,0.4-2.5,0.7C64.5,10,64.7,9.9,64.6,10.2z M34.1,11.4
		c-0.2,0,2.1,0.7,3.3,0.8c1.2,0.1,2,0.1,2-0.2c0-0.3-0.1-0.5-1.6-0.4C36.1,11.8,34.3,11.4,34.1,11.4z M150.3,19.4
		c-0.1,0.1-2.4-0.3-7.4-0.3c-4.9,0-13.4-2.2-17-3.2c-3.6-1,9.9,3.6,16.3,3.8C148.6,19.8,150.4,19.3,150.3,19.4z"/>
	<path class="st0" d="M266.3,16.5c-0.1-0.1-4.5,0.3-7.1,0c-7.2-0.6-16.8-2.9-16.4-2.7c0.4,0.3,13.5,2.8,16.8,3
		C264.4,17.3,266.4,16.5,266.3,16.5z"/>
	<path class="st0" d="M224.6,9c-0.2-0.1-4.4-0.9-9.4-1.1c-4.9-0.2-12.5,0.6-12.1,0.5c0.3-0.1,5.8-1.7,13.1-1.1S224.8,9.1,224.6,9z"
		/>
	<path class="st0" d="M202,12.3c-0.1-0.1,2-0.9,3.2-1c1.2-0.1,2,0,2,0.3s-0.1,0.5-1.6,0.4C203.9,11.8,202.1,12.4,202,12.3z"/>
	<path class="st0" d="M198.5,9.7c0-0.1-4.3,1.1-6.2,2c-1.9,0.8-6.1,2.8-6,2.8c0.1,0.1,4.1-1.5,6.2-2.4
		C194.6,11.3,198.5,9.8,198.5,9.7z"/>
	<path class="st0" d="M152.6,24.5c-0.1-0.1-4.5,0.3-7.1,0c-7.2-0.6-16.8-2.9-16.4-2.7c0.4,0.3,13.5,2.8,16.8,3
		C150.7,25.3,152.7,24.6,152.6,24.5z"/>
	<path class="st0" d="M41.4,17.7c0,0,1.2-0.3,2.9-0.1c1.7,0.2,5.7,0.8,8.1,0.6c4.1-0.4,7.3-2.5,6.9-2.4c-0.4,0-4.2,2-8.5,1.7
		c-1.8-0.1-5-0.5-6.6-0.4C42.6,17.4,41.4,17.7,41.4,17.7z"/>
	<path class="st0" d="M74.6,11.6c0.2,0.1,2-0.7,4.2-1c2.3-0.2,2.1-0.3,2.1-0.5c0-0.1-1.8-0.4-3.4,0C76,10.6,74.4,11.5,74.6,11.6z"/>
	<path class="st0" d="M15.4,12.1c0-0.1,4.2,0,6.6,0.5s4.9,1.7,4.9,1.8c0,0.1-2.7-0.7-5-1.3C19.7,12.6,15.5,12.2,15.4,12.1z"/>
</g>
</svg>
