<?xml version="1.0" encoding="utf-8"?>
<!-- Generator: Adobe Illustrator 24.0.1, SVG Export Plug-In . SVG Version: 6.00 Build 0)  -->
<svg version="1.1" id="Layer_1" xmlns="http://www.w3.org/2000/svg" xmlns:xlink="http://www.w3.org/1999/xlink" x="0px" y="0px"
	 viewBox="0 0 24 24" style="enable-background:new 0 0 24 24;" xml:space="preserve">
<style type="text/css">
	.st0{clip-path:url(#SVGID_2_);}
	.st1{fill:#001163;}
	.st2{fill:#FFFFFF;}
	.st3{fill:#D00000;}
</style>
<g>
	<defs>
		<circle id="SVGID_1_" cx="12" cy="12" r="12"/>
	</defs>
	<clipPath id="SVGID_2_">
		<use xlink:href="#SVGID_1_"  style="overflow:visible;"/>
	</clipPath>
	<g class="st0">
		<polygon class="st1" points="-8,16.8 -8,22.8 0.7,16.8 		"/>
		<polygon class="st1" points="32,22.8 32,16.8 23.3,16.8 		"/>
		<polygon class="st1" points="32,7.5 32,1.4 23.2,7.5 		"/>
		<polygon class="st1" points="8,0 -0.9,0 8,6.2 		"/>
		<polygon class="st1" points="-8,1.4 -8,7.5 0.8,7.5 		"/>
		<polygon class="st1" points="24.9,0 16,0 16,6.2 		"/>
		<polygon class="st1" points="-0.6,24 8,24 8,18 		"/>
		<polygon class="st1" points="16,18 16,24 24.6,24 		"/>
		<polygon class="st2" points="14.4,16.9 14.4,24 16,24 16,18 		"/>
		<polygon class="st2" points="16,6.2 16,0 14.4,0 14.4,7.3 		"/>
		<polygon class="st2" points="8,18 8,24 9.6,24 9.6,16.9 		"/>
		<polygon class="st2" points="9.6,7.3 9.6,0 8,0 8,6.2 		"/>
		<polygon class="st2" points="23.3,16.8 32,16.8 32,14.8 20.5,14.8 		"/>
		<polygon class="st2" points="20.5,9.4 32,9.4 32,7.5 23.2,7.5 		"/>
		<polygon class="st2" points="3.5,14.8 -8,14.8 -8,16.8 0.7,16.8 		"/>
		<polygon class="st2" points="0.8,7.5 -8,7.5 -8,9.4 3.5,9.4 		"/>
		<polygon class="st2" points="16,7.5 23.2,7.5 32,1.4 32,0 24.9,0 16,6.2 		"/>
		<polygon class="st2" points="8,16.8 0.7,16.8 -8,22.8 -8,24 -0.6,24 8,18 		"/>
		<polygon class="st2" points="8,16.8 8,18 9.6,16.9 9.6,16.8 		"/>
		<polygon class="st2" points="16,7.5 16,6.2 14.4,7.3 14.4,7.5 		"/>
		<polygon class="st2" points="20.5,9.4 23.2,7.5 16,7.5 16,9.4 		"/>
		<polygon class="st2" points="3.5,14.8 0.7,16.8 8,16.8 8,14.8 		"/>
		<rect x="14.4" y="7.5" class="st2" width="1.6" height="1.9"/>
		<rect x="8" y="14.8" class="st2" width="1.5" height="1.9"/>
		<polygon class="st2" points="8,7.5 8,6.2 -0.9,0 -8,0 -8,1.4 0.8,7.5 		"/>
		<polygon class="st2" points="16,16.8 16,18 24.6,24 32,24 32,22.8 23.3,16.8 		"/>
		<polygon class="st2" points="14.4,16.8 14.4,16.9 16,18 16,16.8 		"/>
		<polygon class="st2" points="9.6,7.3 8,6.2 8,7.5 9.6,7.5 		"/>
		<polygon class="st2" points="16,16.8 23.3,16.8 20.5,14.8 16,14.8 		"/>
		<polygon class="st2" points="8,7.5 0.8,7.5 3.5,9.4 8,9.4 		"/>
		<rect x="8" y="7.5" class="st2" width="1.5" height="1.9"/>
		<rect x="14.4" y="14.8" class="st2" width="1.6" height="1.9"/>
		<polygon class="st3" points="14.2,16.8 9.8,16.8 9.6,16.9 9.6,24 14.4,24 14.4,16.9 		"/>
		<polygon class="st3" points="9.9,7.5 14.2,7.5 14.4,7.3 14.4,0 9.6,0 9.6,7.3 		"/>
		<polygon class="st3" points="14.2,7.5 9.9,7.5 12,9 		"/>
		<polygon class="st3" points="9.8,16.8 14.2,16.8 12,15.3 		"/>
		<polygon class="st3" points="14.4,7.3 14.2,7.5 14.4,7.5 		"/>
		<polygon class="st3" points="9.6,16.9 9.8,16.8 9.6,16.8 		"/>
		<polygon class="st3" points="11.4,14.8 9.6,14.8 9.6,16.8 9.8,16.8 12,15.3 		"/>
		<polygon class="st3" points="12.6,9.4 14.4,9.4 14.4,7.5 14.2,7.5 12,9 		"/>
		<polygon class="st3" points="9.9,7.5 9.6,7.3 9.6,7.5 		"/>
		<polygon class="st3" points="14.2,16.8 14.4,16.9 14.4,16.8 		"/>
		<polygon class="st3" points="9.6,9.4 11.4,9.4 12,9 9.9,7.5 9.6,7.5 		"/>
		<polygon class="st3" points="14.4,14.8 12.6,14.8 12,15.3 14.2,16.8 14.4,16.8 		"/>
		<polygon class="st3" points="12,9 11.4,9.4 12.6,9.4 		"/>
		<polygon class="st3" points="12,15.3 12.6,14.8 11.4,14.8 		"/>
		<polygon class="st3" points="7.5,12.1 3.5,9.4 -8,9.4 -8,14.8 3.5,14.8 		"/>
		<polygon class="st3" points="16.6,12.1 20.5,14.8 32,14.8 32,9.4 20.5,9.4 		"/>
		<polygon class="st3" points="16,11.7 16.6,12.1 20.5,9.4 16,9.4 		"/>
		<polygon class="st3" points="8,12.5 7.5,12.1 3.5,14.8 8,14.8 		"/>
		<polygon class="st3" points="16,11.7 16,9.4 14.4,9.4 14.4,10.6 		"/>
		<polygon class="st3" points="8,12.5 8,14.8 9.6,14.8 9.6,13.6 		"/>
		<polygon class="st3" points="16,14.8 20.5,14.8 16.6,12.1 16,12.5 		"/>
		<polygon class="st3" points="8,9.4 3.5,9.4 7.5,12.1 8,11.7 		"/>
		<polygon class="st3" points="16,12.5 14.4,13.6 14.4,14.8 16,14.8 		"/>
		<polygon class="st3" points="9.6,9.4 8,9.4 8,11.7 9.6,10.6 		"/>
		<polygon class="st3" points="8,11.7 7.5,12.1 8,12.5 		"/>
		<polygon class="st3" points="16,12.5 16.6,12.1 16,11.7 		"/>
		<polygon class="st3" points="9.6,10.6 8,11.7 8,12.5 9.6,13.6 		"/>
		<polygon class="st3" points="14.4,13.6 16,12.5 16,11.7 14.4,10.6 		"/>
		<polygon class="st3" points="14.4,9.4 12.6,9.4 14.4,10.6 		"/>
		<polygon class="st3" points="9.6,14.8 11.4,14.8 9.6,13.6 		"/>
		<polygon class="st3" points="12.6,14.8 14.4,14.8 14.4,13.6 		"/>
		<polygon class="st3" points="11.4,9.4 9.6,9.4 9.6,10.6 		"/>
		<polygon class="st3" points="14.4,10.6 12.6,9.4 11.4,9.4 9.6,10.6 9.6,13.6 11.4,14.8 12.6,14.8 14.4,13.6 		"/>
	</g>
</g>
</svg>
