<?xml version="1.0" encoding="utf-8"?>
<!-- Generator: Adobe Illustrator 24.0.1, SVG Export Plug-In . SVG Version: 6.00 Build 0)  -->
<svg version="1.1" id="Layer_1" xmlns="http://www.w3.org/2000/svg" xmlns:xlink="http://www.w3.org/1999/xlink" x="0px" y="0px"
	 viewBox="0 0 24 24" style="enable-background:new 0 0 24 24;" xml:space="preserve">
<style type="text/css">
	.st0{clip-path:url(#SVGID_2_);}
	.st1{fill:#C40308;}
	.st2{fill:#FBC816;}
	.st3{display:none;fill:#FBC816;}
	.st4{display:none;}
	.st5{display:inline;}
	.st6{fill:#003895;}
	.st7{display:inline;fill:#003895;}
	.st8{display:inline;fill:#ED2D38;}
	.st9{display:inline;fill:#FBC816;}
	.st10{fill:#F4F935;}
	.st11{fill:#1D5E91;}
	.st12{fill:#6D8C3E;}
	.st13{fill:#D48500;}
</style>
<g>
	<defs>
		<circle id="SVGID_1_" cx="12" cy="12" r="12"/>
	</defs>
	<clipPath id="SVGID_2_">
		<use xlink:href="#SVGID_1_"  style="overflow:visible;"/>
	</clipPath>
	<g class="st0">
		<g>
			<rect x="-8" y="0" class="st1" width="40" height="24"/>
			<g>
				<path class="st2" d="M12,1c6.1,0,11,4.9,11,11s-4.9,11-11,11S1,18.1,1,12S5.9,1,12,1 M12,0C5.4,0,0,5.4,0,12s5.4,12,12,12
					c6.6,0,12-5.4,12-12S18.6,0,12,0L12,0z"/>
			</g>
			<path class="st3" d="M-8,0v24h40V0H-8z M31,22.8H-7V1.2h38V22.8z"/>
		</g>
		<g>
			<g class="st4">
				<g class="st5">
					<polygon class="st2" points="12.2,5.5 12.2,5.6 12.1,5.6 12.1,5.7 11.9,5.7 11.9,5.6 11.8,5.6 11.8,5.5 11.9,5.5 11.9,5.4 
						12.1,5.4 12,5.5 					"/>
					<path class="st6" d="M12.2,6c0,0.1-0.1,0.2-0.2,0.2S11.8,6.1,11.8,6H12.2z"/>
					<path class="st6" d="M11.9,5.7L11.9,5.7l-0.2,0.1C11.8,5.8,11.8,5.7,11.9,5.7z"/>
					<path class="st6" d="M12.2,5.9H12V5.7C12.2,5.7,12.2,5.8,12.2,5.9z"/>
					<path class="st2" d="M12.3,5.9C12.3,5.9,12.2,6,12.3,5.9h-0.5l0,0l0,0H12V5.7h0.1v0.1L12.3,5.9C12.2,5.9,12.3,5.9,12.3,5.9z"/>
				</g>
				<path class="st7" d="M17.1,15.1L16.7,15l0.1-0.4C17,14.7,17.1,14.9,17.1,15.1z M16.4,14.5c-0.3,0-0.5,0.1-0.6,0.3l0.5,0.1
					L16.4,14.5L16.4,14.5z M16.4,15.5l-0.7-0.2C15.8,15.9,16.3,15.8,16.4,15.5z M16.8,15.7c-0.1,0-0.2,0.1-0.1,0.2
					c0.1,0.1,0.3-0.1,0.3-0.2H16.8C16.8,15.6,16.8,15.6,16.8,15.7z"/>
				<g class="st5">
					<path class="st2" d="M12,7.4L12,7.4L12,7.4C12,7.3,12,7.3,12,7.4C12,7.3,12,7.3,12,7.4z"/>
					<circle class="st2" cx="12" cy="6.3" r="0.1"/>
					<circle class="st2" cx="12" cy="6.6" r="0.1"/>
					<path class="st2" d="M12.1,6.9C12.1,6.9,12,7,12.1,6.9C12,7,12,6.9,12,6.9C11.9,6.8,12,6.8,12.1,6.9C12,6.8,12.1,6.8,12.1,6.9z
						"/>
					<g>
						<path class="st2" d="M10.2,12.1c-0.1,0-0.2,0-0.2-0.1c-0.1-0.1-0.1-0.1-0.2-0.2c-0.1,0-0.2,0-0.3,0c-0.1,0-0.2-0.1-0.3-0.2
							c0-0.1,0-0.2,0.1-0.3s0.3-0.1,0.4-0.3c0.1-0.1,0.1-0.3,0-0.4c-0.1-0.1-0.2-0.2-0.2-0.3C9.3,10.1,9.1,9.9,9,9.6
							c0,0.1,0,0.2,0,0.3l0,0c0,0,0,0-0.1,0s0,0,0,0S8.8,9.8,8.7,9.8s-0.1,0-0.2,0.1c0,0.1,0,0.1,0,0.2c0,0.1,0.1,0.1,0.1,0.2
							c0,0,0,0,0,0.1l0,0l0,0c-0.1,0-0.1-0.1-0.2-0.1s-0.1-0.1-0.2,0c-0.1,0-0.1,0-0.1,0.1v0.1l0.1,0.1l0.1,0.1
							c-0.1,0-0.1-0.1-0.2-0.1s-0.1,0-0.2,0.1c0,0.1,0,0.1,0.1,0.1l0.1,0.1c0.1,0,0.1,0,0.2,0l0,0l0,0l0,0H8.2c0,0-0.1,0-0.1,0.1
							v0.1l0.1,0.1c0.1,0,0.1,0,0.2,0c0,0,0,0,0.1,0c0,0,0,0,0,0.1l-0.1,0.1l-0.1,0.1c0,0,0,0.1,0.1,0.1s0.2,0.1,0.2,0h0.1
							c0,0-0.1,0.1-0.1,0.2c0,0.1,0.1,0.1,0.2,0.1s0.1,0,0.2-0.1c0,0,0,0,0.1,0c0,0,0,0,0,0.1c0,0,0,0-0.1,0H8.9
							c-0.1,0-0.1,0.1,0,0.2c0,0.1,0.1,0.1,0.2,0.1s0.1,0,0.2-0.1h0.1v0.1v0.1c0,0.1,0,0.2,0.1,0.2s0.2,0,0.3-0.1l0,0c0,0,0,0,0.1,0
							c0,0,0,0,0,0.1c0,0,0,0,0,0.1s0,0.1,0.1,0.2c0.1,0,0.2,0,0.2,0C10.1,12.7,10.1,12.4,10.2,12.1z"/>
						<path class="st2" d="M10.1,15.2c-0.1,0-0.3,0.3-0.3,0.3C9.8,15.3,10,15.2,10.1,15.2c-0.1,0-0.5,0-0.6-0.2c0,0-0.2,0.1-0.3,0.1
							c0.1,0.1,0.3,0.2,0.5,0.2c-0.1,0.1-0.3,0.4-0.1,0.7c0.1-0.1,0.6-0.4,0.6-0.4S10.2,15.2,10.1,15.2z"/>
						<path class="st2" d="M9.4,15.3c-0.1-0.1-0.2-0.1-0.2-0.1S9.1,15.3,9,15.4C9.1,15.5,9.4,15.4,9.4,15.3z"/>
						<path class="st2" d="M9.1,15.6c-0.3,0.2-0.7,0.2-1.1,0.2S7.6,16,7.6,16.1c0,0.1,0.1,0.2,0.2,0.2c0.2,0,0.1-0.2,0.1-0.2
							c0.4-0.1,0.6,0.1,0.6,0.1C8.3,16,8.1,16,8.1,16c0.1,0.1,0.1,0.2,0.1,0.2c0.1,0,0.1-0.2,0.1-0.2c0.2,0.1,0.1,0.4,0.1,0.4
							c0.1,0,0.1,0.1,0.1,0.1c0.1,0,0.1-0.2,0.1-0.2s0.1,0,0.1,0.2c0.1-0.2,0.6-0.6,0.8-0.7c0-0.3,0.1-0.4,0.1-0.4
							S9.4,15.4,9.1,15.6z"/>
						<path class="st2" d="M7.7,16.4c0-0.1-0.1-0.3-0.1-0.4C7.3,16.2,7.5,16.4,7.7,16.4z"/>
						<path class="st2" d="M8.1,16.1c0,0,0-0.1-0.1-0.1C8,16,8,16.1,8.1,16.1L8.1,16.1z"/>
						<path class="st2" d="M8.2,16.3h0.1c0,0,0.1-0.1,0-0.2C8.2,16.2,8.2,16.3,8.2,16.3z"/>
						<path class="st2" d="M8.5,16.4c0,0,0,0.1-0.1,0.2l0.1,0.1C8.5,16.6,8.6,16.5,8.5,16.4z"/>
						<path class="st2" d="M8.5,16.9H8.3c0,0,0.1,0.1,0,0.4c0,0,0.1,0.1,0.2-0.2c0,0,0.1,0.1,0.3,0C8.7,17.2,8.5,17,8.5,16.9z"/>
						<polygon class="st2" points="8.4,17.3 8.5,17.4 8.6,17.3 8.5,17.2 						"/>
						<path class="st2" d="M7.9,16.5L7.9,16.5c0-0.1,0-0.1,0-0.1l0,0C7.9,16.4,7.9,16.4,7.9,16.5C7.8,16.4,7.8,16.5,7.9,16.5
							C7.8,16.5,7.8,16.5,7.9,16.5z"/>
						<path class="st2" d="M7.9,16.3L7.9,16.3c0,0.1,0,0.1,0,0.1H8l0.1-0.1c0-0.1,0-0.1-0.1-0.1C8,16.2,8,16.2,7.9,16.3
							C8,16.2,7.9,16.3,7.9,16.3z"/>
						<path class="st2" d="M8,16.7h0.1h0.1c0,0,0.1,0,0.1-0.1v-0.1l0,0c0,0,0,0-0.1,0c0,0,0,0-0.1,0.1c0,0,0,0-0.1,0c0,0,0,0-0.1,0
							c0,0,0,0.1-0.1,0.1H7.7H7.6c0,0-0.1,0-0.1,0.1v0.1c0,0,0,0,0.1,0.1l0.1,0.1C7.8,16.8,7.9,16.8,8,16.7C7.9,16.7,8,16.7,8,16.7z
							"/>
						<path class="st2" d="M8.4,16.8C8.5,16.8,8.5,16.8,8.4,16.8c0.1-0.1,0.1-0.1,0-0.1c0,0-0.1-0.1-0.2,0l-0.1,0.1H8
							c0,0-0.1,0-0.1,0.1H7.8H7.7c0,0,0,0.1,0.1,0.1s0.1,0,0.2,0l0.1-0.1C8.3,16.8,8.3,16.8,8.4,16.8z"/>
						<path class="st2" d="M7.6,15.8C7.7,15.8,7.7,15.8,7.6,15.8c0.1,0,0.2,0,0.2-0.1v-0.1c0-0.2-0.1-0.4-0.2-0.5c0,0-0.1-0.1-0.1,0
							c0,0-0.1,0-0.1,0.1s0,0.2,0,0.4C7.5,15.6,7.6,15.7,7.6,15.8z"/>
						<path class="st2" d="M7.6,14.8c0-0.1-0.1-0.1-0.2-0.1c-0.1,0-0.2,0.2-0.1,0.3c0,0.1,0.1,0.1,0.2,0C7.6,14.9,7.6,14.9,7.6,14.8
							z"/>
						<path class="st2" d="M6.5,12.6C6.5,12.6,6.6,12.6,6.5,12.6c0.1,0,0.1,0,0.1-0.1l-0.1-0.2h0.2v-0.2l-0.2,0.1L6.4,12l-0.1,0
							l0.1,0.2l-0.2,0.1l0.1,0.2l0.2-0.1L6.5,12.6z"/>
						<path class="st2" d="M7.4,14.5c0-0.1,0-0.3-0.1-0.5c0-0.1-0.1-0.3-0.2-0.4S7,13.4,6.9,13.3c-0.1-0.1-0.1-0.4-0.2-0.5
							c0-0.1,0-0.2,0-0.3v-0.1c0,0-0.1,0.1-0.1,0.2H6.4c-0.1,0,0,0,0.1,0.1s0.2,0.2,0.2,0.3s0.1,0.5,0.1,0.6s0,0.2,0.1,0.4
							s0.2,0.4,0.3,0.5C7.3,14.6,7.4,14.6,7.4,14.5z"/>
						<path class="st2" d="M10,13.3c0-0.1,0-0.1,0-0.2l0,0c-0.1,0-0.2,0-0.3-0.2c-0.3,0.1-0.5-0.1-0.5-0.3c-0.2,0-0.4-0.1-0.5-0.3
							c-0.1,0-0.2-0.1-0.3-0.3c-0.3,0-0.4-0.2-0.2-0.5C8,11.4,7.9,11.2,8.1,11c-0.3-0.1-0.3-0.3,0-0.4c-0.2-0.2-0.1-0.4,0.3-0.4
							C8.3,9.9,8.6,9.7,8.9,9.9V9.8C8.6,9.5,8.4,9,8.3,8.6l0,0c0,0,0,0-0.1,0C8.1,8.8,8,9,8.1,9.2c0,0.2,0.1,0.4,0.2,0.6
							c0,0.1,0.1,0.1,0.1,0.2C8.2,9.8,8,9.5,7.9,9.3c0,0,0,0,0-0.1c0,0,0,0-0.1,0L7.7,9.3c0,0.2,0,0.4,0.1,0.5
							C7.9,10,8,10.1,8.1,10.2l0,0C7.9,10,7.8,9.9,7.6,9.6l0,0l0,0l0,0c0,0.1,0,0.2,0,0.4c0.1,0.1,0.1,0.2,0.2,0.3
							c0,0.1,0.1,0.1,0.1,0.2c-0.2-0.1-0.3-0.2-0.4-0.4c0,0,0-0.1-0.1,0c0,0,0,0,0,0.1s0,0.2,0.1,0.4c0.1,0.1,0.2,0.2,0.2,0.3
							L7.8,11c-0.1,0-0.3-0.1-0.4-0.2c0,0,0-0.1-0.1-0.1c0,0,0,0,0,0.1c0,0.2,0.1,0.4,0.3,0.6c0.1,0,0.1,0.1,0.2,0.1
							c-0.1,0-0.2,0-0.3-0.1c0,0-0.1,0-0.1-0.1H7.3v0.1c0,0.2,0.2,0.3,0.3,0.4c0.1,0,0.1,0,0.2,0.1c-0.1,0-0.1,0.1-0.2,0
							c-0.1,0-0.1,0-0.2,0c0,0-0.1,0.1,0,0.1l0.1,0.1c0.1,0.1,0.3,0.1,0.4,0.1c0,0,0,0,0.1,0l0,0c0,0,0,0-0.1,0H7.8
							c0,0-0.1,0-0.1,0.1s0,0.1,0,0.2c0.1,0.1,0.2,0.1,0.3,0.1s0.2,0,0.4,0l-0.1,0.1c-0.1,0-0.1,0-0.2,0S8,12.7,8,12.8
							s0.1,0.1,0.1,0.1C8.2,13,8.4,13,8.6,13c0.1,0,0.1,0,0.2,0c-0.1,0-0.1,0-0.2,0.1c0,0-0.1,0-0.1,0.1v0.1c0,0,0.1,0,0.1,0.1
							c0.1,0,0.2,0,0.3-0.1c0,0,0,0,0.1,0c0,0,0,0,0,0.1l0,0H8.9H8.8l-0.1,0.1c0,0,0,0.1,0.1,0.1h0.1c0.2,0,0.4,0,0.6-0.1
							c0,0.1,0,0.1-0.1,0.1c0,0-0.1,0-0.1,0.1l-0.1,0.1v0.1h0.1c0.2,0,0.4,0,0.6-0.2l0,0C10,13.4,10,13.3,10,13.3z"/>
						<path class="st2" d="M11,10.6c-0.1-0.1-0.1-0.3-0.1-0.3s0,0.1-0.1,0.2C10.8,10.5,10.9,10.6,11,10.6z"/>
						<path class="st2" d="M11.3,10.1c0,0.2,0,0.5-0.1,0.6c0.2,0,0.4,0,0.7-0.2l-0.2-0.3C11.5,10.2,11.3,10.1,11.3,10.1
							c0.1,0.1,0.3,0.3,0.3,0.3C11.4,10.3,11.3,10.1,11.3,10.1z"/>
						<path class="st2" d="M9.9,8.3c0.1-0.1,0.3,0,0.4,0.1s0.4,0.1,0.5,0.1s0.2-0.2,0.3-0.3c0-0.1,0-0.1,0-0.1s-0.3,0.2-0.4,0.1
							c0.1,0,0.1,0.1,0.1,0.1C10.5,8,10,7.9,9.9,8.3C9.7,8.4,9.9,8.3,9.9,8.3z"/>
						<path class="st2" d="M9.9,8.5C9.9,8.5,10,8.5,9.9,8.5c0.1,0.1,0.1,0,0.1,0C10.1,8.4,10,8.4,9.9,8.5C10,8.4,9.9,8.4,9.9,8.5z"
							/>
						<polygon class="st2" points="11,7.7 10.9,7.8 11.1,7.9 11.2,7.8 						"/>
						<path class="st2" d="M11.5,7.8C11.6,7.8,11.6,7.8,11.5,7.8c0.1-0.1,0-0.2,0-0.2C11.5,7.6,11.4,7.7,11.5,7.8
							C11.4,7.8,11.5,7.8,11.5,7.8z"/>
						<path class="st2" d="M11.2,8c0.1,0,0.1-0.1,0.8-0.1c0.7,0,0.8,0.1,0.8,0.1c0.1,0,0.2,0,0-0.1s0-0.2,0.1-0.2s0.2-0.1-0.2-0.1
							c-0.3,0-0.4,0-0.7,0c-0.3,0-0.4,0-0.7,0c-0.4,0-0.3,0.1-0.2,0.1C11.2,7.7,11.4,7.8,11.2,8C11,8,11.1,8,11.2,8z M12.5,7.6
							c0.1,0,0.1,0.1,0.1,0.1c0,0.1-0.1,0.1-0.1,0.1l-0.1-0.1C12.3,7.7,12.4,7.6,12.5,7.6z M12,7.6l0.2,0.1L12,7.9l-0.2-0.1
							C11.8,7.7,12,7.6,12,7.6z M11.5,7.6c0.1,0,0.1,0.1,0.1,0.1c0,0.1-0.1,0.1-0.1,0.1c-0.1,0-0.1-0.1-0.1-0.1L11.5,7.6z"/>
						<path class="st2" d="M11.4,8.1c0.2,0,0.6,0,0.6,0s0.4,0,0.6-0.1c-0.1,0-0.2,0-0.6,0S11.5,8,11.4,8.1z"/>
						<path class="st2" d="M12,8.2c0.3,0,0.5,0,0.8-0.1h-0.2C12.6,8.1,12.4,8.2,12,8.2c-0.4-0.1-0.6-0.1-0.7-0.2h-0.2
							C11.5,8.3,11.7,8.2,12,8.2z"/>
						<path class="st2" d="M11.3,7.4c-0.1,0.1-0.2,0-0.3,0c0,0.1-0.1,0.1-0.1,0.1C11.1,7.6,11.3,7.6,11.3,7.4z"/>
						<path class="st2" d="M11.5,7.5h0.4c0,0,0.1,0,0.1-0.1c-0.1,0.1-0.2,0.1-0.3,0C11.6,7.5,11.5,7.5,11.5,7.5
							C11.4,7.5,11.5,7.5,11.5,7.5z"/>
						<path class="st2" d="M10.9,7.4L10.9,7.4L10.9,7.4c-0.1,0-0.1-0.1-0.1-0.1s0,0-0.1,0c0,0,0,0,0,0.1l0,0
							C10.8,7.5,10.8,7.5,10.9,7.4C10.9,7.5,10.9,7.5,10.9,7.4C10.9,7.5,10.9,7.4,10.9,7.4z"/>
						<path class="st2" d="M11.2,7.3C11.2,7.3,11.1,7.3,11.2,7.3C11.1,7.3,11.1,7.3,11.2,7.3C11.1,7.3,11.1,7.4,11.2,7.3
							C11.1,7.4,11.1,7.4,11.2,7.3C11.1,7.4,11.2,7.4,11.2,7.3L11.2,7.3L11.2,7.3C11.2,7.4,11.2,7.4,11.2,7.3
							c0.1,0.1,0.1,0.1,0.1,0.1C11.3,7.4,11.3,7.4,11.2,7.3L11.2,7.3L11.2,7.3z"/>
						<path class="st2" d="M11.3,7.4L11.3,7.4L11.3,7.4L11.3,7.4C11.3,7.3,11.3,7.3,11.3,7.4C11.3,7.3,11.3,7.3,11.3,7.4
							C11.3,7.3,11.3,7.4,11.3,7.4z"/>
						<path class="st2" d="M11.4,7.4L11.4,7.4c0.1,0,0.1,0,0.1,0l0,0l0,0C11.5,7.3,11.5,7.3,11.4,7.4C11.5,7.3,11.5,7.3,11.4,7.4
							C11.4,7.3,11.4,7.3,11.4,7.4C11.4,7.3,11.4,7.3,11.4,7.4C11.4,7.3,11.4,7.3,11.4,7.4L11.4,7.4z"/>
						<path class="st2" d="M11.3,7.2L11.3,7.2C11.2,7.1,11.2,7.1,11.3,7.2C11.2,7.1,11.2,7.2,11.3,7.2C11.2,7.2,11.2,7.2,11.3,7.2
							C11.2,7.3,11.3,7.3,11.3,7.2c0,0.1,0,0.1,0.1,0.1C11.3,7.3,11.3,7.3,11.3,7.2L11.3,7.2L11.3,7.2z"/>
						<path class="st2" d="M10.6,7.5L10.6,7.5C10.7,7.5,10.7,7.5,10.6,7.5C10.7,7.5,10.7,7.4,10.6,7.5C10.7,7.4,10.6,7.4,10.6,7.5
							C10.6,7.4,10.6,7.4,10.6,7.5C10.6,7.4,10.6,7.5,10.6,7.5L10.6,7.5z"/>
						<path class="st2" d="M10.7,7.4L10.7,7.4C10.7,7.3,10.7,7.3,10.7,7.4c0-0.1,0-0.1-0.1-0.1l0,0l0,0c0,0,0,0,0,0.1
							C10.6,7.4,10.6,7.5,10.7,7.4C10.6,7.4,10.6,7.4,10.7,7.4L10.7,7.4z"/>
						<path class="st2" d="M11.9,7.3L11.9,7.3L11.9,7.3c-0.1,0-0.1,0-0.1,0h-0.1l0,0h0.1l0,0l0,0C11.9,7.4,11.9,7.4,11.9,7.3
							L11.9,7.3z"/>
						<path class="st2" d="M12,7.3c0.2,0,0-0.1,0-0.2C12,7.2,11.8,7.3,12,7.3z"/>
						<path class="st2" d="M10.6,7c0,0-0.1,0-0.1,0.1s0.2,0.1,0.2,0.2V7.1c0-0.1,0-0.2,0-0.3c0.1-0.1,0.3-0.3,0.4-0.3
							c0,0,0.1-0.1,0.2-0.2c0,0-0.1,0-0.2,0c0,0.1-0.1,0.1-0.2,0.1c0,0-0.1,0.1-0.2,0.1c0,0,0,0,0,0.1s-0.1,0.1-0.1,0.1
							s-0.1,0-0.1,0.1C10.5,6.9,10.6,6.9,10.6,7L10.6,7z"/>
						<path class="st2" d="M10.5,7L10.5,7C10.6,6.9,10.5,6.9,10.5,7C10.5,6.9,10.4,6.9,10.5,7C10.4,7,10.5,7,10.5,7z"/>
						<path class="st2" d="M10.7,6.6L10.7,6.6C10.7,6.5,10.7,6.5,10.7,6.6C10.6,6.6,10.6,6.6,10.7,6.6C10.6,6.7,10.7,6.7,10.7,6.6z"
							/>
						<path class="st2" d="M11.1,6.4L11.1,6.4C11.1,6.3,11,6.3,11.1,6.4C11,6.3,11,6.4,11.1,6.4C11,6.4,11,6.4,11.1,6.4z"/>
						<path class="st2" d="M11.5,6.4C11.6,6.4,11.6,6.3,11.5,6.4C11.6,6.3,11.5,6.3,11.5,6.4C11.5,6.2,11.5,6.3,11.5,6.4
							C11.5,6.3,11.5,6.4,11.5,6.4z"/>
						<circle class="st2" cx="11.2" cy="6.9" r="0.1"/>
						<path class="st2" d="M11,7c0,0.1,0,0.2,0.2,0.3V7.1c0.1,0,0.2,0.1,0.2,0.1l0,0c0-0.1-0.1-0.2,0-0.4c0-0.2,0.2-0.4,0.3-0.4
							c0.1-0.1,0.1-0.2,0.1-0.2c0-0.1-0.2,0-0.2,0c0.3,0.2-0.2,0.3-0.1,0.1c0,0,0,0-0.2,0.1C11.1,6.6,11,6.9,11,7z M11.2,7
							C11.1,7,11,6.9,11,6.9c0-0.1,0.1-0.1,0.1-0.1L11.2,7C11.3,6.9,11.2,7,11.2,7z"/>
						<path class="st2" d="M11.8,6.7c0,0.2-0.1,0.4,0.1,0.6L12,7.1l0.1,0.2c0.2-0.1,0.1-0.3,0.1-0.6c0-0.2,0-0.5,0-0.5H12l-0.2-0.1
							C11.8,6.2,11.8,6.4,11.8,6.7z M12,6.3c0.1,0,0.1,0,0.1,0.1s0,0.1-0.1,0.1s-0.1,0-0.1-0.1S11.9,6.3,12,6.3z M12,6.5
							c0.1,0,0.1,0.1,0.1,0.1s0,0.2-0.1,0.2s-0.1-0.1-0.1-0.1S11.9,6.5,12,6.5z M12,6.8c0.1,0,0.1,0.1,0.1,0.1C12.1,7,12.1,7,12,7
							s-0.1,0-0.1-0.1S11.9,6.8,12,6.8z"/>
						<path class="st2" d="M10.9,14.6c-0.1,0-0.2,0.1-0.3,0.3C10.6,14.8,10.7,14.7,10.9,14.6c-0.2-0.1-0.2-0.1-0.3-0.1
							c0,0-0.1,0-0.1-0.1c0,0-0.1,0.2-0.2,0.2c0.1-0.1,0.1-0.2,0.2-0.2c-0.1-0.1-0.1-0.1-0.2-0.2c-0.1,0.4-0.5,0.6-0.7,0.6
							c0,0,0.2,0.1,0.6,0c0,0-0.2,0.1-0.5,0.1c0.2,0.2,0.6,0.1,0.6,0.1c0.1,0,0.1,0,0,0.1c-0.1,0.3,0.1,0.6,0.1,0.6l0.1-0.4
							l-0.1,0.4c0,0,0.6-0.7,0.7-0.8C11,14.7,11,14.7,10.9,14.6z"/>
						<path class="st2" d="M12.9,15.3c-0.1-0.1-0.2-0.2-0.3-0.3l0,0c-0.3,0.1-0.5,0.3-0.6,0.4c-0.1-0.1-0.3-0.3-0.6-0.4l0,0
							c-0.1,0.1-0.2,0.2-0.3,0.3c-0.1,0.1-0.2,0.2-0.2,0.3s0,0.1,0,0.2c0,0.1,0.1,0.1,0.1,0.1c0.1,0,0.1-0.1,0.1-0.1
							c0-0.1,0.1-0.1,0.1-0.2c0,0.1,0,0.2-0.1,0.3c0,0.1,0,0.1,0,0.2c0,0.1,0.1,0.1,0.1,0.1c0.1,0,0.1-0.1,0.1-0.2
							c0-0.1,0-0.1,0.1-0.2l0,0c0,0,0,0,0,0.1c-0.1,0.1-0.1,0.3-0.1,0.4v0.1c0,0,0.1,0.1,0.1,0c0.1,0,0.1-0.1,0.1-0.1
							c0-0.1,0.1-0.2,0.1-0.3c0,0.1,0,0.2,0,0.3v0.1l0.1,0.1c0,0,0.1,0,0.1-0.1v-0.1c0-0.1,0-0.2,0-0.3c0,0.1,0.1,0.2,0.1,0.3
							c0,0,0,0.1,0.1,0.1h0.1v-0.1c0-0.1,0-0.3-0.1-0.4v-0.1l0,0c0,0.1,0,0.1,0.1,0.2c0,0.1,0.1,0.2,0.1,0.2c0.1,0,0.1-0.1,0.1-0.1
							c0-0.1,0-0.1,0-0.2c0-0.1,0-0.2-0.1-0.3c0,0.1,0.1,0.1,0.1,0.2c0,0.1,0.1,0.1,0.1,0.1c0.1,0,0.1,0,0.1-0.1s0-0.1,0-0.2
							C13,15.4,12.9,15.3,12.9,15.3z M11,15.7c0-0.1,0.1-0.3,0.2-0.3C11.2,15.4,11.1,15.6,11,15.7z M11.5,15.6
							c0,0.1-0.1,0.3-0.1,0.3S11.4,15.6,11.5,15.6C11.4,15.6,11.5,15.6,11.5,15.6z M11.7,15.8c0,0,0,0.1-0.1,0.3
							C11.7,16.1,11.7,15.9,11.7,15.8C11.7,15.7,11.8,15.8,11.7,15.8z M12,16.1c-0.1-0.2,0-0.3,0-0.3S12,15.9,12,16.1z M12.3,15.8
							C12.2,15.8,12.3,15.7,12.3,15.8c0.1,0.1,0.1,0.3,0.1,0.3C12.3,15.9,12.3,15.8,12.3,15.8z M12.5,15.6
							C12.5,15.6,12.6,15.6,12.5,15.6c0.1,0,0.1,0.3,0.1,0.3S12.6,15.7,12.5,15.6z M12.7,15.4c0.1,0.1,0.2,0.2,0.2,0.3
							C12.9,15.6,12.8,15.4,12.7,15.4z"/>
						<path class="st2" d="M10.9,17c0.1-0.1,0.2-0.2,0.3-0.2c-0.1,0-0.1,0-0.1-0.1c0,0,0-0.1,0-0.2c0,0,0-0.1,0-0.2
							c0,0-0.1,0-0.1,0.1h-0.1l0,0l0,0c0,0.1-0.1,0.2-0.1,0.2c-0.1,0.1-0.2,0.1-0.3,0.2c-0.1,0-0.1,0.1-0.2,0.1l0,0V17
							c0.1,0.1,0.3,0.1,0.4,0.1C10.7,17.2,10.8,17.1,10.9,17z M10.8,16.8C10.8,16.7,10.9,16.7,10.8,16.8c0.1,0-0.1,0.2-0.3,0.2
							C10.5,17,10.7,16.9,10.8,16.8z"/>
						<path class="st2" d="M11.7,17.3c0,0,0.1-0.1,0.1-0.2V17v-0.1c0-0.1,0-0.1,0-0.2c-0.1,0.2-0.3,0.4-0.5,0.6
							c-0.1,0.1-0.2,0.1-0.2,0.2C11,17.6,11,17.7,11,17.7v0.1c0,0,0,0,0.1,0s0.2-0.1,0.2-0.1c0.1,0,0.2-0.1,0.3-0.1
							C11.6,17.5,11.6,17.4,11.7,17.3z M11.1,17.6c0.1,0,0.3-0.2,0.3-0.2c0.1-0.1,0.1-0.1,0.1,0C11.5,17.4,11.3,17.5,11.1,17.6z"/>
						<path class="st2" d="M11.4,17h-0.1v-0.1v-0.1v-0.1l-0.1,0.1l-0.1,0.1C11,17,10.9,17,10.8,17.1s-0.2,0.2-0.4,0.3l-0.1,0.1
							l0.1,0.1h0.1C10.9,17.5,11.2,17.3,11.4,17z M11.2,17.1c0,0.1-0.2,0.2-0.4,0.2C10.9,17.3,11.1,17.2,11.2,17.1
							C11.2,17,11.2,17,11.2,17.1z"/>
						<path class="st2" d="M12,17.4L12,17.4c0-0.1-0.1-0.2-0.1-0.2s0,0-0.1,0.1c0,0,0,0.1-0.1,0.1c0,0.1-0.1,0.1-0.2,0.2
							c-0.1,0-0.1,0.1-0.2,0.1c-0.1,0.1-0.1,0.3,0,0.4c0,0,0,0,0.1,0c0,0,0,0,0.1-0.1s0.2-0.1,0.3-0.2C11.8,17.8,11.9,17.6,12,17.4z
							 M11.4,17.9c0-0.2,0.2-0.2,0.3-0.4C11.7,17.8,11.5,17.8,11.4,17.9z"/>
						<path class="st2" d="M7.3,10.7c0-0.1-0.1-0.2-0.1-0.2c-0.2-0.1-0.3-0.3-0.4-0.4c0.1,0.1,0.3,0.3,0.4,0.4
							c0-0.1,0.1-0.1,0.1-0.1C7,10.2,6.6,9.7,6.4,9.3C6.4,9.8,6.9,10.6,7.3,10.7z"/>
						<path class="st2" d="M7.5,11.7c0,0-0.1-0.1,0.1-0.2c-0.2,0-0.4-0.1-0.6-0.2c0.2,0.1,0.5,0.1,0.7,0.2l0,0
							c-0.2-0.1-0.2-0.2-0.2-0.2c-0.4,0-1-0.4-1.1-0.6C6.4,11.3,7.2,11.7,7.5,11.7z"/>
						<path class="st2" d="M7.4,11.2c0-0.1,0-0.1,0-0.2c-0.2-0.1-0.4-0.2-0.6-0.4c0.2,0.1,0.4,0.3,0.6,0.3c0-0.1,0.1-0.1,0.2,0
							l-0.1-0.1c-0.6-0.2-1-0.7-1.1-0.8C6.3,10.6,7,11.2,7.4,11.2z"/>
						<path class="st2" d="M7.4,10.3c0-0.1-0.1-0.2-0.1-0.3C7.2,9.8,7,9.6,7,9.4C7.1,9.6,7.2,9.8,7.4,10c0-0.1,0.1-0.1,0.2,0
							C7.5,9.7,7.2,9.7,6.9,8.4C6.5,8.8,6.9,10,7.4,10.3z"/>
						<path class="st2" d="M7.9,8.8C7.8,8.5,7.8,8.3,7.8,8C7.8,8.3,7.8,8.5,7.9,8.8c0-0.2,0.1-0.3,0.2-0.3C8,8.2,7.8,7.1,7.9,7
							c-0.4,0.4-0.4,1.7,0,2.2C7.9,9,7.9,8.9,7.9,8.8z"/>
						<path class="st2" d="M7.5,9.4C7.4,9.1,7.3,8.9,7.3,8.6C7.3,8.9,7.4,9.1,7.5,9.4c0.1,0,0.1,0,0.1,0.1C7.5,9.2,7.6,9,7.6,9
							C7.4,8.5,7.2,7.7,7.3,7.4C7,7.7,7.1,9,7.4,9.6C7.4,9.5,7.5,9.4,7.5,9.4z"/>
						<path class="st2" d="M9.2,14.2c0.4,0,0.7-0.3,0.8-0.7c0,0-0.1,0.1-0.3,0.2c0,0.1-0.1,0.1-0.1,0.2C9.5,14,9.4,14,9.4,14.1
							c0.1,0,0.2-0.1,0.2-0.2l0.1-0.1c-0.1,0-0.2,0-0.2,0C9.2,14,8.7,14.2,9.2,14.2z"/>
						<path class="st2" d="M7.9,12c0,0-0.2-0.1-0.3-0.1c-0.4,0-1-0.3-1.2-0.4c0.1,0.5,0.7,0.8,1.3,0.7v-0.1C7.5,12.1,7.3,12,7,12
							c0.2,0.1,0.5,0.1,0.7,0.1C7.8,12,7.9,12,7.9,12z"/>
						<path class="st2" d="M9.3,13.7c0,0-0.1-0.1-0.1-0.2c-0.1,0.1-0.3,0.2-0.4,0.3c0.2-0.1,0.3-0.2,0.4-0.4l0,0c0,0-0.1,0-0.2,0
							c0,0-0.3,0.3-0.8,0.4C8.4,14.1,9.1,14.1,9.3,13.7z"/>
						<path class="st2" d="M10.1,13.9L10,14.1L10.1,13.9c0-0.1-0.1-0.2-0.1-0.3c0,0.1-0.1,0.3-0.2,0.4c-0.2,0.2-0.1,0.2,0,0.2
							S10.1,14.1,10.1,13.9C10.1,14,10.1,14,10.1,13.9z"/>
						<path class="st2" d="M8.9,13.4c0,0-0.2-0.1-0.2-0.2c-0.1,0.1-0.3,0.2-0.4,0.2c0.2-0.1,0.3-0.2,0.4-0.3l0,0c0,0-0.1,0-0.2-0.1
							c0,0-0.5,0.4-0.9,0.4C7.6,13.5,8,13.9,8.9,13.4z"/>
						<path class="st2" d="M8.1,12.7C8,12.6,8,12.6,8,12.5c-0.2,0-0.4,0-0.6,0c0.2,0,0.4,0,0.6-0.1l0,0c-0.2,0-0.3-0.1-0.3-0.1
							S7,12.4,6.6,12.2C6.9,12.7,7.7,12.8,8.1,12.7z"/>
						<path class="st2" d="M8.5,13c-0.1-0.1,0-0.2,0.1-0.2c0,0,0,0-0.1,0c-0.1,0.1-0.2,0.1-0.3,0.2c0,0-0.2,0-0.3,0
							c0.1,0,0.2,0,0.3-0.1c0.1,0,0.1-0.1,0.2-0.1c-0.1,0-0.2,0-0.2,0C8,13,7.3,13,7.1,12.9C7.1,13.2,8,13.4,8.5,13z"/>
						<path class="st2" d="M10.1,9C10,9.2,9.7,9.1,9.7,9.1c0.1,0.2,0.3,0.2,0.6,0.1c0.2,0.1,0.2,0.4,0.2,0.4c0.1,0,0.1-0.2,0.1-0.2
							c0.1,0.1,0.1,0.5,0.1,0.6c0.1,0,0.2-0.1,0.2-0.1c0,0.2,0.1,0.7,0.3,0.7c0.1-0.3,0.1-0.6,0.1-0.8c0.3,0.3,0.6,0.3,0.7,0.1
							c-0.3-0.1-0.5-0.5-0.5-0.5c0.2,0,0.2-0.1,0.2-0.1c-0.2,0-0.5-0.3-0.5-0.4c0.1,0,0.1-0.1,0.1-0.1c-0.1,0-0.3-0.3-0.3-0.3
							c-0.3,0.1-0.7-0.1-0.7-0.1c0,0.2-0.3,0.2-0.3,0C9.7,8.1,9.2,8.3,9.4,8.7C9.5,8.4,9.7,8.6,10.1,9z M11.3,9.6
							c0,0.1,0.2,0.2,0.3,0.2C11.3,9.8,11.3,9.7,11.3,9.6C11.2,9.6,11.3,9.6,11.3,9.6z M11,9.9C11,9.8,11,9.8,11,9.9
							c0.1,0,0.1,0.1,0.1,0.4C11,10.2,11,10,11,9.9z M10.5,9c0,0,0.2,0.2,0.3,0.2c0.1,0-0.1-0.3-0.2-0.4c0.3,0.2,0.3,0.6,0.3,0.6
							L10.5,9L10.5,9z"/>
						<path class="st2" d="M16.1,8.7c0.1-0.2,0.1-0.5,0.1-0.7C16.2,8.3,16.2,8.5,16.1,8.7c0,0.2,0,0.3,0,0.4c0.4-0.5,0.4-1.8,0-2.2
							c0,0.1-0.1,1.2-0.2,1.5C16,8.5,16,8.6,16.1,8.7z"/>
						<path class="st2" d="M16.6,15.3h0.1c0,0,0-0.1-0.1-0.2C16.7,15.3,16.6,15.3,16.6,15.3z"/>
						<path class="st2" d="M16.3,11c0.2-0.1,0.3-0.3,0.3-0.6v-0.1c0,0,0,0-0.1,0.1s-0.2,0.2-0.4,0.2l0.1-0.1
							c0.1-0.1,0.2-0.2,0.2-0.3c0.1-0.1,0.1-0.2,0.1-0.4V9.7h-0.1c-0.1,0.2-0.3,0.3-0.4,0.4c0-0.1,0.1-0.1,0.1-0.2
							c0.1-0.1,0.2-0.2,0.2-0.3c0.1-0.1,0.1-0.2,0-0.4l0,0l0,0l0,0c-0.1,0.2-0.3,0.4-0.5,0.6l0,0c0.1-0.1,0.2-0.3,0.3-0.4
							c0.1-0.2,0.1-0.3,0.1-0.5c0,0,0-0.1-0.1-0.1c0,0,0,0-0.1,0c0,0,0,0,0,0.1c-0.1,0.3-0.3,0.5-0.5,0.7c0-0.1,0.1-0.1,0.1-0.2
							C15.9,9.5,16,9.3,16,9.1s0-0.4-0.1-0.6c0,0,0,0-0.1,0l0,0c-0.1,0.5-0.3,0.9-0.6,1.2v0.1c0.3-0.3,0.5,0,0.5,0.3
							c0.3-0.1,0.5,0.2,0.3,0.4c0.3,0.1,0.2,0.4,0,0.4c0.2,0.2,0.1,0.3-0.1,0.5c0.1,0.3,0,0.4-0.2,0.5c0,0.2-0.2,0.3-0.3,0.3
							c0,0.2-0.2,0.3-0.5,0.3c0,0.2-0.2,0.4-0.5,0.3C14.3,13,14.2,13,14.1,13l0,0c0,0.1,0,0.1,0,0.2v0.1l0,0
							c0.1,0.2,0.4,0.2,0.6,0.2h0.1v-0.1c0-0.1,0-0.1-0.1-0.1c0,0-0.1,0-0.1-0.1l-0.1-0.1c0.2,0.1,0.4,0.2,0.6,0.1h0.1
							c0,0,0.1,0,0.1-0.1c0,0,0-0.1-0.1-0.1h-0.1H15l0,0c0,0,0,0,0-0.1c0,0,0,0,0.1,0c0.1,0.1,0.2,0.1,0.3,0.1c0,0,0.1,0,0.1-0.1
							v-0.1l-0.1-0.1c-0.1,0-0.1,0-0.2-0.1c0,0,0.1,0,0.2,0c0.2,0,0.3,0,0.5-0.1c0.1,0,0.1-0.1,0.1-0.1c0-0.1-0.1-0.1-0.1-0.1
							c-0.1,0-0.1,0-0.2,0c0,0-0.1,0-0.1-0.1c0.1,0,0.2,0,0.4,0c0.1,0,0.2,0,0.3-0.1c0,0,0.1-0.1,0-0.2l-0.1-0.1h-0.1c0,0,0,0-0.1,0
							l0,0c0,0,0,0,0.1,0c0.1,0,0.3-0.1,0.4-0.1l0.1-0.1v-0.1c-0.1,0-0.1,0-0.2,0s-0.1,0-0.2,0c0.1,0,0.1,0,0.2-0.1
							c0.2-0.1,0.3-0.2,0.3-0.4v-0.1h-0.1c0,0-0.1,0-0.1,0.1c-0.1,0.1-0.2,0.1-0.3,0.1C16.2,11.1,16.3,11.1,16.3,11z"/>
						<path class="st2" d="M16.4,9c0,0,0.1,0.2,0,0.5l0.1-0.1c0.1-0.3,0.2-0.5,0.2-0.8c0,0.3-0.1,0.5-0.2,0.8c0,0,0.1,0.1,0.1,0.2
							C16.9,9,17,7.7,16.7,7.4C16.7,7.7,16.6,8.5,16.4,9z"/>
						<path class="st2" d="M17.7,10.8c-0.2,0.2-0.8,0.5-1.1,0.6c0,0-0.1,0.1-0.2,0.2l0,0c0.2,0,0.5-0.1,0.7-0.2
							c-0.2,0.1-0.4,0.2-0.6,0.2c0.1,0.1,0.1,0.2,0.1,0.2C16.8,11.7,17.6,11.3,17.7,10.8z"/>
						<path class="st2" d="M16.5,10.9L16.4,11c0.1-0.1,0.2,0,0.2,0c0.2-0.1,0.4-0.2,0.6-0.3c-0.2,0.2-0.4,0.3-0.6,0.4
							c0,0,0,0.1,0,0.2c0.4-0.1,1.1-0.6,1-1.1C17.5,10.2,17.1,10.7,16.5,10.9z"/>
						<path class="st2" d="M16.6,10.4c0,0,0.1,0,0.1,0.1c0.2-0.1,0.3-0.2,0.4-0.4c-0.1,0.2-0.3,0.3-0.4,0.4c0,0.1,0,0.1-0.1,0.2
							c0.4-0.2,1-0.9,0.9-1.5C17.4,9.6,17,10.2,16.6,10.4z"/>
						<path class="st2" d="M16.9,15.4C17,15.4,17,15.3,16.9,15.4c0.1-0.1,0-0.1,0-0.1S16.9,15.3,16.9,15.4
							C16.9,15.3,16.9,15.4,16.9,15.4z"/>
						<path class="st2" d="M16.7,9.9C16.8,9.7,17,9.5,17,9.3C17,9.6,16.8,9.8,16.7,9.9c0,0.1,0,0.2-0.1,0.3c0.5-0.3,0.9-1.4,0.6-1.9
							c-0.3,1.4-0.6,1.3-0.7,1.6C16.6,9.8,16.7,9.8,16.7,9.9z"/>
						<path class="st2" d="M16.1,15C16.1,15,16,15.1,16.1,15c-0.1,0.1,0,0.1,0,0.1S16.2,15.1,16.1,15C16.2,15.1,16.1,15,16.1,15z"/>
						<path class="st2" d="M13.9,14.8c0.4,0.1,0.6,0,0.6,0c-0.2,0-0.7-0.3-0.7-0.6c-0.1,0.1-0.1,0.1-0.2,0.2c0,0.1,0.1,0.1,0.2,0.2
							c-0.1,0-0.2-0.2-0.2-0.2l-0.1,0.1c-0.1,0-0.1,0.1-0.2,0.1c0.1,0.1,0.2,0.2,0.2,0.3c-0.1-0.2-0.2-0.2-0.3-0.3
							c-0.1,0-0.2,0.1-0.2,0.1c0.2,0.1,0.7,0.8,0.7,0.8l-0.1-0.4l0.1,0.4c0,0,0.2-0.3,0.1-0.6c0-0.1,0-0.1,0-0.1s0.4,0.1,0.6-0.1
							C14.1,14.9,13.9,14.8,13.9,14.8z"/>
						<path class="st2" d="M13.2,17.1C13.1,17,13,17,12.9,16.9l-0.1-0.1l-0.1-0.1v0.1v0.1V17c0,0-0.1,0.1-0.1,0
							c0.2,0.3,0.5,0.4,0.8,0.5h0.1c0,0,0.1,0,0.1-0.1s0-0.1-0.1-0.1C13.4,17.3,13.3,17.2,13.2,17.1z M12.8,17.1
							C12.8,17,12.8,17,12.8,17.1c0.1,0.1,0.3,0.2,0.4,0.2C13,17.3,12.8,17.1,12.8,17.1z"/>
						<path class="st2" d="M14.8,15.2c0,0-0.1,0-0.2,0.1c0,0.1,0.3,0.1,0.4,0.1C14.9,15.4,14.8,15.2,14.8,15.2z"/>
						<path class="st2" d="M14.8,15.1c-0.1,0-0.3-0.1-0.3-0.1c-0.1,0.2-0.5,0.2-0.5,0.2s0.1,0.2,0.2,0.3c0,0-0.2-0.3-0.3-0.3
							c-0.1,0,0,0.4,0,0.4s0.5,0.3,0.6,0.4c0.1-0.2-0.1-0.6-0.1-0.7C14.5,15.3,14.8,15.2,14.8,15.1z"/>
						<path class="st2" d="M17.1,15.4c0-0.1,0-0.1,0-0.2v-0.1L16.6,15l0.1-0.5c0,0,0,0-0.1,0s-0.2-0.1-0.3-0.1l0,0l0,0.6l-0.6-0.1
							c0,0.1-0.1,0.2-0.1,0.2l0,0c0,0.1,0,0.1,0.1,0.1s0.8,0.2,0.8,0.2s0-0.1,0.1-0.1s0.1-0.1,0.1-0.2c0.1,0,0.1,0,0.1,0.2
							C16.8,15.5,17,15.5,17.1,15.4z M16.9,15.2c0.1,0,0.1,0,0.1,0.1s0,0.1-0.1,0.1s-0.1,0-0.1-0.1S16.9,15.2,16.9,15.2z M15.8,15.2
							c-0.1,0-0.1,0-0.1-0.1s0-0.1,0.1-0.1s0.1,0,0.1,0.1S15.9,15.2,15.8,15.2z M16.1,15.2c-0.1,0-0.1,0-0.1-0.1s0-0.1,0.1-0.1
							c0.1,0,0.1,0,0.1,0.1S16.2,15.2,16.1,15.2z M16.4,15.3c-0.1,0-0.1,0-0.1-0.1s0-0.1,0.1-0.1s0.1,0,0.1,0.1S16.5,15.3,16.4,15.3
							z M16.5,15c-0.1,0-0.1,0-0.1-0.1s0-0.1,0.1-0.1s0.1,0,0.1,0.1S16.5,15,16.5,15z M16.5,14.8c-0.1,0-0.1,0-0.1-0.1
							s0-0.1,0.1-0.1s0.1,0,0.1,0.1C16.6,14.7,16.6,14.8,16.5,14.8z"/>
						<path class="st2" d="M13.9,17c-0.1,0-0.1-0.1-0.2-0.1c-0.1-0.1-0.2-0.1-0.3-0.2c-0.1-0.1-0.1-0.1-0.1-0.2l0,0l0,0h-0.1
							l-0.1-0.1c0,0.1,0,0.1,0,0.2c0,0,0,0.1,0,0.2L13,16.9c0,0,0,0.1,0.1,0.1c0.1,0.1,0.2,0.1,0.3,0.2c0.1,0,0.3,0,0.4-0.1
							C13.9,17.1,13.9,17.1,13.9,17L13.9,17z M13.2,16.8C13.1,16.7,13.2,16.7,13.2,16.8c0.1,0.1,0.3,0.2,0.4,0.2
							C13.4,17,13.2,16.8,13.2,16.8z"/>
						<path class="st2" d="M16.5,14.6L16.5,14.6c-0.1,0.1,0,0.1,0,0.1C16.6,14.7,16.6,14.7,16.5,14.6C16.6,14.6,16.6,14.6,16.5,14.6
							z"/>
						<circle class="st2" cx="16.4" cy="15.2" r="0.1"/>
						<path class="st2" d="M15.5,15.2C15.5,15.2,15.6,15.2,15.5,15.2c0.1,0,0.1-0.1,0.1-0.2C15.6,15,15.5,15,15.5,15.2z"/>
						<path class="st2" d="M16.1,12c0.1,0,0.1,0,0.1,0c0.2,0,0.5,0,0.7-0.1C16.7,12,16.5,12,16.2,12c0,0.1,0,0.1,0,0.1
							c0.6,0,1.2-0.2,1.3-0.7c-0.2,0.2-0.8,0.4-1.2,0.4C16.3,11.9,16.1,12,16.1,12z"/>
						<path class="st2" d="M13.2,16.5c0.1-0.2-0.1-0.6-0.3-0.6V16c0,0,0.1,0.1,0.2,0.2c0,0-0.1-0.1-0.2-0.1c0,0.1-0.1,0.2-0.2,0.2
							l0,0l0.1,0.3l-0.2-0.3c0,0,0,0-0.1,0c0,0.1,0,0.2-0.1,0.3l0.1,0.2l-0.1-0.2c-0.1,0-0.2,0-0.2-0.2c0,0.2-0.1,0.2-0.2,0.3
							c0,0.1,0,0.3,0,0.3v-0.3c-0.1,0-0.2-0.1-0.2-0.3c0,0.1-0.1,0.2-0.2,0.2l-0.1,0.2l0.1-0.2c-0.1,0-0.1-0.1-0.1-0.3
							c0,0,0,0-0.1,0l-0.2,0.3l0.1-0.3l0,0c-0.1,0-0.2,0-0.2-0.2c-0.1,0-0.2,0.1-0.2,0.1c0-0.1,0.1-0.1,0.2-0.2v-0.1
							c-0.3,0-0.5,0.3-0.3,0.6c0.2-0.1,0.2-0.2,0.2-0.2c0,0.4,0,0.6,0.3,0.3c0,0.4,0,0.7,0.3,0c0,0.5,0.2,0.6,0.3,0.6
							c0.1,0,0.3-0.2,0.3-0.6c0.4,0.7,0.4,0.4,0.3,0c0.3,0.3,0.3,0.1,0.3-0.3C12.9,16.3,13,16.4,13.2,16.5z"/>
						<path class="st2" d="M17,15.7c0,0.1-0.2,0.3-0.3,0.3c-0.2,0-0.2-0.2-0.1-0.3s0.2-0.2,0.1-0.3s-0.2-0.1-0.2,0s-0.1,0.3-0.3,0.4
							c-0.2,0.1-0.3,0.1-0.4-0.1c-0.1-0.1-0.1-0.3-0.2-0.5s-0.2,0-0.2,0.1s0.3,0.4,0.2,0.5c0,0.1-0.2,0.1-0.2,0
							c-0.1-0.1-0.5-0.4-0.5-0.4s-0.2,0-0.4-0.1c0.1,0.2,0.1,0.4,0.1,0.4s0.7,0.4,0.9,0.5c0.1,0.1,0.2,0.2,0.6,0.1
							c0.4-0.1,0.8-0.2,1-0.3c0.2-0.1,0.3-0.2,0.2-0.3C17.1,15.5,17,15.6,17,15.7z"/>
						<path class="st2" d="M15.8,15L15.8,15c-0.1,0.1,0,0.1,0,0.1C15.9,15.1,15.9,15.1,15.8,15C15.9,15,15.9,15,15.8,15z"/>
						<path class="st2" d="M13.1,17.5c-0.1-0.1-0.2-0.1-0.2-0.2c-0.2-0.1-0.4-0.3-0.5-0.6c0,0.1,0,0.2,0,0.2V17v0.1
							c0,0,0.1,0.1,0.1,0.2c0.1,0.1,0.1,0.2,0.2,0.2c0.1,0.1,0.2,0.1,0.3,0.1c0.1,0,0.2,0.1,0.2,0.1s0,0,0.1,0c0,0,0,0,0-0.1
							C13.2,17.6,13.1,17.6,13.1,17.5z M12.5,17.4C12.5,17.3,12.5,17.3,12.5,17.4c0.1,0.1,0.3,0.2,0.4,0.2
							C12.7,17.5,12.5,17.4,12.5,17.4z"/>
						<path class="st2" d="M16.5,14.8C16.4,14.8,16.4,14.9,16.5,14.8c-0.1,0.1,0,0.1,0,0.1S16.5,15,16.5,14.8
							C16.5,14.9,16.5,14.8,16.5,14.8z"/>
						<path class="st2" d="M14.1,8.5C14.1,8.4,14,8.4,14.1,8.5c-0.1-0.1-0.1,0-0.1,0C13.9,8.5,14,8.5,14.1,8.5
							C14,8.5,14.1,8.5,14.1,8.5z"/>
						<path class="st2" d="M14.1,8.4c0,0.2-0.3,0.2-0.3,0c0,0-0.4,0.2-0.7,0.1c0,0-0.2,0.2-0.3,0.3c0,0,0,0,0.1,0.1
							c0,0.1-0.3,0.3-0.5,0.4c0,0,0,0.1,0.2,0.1c0,0-0.2,0.4-0.5,0.5c0,0.2,0.4,0.2,0.7-0.1c0,0.2-0.1,0.5,0.1,0.8
							c0.1,0,0.3-0.4,0.3-0.7c0,0,0.1,0.1,0.2,0.1c0-0.1-0.1-0.5,0.1-0.6c0,0,0,0.2,0.1,0.2c0-0.1,0-0.3,0.2-0.4
							c0.2,0.1,0.4,0.1,0.6-0.1C14.3,9.1,14,9.2,14,9c0.4-0.3,0.6-0.6,0.9-0.3C14.9,8.3,14.4,8.1,14.1,8.4z M12.7,9.6
							c0,0-0.1,0.2-0.3,0.2C12.5,9.8,12.7,9.7,12.7,9.6C12.7,9.6,12.8,9.6,12.7,9.6z M12.9,10.3c0-0.3,0-0.4,0-0.5s0.1-0.1,0.1,0
							C13,10,13,10.2,12.9,10.3z M13.5,9.1l-0.4,0.3c0,0,0-0.4,0.3-0.6c-0.1,0.1-0.2,0.3-0.2,0.4C13.3,9.2,13.5,9,13.5,9.1L13.5,9.1
							z"/>
						<path class="st2" d="M13.3,7.5L13.3,7.5C13.3,7.5,13.4,7.5,13.3,7.5C13.4,7.5,13.4,7.5,13.3,7.5C13.4,7.5,13.4,7.4,13.3,7.5
							C13.4,7.4,13.4,7.4,13.3,7.5C13.4,7.4,13.3,7.4,13.3,7.5C13.3,7.4,13.3,7.5,13.3,7.5z"/>
						<path class="st2" d="M13.4,8.3c-0.1,0-0.4-0.1-0.4-0.1s0,0,0,0.1s0.2,0.2,0.3,0.3c0.1,0,0.3,0,0.5-0.1
							c0.1-0.1,0.3-0.1,0.4-0.1c0,0,0.2,0,0.1-0.1C14.2,8,13.7,8.1,13.4,8.3C13.3,8.4,13.3,8.3,13.4,8.3z"/>
						<path class="st2" d="M16.7,14.5v-0.3l0.1,0.1l0.1-0.2h-0.2l0.1-0.2l-0.2-0.1V14l-0.1-0.1l-0.1,0.2h0.2l-0.1,0.2
							C16.5,14.5,16.6,14.5,16.7,14.5z"/>
						<path class="st2" d="M15.5,12.8C15.4,12.8,15.4,12.8,15.5,12.8c0,0,0.1,0.1,0,0.2c0.5,0.4,1.4,0.3,1.4-0.2
							c-0.2,0.1-0.9,0.1-1.1-0.1C15.7,12.8,15.6,12.8,15.5,12.8c0.1,0,0.2,0.1,0.3,0.1C15.9,13,16,13,16.1,13c-0.1,0-0.2,0-0.3-0.1
							C15.6,12.9,15.5,12.8,15.5,12.8z"/>
						<path class="st2" d="M16.2,12.3c0,0-0.1,0.1-0.3,0.1l0,0c0.2,0,0.4,0.1,0.6,0.1c-0.2,0-0.4,0-0.6,0c0,0,0,0.1-0.1,0.2
							c0.4,0.2,1.2,0,1.4-0.5C16.9,12.4,16.2,12.3,16.2,12.3z"/>
						<path class="st2" d="M17.2,15.5c0-0.1,0-0.1,0-0.2C17.1,15.4,17.1,15.5,17.2,15.5C17.1,15.5,17.2,15.5,17.2,15.5z"/>
						<path class="st2" d="M12.4,6.3C12.4,6.3,12.4,6.4,12.4,6.3c0.1,0.1,0.1,0,0.1,0S12.5,6.2,12.4,6.3C12.4,6.2,12.4,6.3,12.4,6.3
							z"/>
						<path class="st2" d="M13.4,7.4C13.5,7.4,13.5,7.3,13.4,7.4c0.1-0.1,0-0.1,0-0.2l0,0l0,0l0,0l0,0l0,0
							C13.3,7.4,13.3,7.4,13.4,7.4L13.4,7.4z"/>
						<path class="st2" d="M15.1,13.4c0.8,0.5,1.3,0.1,1.2,0c-0.4,0-0.9-0.4-0.9-0.4c-0.1,0.1-0.2,0.1-0.2,0.1l0,0
							c0.1,0.1,0.3,0.2,0.4,0.3c-0.1-0.1-0.3-0.1-0.4-0.2C15.3,13.3,15.1,13.4,15.1,13.4z"/>
						<path class="st2" d="M12.3,6.4c0.1,0.1,0.3,0.3,0.3,0.4c0,0.2-0.1,0.3,0,0.4c0,0.1,0,0,0,0s0.1-0.1,0.2-0.1v0.2
							C13,7.2,13,7.1,13,7s-0.1-0.4-0.3-0.6c-0.2-0.2-0.2-0.1-0.2-0.1c0,0.2-0.4,0.1-0.1-0.1c-0.1-0.1-0.2-0.1-0.2,0
							C12.2,6.2,12.2,6.3,12.3,6.4z M12.9,6.9C12.9,7,12.8,7,12.8,7c-0.1,0-0.1-0.1-0.1-0.1c0-0.1,0.1-0.1,0.1-0.1
							C12.9,6.8,12.9,6.8,12.9,6.9z"/>
						<path class="st2" d="M12.9,6.5c0.1,0,0.3,0.2,0.4,0.3c0.1,0.1,0,0.2,0,0.3c0,0.1,0,0.2,0,0.2c0-0.1,0.2-0.1,0.2-0.2
							s0-0.1-0.1-0.1c0,0,0,0,0-0.1c0,0,0.1-0.1,0-0.2c0-0.1-0.1-0.1-0.1-0.1s-0.1,0-0.1-0.1s0-0.1,0-0.1L13,6.3
							c-0.1,0.1-0.2,0-0.2-0.1c-0.1-0.1-0.2,0-0.2,0C12.7,6.4,12.9,6.5,12.9,6.5z"/>
						<circle class="st2" cx="12.8" cy="6.9" r="0.1"/>
						<path class="st2" d="M12.9,6.4C13,6.4,13,6.4,12.9,6.4C13,6.4,13,6.3,12.9,6.4C12.9,6.3,12.9,6.3,12.9,6.4L12.9,6.4z"/>
						<path class="st2" d="M13.5,7C13.5,7,13.6,7,13.5,7C13.6,6.9,13.5,6.9,13.5,7C13.5,6.9,13.4,6.9,13.5,7C13.4,7,13.5,7,13.5,7z"
							/>
						<path class="st2" d="M13.3,6.6C13.3,6.7,13.4,6.7,13.3,6.6C13.4,6.6,13.4,6.6,13.3,6.6C13.3,6.5,13.3,6.5,13.3,6.6L13.3,6.6z"
							/>
						<path class="st2" d="M15.8,13.9c-0.5-0.1-0.8-0.4-0.8-0.4c-0.1,0-0.2,0-0.2,0l0,0c0.1,0.1,0.3,0.3,0.4,0.4
							c-0.2-0.1-0.3-0.2-0.4-0.3c0,0.1-0.1,0.2-0.1,0.2C14.9,14.1,15.6,14.1,15.8,13.9z"/>
						<path class="st2" d="M13.1,7.5C13.2,7.5,13.2,7.5,13.1,7.5c0.1,0,0.1,0,0.1,0s0,0,0-0.1C13.2,7.4,13.2,7.4,13.1,7.5
							C13.2,7.4,13.2,7.4,13.1,7.5C13.1,7.4,13.1,7.4,13.1,7.5C13.1,7.4,13.1,7.4,13.1,7.5C13.1,7.4,13.1,7.5,13.1,7.5L13.1,7.5z"/>
						<path class="st2" d="M13,7.4c-0.1,0.1-0.2,0.1-0.3,0c0.1,0.2,0.2,0.2,0.4,0.1C13.1,7.5,13,7.5,13,7.4z"/>
						<path class="st2" d="M12.8,7.1L12.8,7.1C12.7,7.2,12.7,7.2,12.8,7.1C12.7,7.2,12.7,7.2,12.8,7.1c-0.1,0.1-0.1,0.1-0.1,0.1l0,0
							C12.7,7.2,12.7,7.2,12.8,7.1L12.8,7.1C12.8,7.2,12.8,7.2,12.8,7.1C12.8,7.2,12.8,7.1,12.8,7.1z"/>
						<path class="st2" d="M12.9,7.3L12.9,7.3C12.8,7.3,12.8,7.3,12.9,7.3C12.8,7.3,12.8,7.3,12.9,7.3c-0.1,0-0.1,0-0.1,0l0,0l0,0
							l0,0C12.8,7.4,12.8,7.4,12.9,7.3C12.8,7.4,12.9,7.4,12.9,7.3C12.9,7.4,12.9,7.4,12.9,7.3C12.9,7.4,12.9,7.4,12.9,7.3
							C12.9,7.4,12.9,7.3,12.9,7.3z"/>
						<path class="st2" d="M12.1,7.3L12.1,7.3L12.1,7.3L12.1,7.3C12,7.4,12,7.4,12,7.4l0,0l0,0L12.1,7.3L12.1,7.3
							C12.2,7.4,12.2,7.3,12.1,7.3C12.2,7.3,12.2,7.3,12.1,7.3z"/>
						<polygon class="st2" points="12.2,7.7 12,7.6 11.8,7.7 12,7.8 						"/>
						<path class="st2" d="M12.5,17.6c-0.1-0.1-0.1-0.1-0.2-0.2c0,0,0-0.1-0.1-0.1c0,0,0-0.1-0.1-0.1L12,17.3v0.1
							c0,0.2,0.1,0.4,0.3,0.5c0.1,0.1,0.2,0.1,0.3,0.2c0,0,0,0.1,0.1,0.1c0,0,0,0,0.1,0c0.1-0.1,0.1-0.3,0-0.4
							C12.6,17.7,12.5,17.6,12.5,17.6z M12.2,17.6c0.1,0.1,0.3,0.2,0.3,0.4C12.5,17.8,12.3,17.8,12.2,17.6z"/>
						<path class="st2" d="M12.5,7.4C12.6,7.4,12.6,7.4,12.5,7.4C12.6,7.4,12.6,7.4,12.5,7.4c0.1-0.1,0.1-0.1,0.1-0.1l0,0l0,0
							C12.5,7.3,12.5,7.3,12.5,7.4C12.5,7.3,12.5,7.3,12.5,7.4C12.5,7.3,12.5,7.3,12.5,7.4L12.5,7.4L12.5,7.4z"/>
						<path class="st2" d="M12.3,7.4c-0.1,0.1-0.2,0.2-0.3,0c0,0.1,0.1,0.1,0.1,0.1h0.4c0,0,0.1,0,0.1-0.1
							C12.5,7.5,12.4,7.5,12.3,7.4z"/>
						<path class="st2" d="M12.8,10.6c-0.1-0.1-0.1-0.4-0.1-0.6c0,0-0.1,0.3-0.3,0.3c0,0,0.2-0.1,0.2-0.3c0,0-0.1,0.1-0.4,0.1
							L12,10.4C12.4,10.6,12.6,10.6,12.8,10.6z"/>
						<path class="st2" d="M12.6,7.4L12.6,7.4C12.7,7.4,12.7,7.4,12.6,7.4C12.7,7.4,12.7,7.4,12.6,7.4C12.7,7.4,12.7,7.3,12.6,7.4
							C12.7,7.3,12.7,7.3,12.6,7.4C12.7,7.3,12.7,7.3,12.6,7.4z"/>
						<path class="st2" d="M16.1,10.7c0-0.1-0.1-0.1-0.2-0.1s-0.1,0-0.2,0.1l0.1-0.1l0.1-0.1c0,0,0.1-0.1,0-0.1
							c0-0.1-0.1-0.1-0.1-0.1c-0.1,0-0.1,0-0.2,0s-0.1,0.1-0.2,0.1l0,0l0,0c0,0,0,0,0-0.1c0.1,0,0.1-0.1,0.1-0.2
							c0-0.1,0.1-0.1,0-0.2c0-0.1-0.1-0.1-0.2-0.1s-0.1,0-0.2,0.1l0,0c0,0,0,0-0.1,0l0,0c0-0.1,0-0.2,0-0.3
							c-0.1,0.3-0.3,0.5-0.5,0.7c-0.1,0.1-0.2,0.2-0.2,0.3c-0.1,0.1-0.1,0.3,0,0.4c0.1,0.1,0.3,0.1,0.4,0.3c0.1,0.1,0.1,0.2,0.1,0.3
							s-0.1,0.2-0.3,0.2c-0.1,0-0.2,0-0.3,0c-0.1,0-0.1,0.1-0.2,0.2c0,0-0.1,0-0.2,0.1c0,0.3,0.1,0.6,0.1,1c0.1,0,0.2,0,0.2,0
							c0.1,0,0.1-0.1,0.1-0.2c0,0,0,0,0-0.1v-0.1c0,0,0,0,0.1,0l0,0c0.1,0.1,0.2,0.1,0.3,0.1c0.1,0,0.2-0.2,0.1-0.2v-0.1v-0.1h0.1
							c0.1,0,0.1,0.1,0.2,0.1s0.1,0,0.2-0.1c0-0.1,0-0.1,0-0.2c0,0,0,0-0.1,0H15v-0.1c0,0,0,0,0.1,0s0.1,0.1,0.2,0.1s0.2,0,0.2-0.1
							s0-0.1-0.1-0.2h0.1c0.1,0,0.2,0,0.2,0l0.1-0.1c0-0.1,0-0.1-0.1-0.1c0,0-0.1,0-0.1-0.1c0,0,0,0,0-0.1c0,0,0,0,0.1,0
							s0.1,0,0.2,0c0,0,0.1,0,0.1-0.1v-0.1l-0.1-0.1h-0.1l0,0l0,0l0,0c0.1,0,0.1,0,0.2,0c0.1,0,0.1,0,0.1-0.1
							C16.1,10.8,16.1,10.8,16.1,10.7z"/>
						<path class="st2" d="M14.6,13.7c-0.1,0-0.2,0-0.2,0c0,0.1,0.1,0.1,0.1,0.1c0.1,0.1,0.1,0.1,0.2,0.2c-0.1,0-0.2-0.1-0.2-0.2
							c-0.1-0.1-0.1-0.1-0.1-0.2c-0.2,0-0.3-0.2-0.3-0.2c0.1,0.4,0.3,0.7,0.8,0.7C15.3,14.2,14.8,14,14.6,13.7z"/>
						<path class="st2" d="M14.2,14.1C14.1,14,14,13.7,14,13.7c0,0.1,0,0.2-0.1,0.2l0.1,0.2L13.9,14c0,0,0,0.1-0.1,0.1
							c0,0.2,0.2,0.2,0.3,0.2C14.3,14.3,14.4,14.3,14.2,14.1z"/>
						<polygon class="st2" points="12.8,7.8 12.9,7.9 13.1,7.8 13,7.7 						"/>
						<path class="st2" d="M12.5,7.8C12.5,7.8,12.6,7.8,12.5,7.8c0.1-0.1,0-0.2,0-0.2C12.4,7.6,12.4,7.7,12.5,7.8
							C12.4,7.8,12.4,7.8,12.5,7.8z"/>
						<path class="st2" d="M12,17.7c0,0-0.1,0.2-0.3,0.3c0,0.3,0.1,0.4,0.3,0.5c0.1-0.1,0.3-0.2,0.3-0.5C12.1,17.9,12,17.7,12,17.7z
							 M12,18.2c-0.1-0.1,0-0.3,0-0.3C12,17.9,12.1,18.1,12,18.2z"/>
					</g>
				</g>
				<path class="st8" d="M9.1,9.1c0.2,0,0.2,0,0.3-0.1c0.1,0,0.3-0.1,0.4,0C10,9.1,10,9.1,10.1,9C9.9,8.8,9.5,8.8,9.3,8.9
					C9.1,9,8.9,8.9,8.8,8.7C8.7,8.7,8.7,9.1,9.1,9.1z"/>
				<path class="st8" d="M13.9,9c0,0.1,0.1,0.1,0.2,0s0.3-0.1,0.4,0c0.1,0,0.1,0.1,0.3,0.1c0.4,0,0.4-0.4,0.3-0.4
					c0,0.3-0.3,0.3-0.5,0.2C14.5,8.8,14.1,8.8,13.9,9z"/>
				<path class="st9" d="M13,10.6c0.1-0.1,0.1-0.3,0.1-0.3s0,0.1,0.1,0.2C13.2,10.5,13.1,10.6,13,10.6z"/>
			</g>
			<path class="st10" d="M17.8,11.8l0.1-0.1c0.9-0.1,1.7-0.8,1.7-1.5c-0.4,0.5-1.4,0.8-1.4,0.8c1-0.4,1.5-1.2,1.3-1.7
				c-0.4,0.6-1.2,1.1-1.4,1.1c1.4-0.9,1.4-2,1.3-2.3c-0.3,0.7-0.7,1.2-1.2,1.5c1.1-0.9,1-2.5,0.7-2.7c-0.1,0.5-0.5,1.7-0.8,2
				c0.5-0.9,0.7-2.7,0.1-3.2c0.1,0.8-0.4,2-0.4,2.1c-0.1,0-0.1,0-0.1,0C18.1,7,18,5.5,17.5,5.1c-0.1,1.3-0.3,2.1-0.3,2.1l-0.1-0.1
				C17,7.9,16.5,8.8,16.3,9c0-0.2-0.1-0.3-0.1-0.3c-0.1,0.3-0.6,0.9-0.8,1.2c-0.3,0.3-0.4,0.6-0.2,0.9s0.5,0.4,0.5,0.5
				c0,0.2-0.1,0.4-0.3,0.4c-0.3,0-0.5,0-0.6,0.2C14.6,12,14.5,12,14.5,12c0-0.4,0.1-0.7,0.3-1.1l-0.9-1.1l-0.1,0.1
				c-0.1-0.1-0.2-0.3-0.2-0.5c0.2,0.1,0.2,0,0.2,0c-0.1-0.3-0.1-0.6,0-0.7C14,9,14.1,8.9,14.1,8.9c0-0.2,0.1-0.5,0.2-0.5
				c0.4,0.2,0.9-0.1,1-0.3c0.3,0,0.3,0.1,0.6,0.1c0.3,0,0.6-0.2,0.6-0.4c0-0.3-0.1-0.4-0.2-0.4s0,0.2-0.1,0.3c0,0-0.2,0.2-0.4,0.1
				c-0.3-0.1-0.6-0.1-0.8-0.1c0.2-0.3,0.6-0.4,0.8,0c0.3-0.5-0.2-0.9-0.6-0.7c-0.2-0.5-0.7-0.3-1.1-0.1c-0.3,0.1-0.6-0.1-0.7-0.2
				c0-0.1,0-0.2,0.2-0.3c0.1-0.1-0.1-0.2-0.1-0.2s0.1-0.3,0.5-0.3c0.1,0,0.1-0.1,0.1-0.1s0.2-0.1,0.1-0.3c0.2-0.1,0.1-0.2,0.1-0.2
				C14.4,5.2,14.4,5,14.2,5s-0.3,0-0.3-0.1c0.1-0.1-0.1-0.3-0.2-0.2c-0.1-0.1-0.3-0.2-0.3-0.2c0-0.1-0.1-0.2-0.2-0.1
				c-0.1-0.1-0.4-0.1-0.4-0.1s-0.1-0.1-0.5-0.2l0,0c0.1-0.1,0.1-0.2,0.1-0.3c0-0.2-0.1-0.3-0.3-0.3v0l0.2,0.1V3.3h-0.2V3.1h-0.3v0.2
				h-0.2v0.3l0.2-0.1v0.1c-0.2,0-0.3,0.2-0.3,0.3s0,0.2,0.1,0.3l0,0c-0.3,0-0.5,0.2-0.5,0.2s-0.3,0-0.4,0.1c-0.1-0.1-0.3,0-0.2,0.1
				c0,0-0.2,0.1-0.3,0.2C10.1,4.7,9.9,4.9,10,5c0.2,0,0,0,0,0.2c-0.2,0-0.2,0.2-0.1,0.3c0,0-0.1,0.1,0.1,0.2C9.8,5.9,10.1,6,10.1,6
				s0,0.1,0.1,0.1c0.4,0,0.5,0.3,0.5,0.3s-0.2,0.1-0.1,0.2c0.2,0.1,0.2,0.2,0.2,0.3c-0.1,0.1-0.4,0.3-0.7,0.2C9.7,6.9,9.2,6.7,9,7.2
				C8.5,7,8.1,7.4,8.4,7.9c0.1-0.3,0.6-0.2,0.8,0C9,7.8,8.7,7.9,8.4,8S8,7.9,8,7.9C7.9,7.8,7.9,7.6,7.9,7.6C7.8,7.6,7.7,7.7,7.7,8
				c0,0.3,0.3,0.4,0.6,0.4s0.3-0.1,0.6-0.1c0.1,0.2,0.6,0.5,1,0.3c0-0.2,0.1,0.2,0.1,0.3c0,0,0.1,0.1,0.3-0.1c0.1,0.2,0.1,0.5,0,0.7
				c0,0,0,0.1,0.2,0c0,0.2,0,0.4-0.2,0.5c0,0-0.1,0-0.1-0.1L9.3,11c0.2,0.4,0.3,0.7,0.3,1.1c-0.1,0-0.1,0-0.2-0.2s-0.3-0.2-0.6-0.2
				c-0.3,0-0.4-0.2-0.3-0.4c0-0.2,0.4-0.3,0.5-0.5c0.2-0.2,0-0.5-0.2-0.9C8.4,9.6,8,9,7.9,8.7c0,0-0.1,0.1-0.1,0.3
				C7.6,8.8,7.1,8,7,7.2L6.9,7.3c0,0-0.2-0.8-0.3-2.1C6,5.6,6,7.1,6.3,7.9c0,0,0,0-0.1,0C6.1,7.8,5.7,6.5,5.8,5.8
				C5.2,6.3,5.5,8.1,6,9C5.6,8.7,5.2,7.5,5.2,7C4.9,7.3,4.8,8.8,5.9,9.7C5.4,9.4,5.1,8.9,4.7,8.2C4.6,8.5,4.6,9.6,6,10.5
				C5.7,10.4,5,10,4.6,9.4c-0.2,0.5,0.3,1.3,1.3,1.7c0,0-1-0.3-1.4-0.8c0,0.7,0.8,1.3,1.7,1.5l0.1,0.1c0,0-1-0.1-1.6-0.6
				c-0.1,0.5,0.4,1.2,1.8,1.2c-0.3,0.1-1.1,0-1.4-0.2v-0.2l-0.2,0.1v-0.3L4.3,12l0.1,0.3l-0.3,0.1l0.2,0.4l0.2-0.1c0,0,0,0.1,0,0.2
				c-0.2,0-0.2,0.1-0.2,0.2c0,0,0.2,0.1,0.3,0.2c0.1,0.1,0.3,0.8,0.3,1.1c0,0.4,0.1,1,0.6,1.3c-0.1,0.1-0.1,0.4,0.2,0.5
				c0,0.3-0.1,0.7,0.4,1.1c-0.5,0.2-0.5,0.6-0.1,0.8c0-0.1,0,0.3,0.4,0.3c0,0.2,0.3,0.3,0.5,0.2c0.1,0.1,0.1,0.3,0,0.6
				c0,0,0.1,0,0.2,0c0.2,0.1,0.3,0.1,0.3,0.1v-0.4c0,0,0.2,0,0.3-0.1c0,0-0.4-0.2-0.5-0.3c0,0,0.1-0.1,0.1-0.2c0,0,0.2-0.1,0.3-0.3
				c0.1-0.2,0.4-0.5,0.9-0.8c0,0.1,0,0.1,0.1,0.2c0,0,0.7-0.6,0.9-0.5c0,0,0,0.1,0.2,0.3c0.1-0.2,0.8-1.1,1.2-1.4H11
				c0,0.3-0.3,0.6-0.4,0.7s-0.3,0.5,0,0.8c-0.1,0.1-0.2,0.2-0.3,0.6c-0.1,0.4-0.6,0.7-0.8,0.8c-0.2,0.1-0.1,0.4,0.5,0.4
				c-0.4,0.6-0.1,0.6,0.4,0.4c0,0-0.2,0.3,0,0.5c0,0,0.3-0.2,0.6-0.2c-0.1,0.2-0.1,0.6,0.2,0.7c0,0,0.2-0.3,0.3-0.3
				c0,0.2,0.2,0.6,0.4,0.8c0.3-0.1,0.4-0.6,0.4-0.8c0.1,0,0.3,0.3,0.3,0.3c0.3-0.1,0.3-0.5,0.2-0.7c0.3,0,0.6,0.2,0.6,0.2
				c0.2-0.1,0-0.5,0-0.5c0.5,0.2,0.8,0.2,0.4-0.4c0.6-0.1,0.7-0.4,0.5-0.4c-0.2-0.1-0.8-0.4-0.8-0.8c-0.1-0.4-0.2-0.5-0.3-0.6
				c0.2-0.2,0.1-0.7,0-0.8c-0.1-0.1-0.4-0.4-0.4-0.7h0.1c0.3,0.3,1.1,1.2,1.2,1.4c0.2-0.1,0.2-0.3,0.2-0.3c0.2,0,0.9,0.5,0.9,0.5
				c0.1,0,0.1-0.1,0.1-0.2c0.5,0.1,0.9,0.4,1.1,0.5c0.2,0.2,0.5,0.2,0.8,0.1c0.4-0.1,1.5-0.5,1.7-0.6c0.1-0.2,0.2-0.4,0-0.5
				c0-0.2,0-0.3-0.1-0.3l0,0l0,0c0-0.4-0.2-0.8-0.6-0.9v-0.3l0.2,0.1l0.1-0.3h-0.2l0.1-0.2L18,14.7V15l-0.2-0.1l0,0.1H18l-0.1,0.2
				h-0.1c-0.4,0-0.8,0.3-1,0.6l0,0c-0.1,0.1-0.2,0.1-0.2,0.3c-0.1,0.1-0.2,0.2-0.2,0.3c0,0.1,0.1,0.2,0.2,0.4s0,0.3-0.1,0.2
				c-0.1-0.1-0.6-0.5-0.6-0.5s0.1,0,0.3-0.1c0,0-0.3-0.1-0.4-0.3c0.1,0,0.2-0.1,0.2-0.2c-0.1,0-0.5,0-0.6-0.2c0,0,0.1-0.1,0.1-0.2
				c-0.6,0-1-0.4-1.2-0.8l0,0c0.3,0.4,0.6,0.4,0.7,0.3c0.1-0.1-0.1-0.3-0.2-0.4c-0.1-0.1,0,0,0.1,0c0.4,0.5,1,0.3,1.1,0.2
				c0.1,0,0.1-0.1-0.1-0.3c0.6,0.2,1.1-0.1,1.2-0.3c0,0-0.4,0-0.6-0.2c0.8,0.3,1.3-0.1,1.3-0.4c0,0-0.2,0-0.6-0.2
				c0.9,0.2,1.3-0.2,1.3-0.6c-0.2,0.1-1.1,0.2-1.4-0.1c1.3,0.3,1.8-0.2,1.9-0.8c-0.3,0.2-1.1,0.2-1.4,0.2c1.4,0,1.9-0.7,1.8-1.2
				C18.9,11.7,17.8,11.8,17.8,11.8z M13.2,4.8c0.1,0,0.3,0.1,0.4,0.3c0.1,0.2-0.1,0.5,0,0.7c-0.1,0-0.2,0.2-0.5,0
				C13.5,5.7,13.5,5.3,13.2,4.8z M12.3,4.6c0.4,0.1,0.5,0.4,0.5,0.6s-0.1,0.3,0,0.4c-0.2,0.1-0.4,0.2-0.6,0
				C12.6,5.3,12.2,4.9,12.3,4.6z M11.7,4.6c0.1,0.3-0.3,0.7,0.1,1.1c-0.2,0.2-0.4,0.1-0.6,0c0.1-0.1,0-0.2,0-0.4
				C11.2,5,11.4,4.7,11.7,4.6z M10.4,5.8c0.1-0.2-0.1-0.5,0-0.7s0.3-0.3,0.4-0.3c-0.3,0.5-0.3,0.8,0,0.9C10.6,6,10.5,5.8,10.4,5.8z
				 M10.9,6.9C11.1,7,11.2,7.1,12,7.1s0.9-0.1,1.1-0.2c0,0.3,0.2,0.5,0.4,0.5C13.4,7.6,13,7.7,13,7.7c0,0.1,0.1,0.2,0.2,0.2
				c-0.2,0.2-0.7,0.4-0.7,0.4c0,0.2,0.2,0.3,0.2,0.3c-0.1,0.3-0.5,0.5-0.6,0.5c0,0.2,0,0.3,0.2,0.4C12.2,9.7,12,9.9,12,9.9l0,0l0,0
				l0,0l0,0c0,0-0.1-0.2-0.3-0.4c0.2-0.1,0.3-0.3,0.2-0.4c-0.1,0-0.5-0.2-0.6-0.5c0,0,0.2-0.1,0.2-0.3c0,0-0.5-0.2-0.7-0.4
				c0.1,0,0.2-0.1,0.2-0.2c-0.1,0-0.4-0.1-0.5-0.3C10.7,7.4,10.9,7.2,10.9,6.9z M5,12.7l-0.1-0.2h0.2c0,0,0,0.1,0.1,0.1
				C5.1,12.6,5,12.6,5,12.7z M8.5,15.7c0,0.2,0.1,0.2,0.1,0.2C8.5,16,8.1,16.1,8,16.1c0,0.2,0.2,0.2,0.2,0.2
				c-0.1,0.2-0.4,0.3-0.4,0.3c0.2,0.1,0.3,0.1,0.4,0.1c-0.1,0.1-0.3,0.3-1,0.3c-0.6,0-0.7,0-0.7,0c0-0.4-0.3-0.9-0.4-1
				c0.1-0.2,0-0.5-0.2-0.5c0-0.8-0.3-1.1-0.5-1.4C5.2,13.8,5,13.3,5,13c0-0.2,0-0.3,0-0.3C5.2,13,5.8,13.2,6.7,13
				c-0.3,0.2-1.2,0.1-1.4,0.1c0,0.4,0.4,0.8,1.3,0.6C6.2,13.9,6,13.9,6,13.9c-0.1,0.3,0.5,0.6,1.3,0.4c-0.3,0.2-0.6,0.2-0.6,0.2
				c0.1,0.2,0.6,0.5,1.2,0.3C7.7,15,7.7,15,7.8,15.1c0.1,0,0.7,0.3,1.1-0.2c0-0.1,0.2-0.2,0.1,0c-0.1,0.1-0.3,0.3-0.2,0.4
				c0.1,0.1,0.5,0.1,0.7-0.3l0,0C9.5,15.3,9,15.6,8.5,15.7z"/>
			<g>
				<g>
					<path class="st2" d="M14,11.2l-0.6-0.7c-0.3,0.2-0.8,0.3-1.4,0c-0.6,0.3-1.1,0.2-1.4,0L10,11.2c0.4,0.7,0.1,1.4,0.1,2.1
						s0.3,1,0.6,1.2c0.3,0.1,1.2,0.5,1.3,0.8c0.1-0.2,1.1-0.6,1.3-0.8c0.3-0.1,0.6-0.5,0.6-1.2C13.9,12.6,13.5,11.9,14,11.2z
						 M13.2,14.3C13,14.5,12.1,14.8,12,15c-0.1-0.2-1-0.6-1.2-0.7c-0.3-0.1-0.6-0.4-0.6-1.1c0-0.6,0.4-1.3,0-2l0.5-0.6
						c0.2,0.2,0.8,0.3,1.3,0c0.5,0.3,1.1,0.2,1.3,0l0.5,0.6c-0.4,0.6,0,1.3,0,2C13.8,13.9,13.5,14.2,13.2,14.3z"/>
					<g>
						<path class="st11" d="M13.7,13.4c0-0.1,0-0.1,0-0.2c0-0.6-0.4-1.3,0-1.9l-0.4-0.5c-0.1,0.1-0.8,0.2-1.3,0
							c-0.5,0.3-1.2,0.2-1.3,0l-0.4,0.5c0.3,0.6,0,1.3,0,1.9c0,0.1,0,0.1,0,0.2H13.7z"/>
						<path class="st12" d="M10.3,13.6c0.1,0.3,0.3,0.5,0.5,0.6s1.1,0.5,1.2,0.7c0.1-0.2,0.9-0.5,1.2-0.7c0.2-0.1,0.4-0.3,0.5-0.6
							H10.3z"/>
						<path class="st2" d="M13.7,13.5L13.7,13.5c0,0.1,0,0.1,0,0.1h-3.4c0,0,0,0,0-0.1c0,0,0,0,0-0.1h3.4V13.5z"/>
					</g>
				</g>
				<g>
					<path class="st13" d="M10.7,13.4c0,0,0-0.1,0.1-0.1c0,0,0-0.1,0.1-0.1s0.2-0.2,0.2-0.5c0,0,0,0-0.1,0c0,0-0.1-0.1,0-0.3
						s0,0,0,0v-0.1c0,0-0.2,0.1-0.3-0.1c-0.1-0.2-0.1-0.4-0.1-0.4s-0.2,0-0.2-0.2c0,0-0.1,0,0-0.2c0,0,0,0.1,0.1,0.1h0.1
						c0,0,0,0,0-0.1l-0.1-0.1c0,0,0.1-0.1,0-0.2c0,0,0-0.1,0.1,0V11c0,0,0.1,0,0.1,0.1c0,0,0.1,0,0-0.1c0.1,0,0.1,0.1,0.1,0.2
						c0,0.1,0,0.2,0,0.3s0,0.2,0.1,0.2c0,0.1,0.1,0.1,0.1,0.1s0.1-0.2,0.3-0.2h0.1l0,0c0,0,0,0-0.1,0s-0.1,0-0.1-0.1s0-0.1,0-0.1
						s-0.1,0-0.2-0.1s0-0.2,0-0.2l0,0c0,0,0,0.1,0.1,0.2l0,0c0,0-0.1,0,0-0.1c0-0.1,0.1-0.1,0.2-0.1c0.1-0.1,0.2-0.1,0.3-0.1
						c0.1-0.1,0.3-0.1,0.3,0.1c0.1,0,0.2,0.1,0.2,0.1s0,0.1-0.1,0.1c0.1,0.1,0.1,0.1,0.1,0.1s-0.1,0.1-0.2,0.1
						c0.1,0.1,0.2,0.2,0.2,0.2S12.2,12,12,12c0.1,0.1,0.1,0.2,0.1,0.2s0.1,0,0.2,0s0.2,0,0.3,0c0.1,0,0.3,0.1,0.3,0.1H13
						c0.1,0,0.2-0.1,0.2-0.1c0-0.1,0-0.1-0.3-0.1s-0.4,0-0.4-0.1s-0.2-0.2,0-0.3c0.1-0.1,0.4-0.2,0.5-0.2s0.3,0.1,0.4,0
						c0.1,0.1-0.1,0.3-0.3,0.3c-0.2,0-0.3-0.1-0.4-0.1s-0.2,0.2,0,0.2C12.9,12,13,12,13.2,12s0.3,0.2,0.3,0.2c0,0.1,0,0.2-0.1,0.2
						c-0.1,0.1-0.2,0.1-0.3,0.1c0,0.1,0,0.3,0.2,0.3s0.2,0.2,0.2,0.4s0,0.2,0,0.2c0,0.1-0.1,0.1-0.1,0.2h-0.6c0-0.1,0.1-0.1,0.1-0.1
						c0-0.1,0.1-0.1,0.2-0.1s0.2,0,0.1-0.1c0-0.1,0-0.1-0.1-0.1c0,0.1,0,0.1,0,0.1s-0.2,0-0.4-0.2l-0.1,0.1c0,0.1,0.1,0.1,0.1,0.1
						c0,0.1-0.1,0.2-0.1,0.3H12c0,0,0-0.1,0.1-0.1c0-0.1,0.2-0.1,0.2-0.1c0.1-0.1,0.1-0.2,0.1-0.2L12.2,13l0,0c0,0-0.1-0.1,0-0.3
						c-0.1,0-0.3,0.1-0.6,0.1c-0.1,0.1-0.2,0.3-0.2,0.4c0,0.1,0,0.2,0,0.2H10.7z"/>
					<path class="st2" d="M10.8,13.4h-0.1l0,0C10.7,13.4,10.8,13.4,10.8,13.4L10.8,13.4L10.8,13.4L10.8,13.4z M11,13.4L11,13.4
						C10.9,13.4,10.9,13.4,11,13.4c-0.1,0-0.1,0-0.1,0l0,0H11L11,13.4z M11.4,12.9C11.3,12.8,11.3,12.8,11.4,12.9
						c-0.1-0.1-0.1-0.1-0.1-0.2c-0.1,0-0.1,0.1-0.1,0.1c0,0.1,0,0.1,0,0.2c0,0.1,0,0.1-0.1,0.2c0,0,0,0.1-0.1,0.1c0,0,0,0-0.1,0
						c0,0,0,0-0.1,0c0,0-0.1,0.1,0,0.1l0,0c0,0,0.1,0,0.1-0.1H11c0,0,0,0,0,0.1l0,0h0.2c0,0,0,0,0-0.1c0,0,0-0.1,0-0.2
						c0-0.1,0-0.1,0.1-0.2C11.4,13,11.4,13,11.4,12.9L11.4,12.9z M11.3,12.5l-0.1,0.1l0,0c0,0-0.1,0.1,0,0.2l0.2-0.1
						c0,0,0,0.2,0.1,0.2c0,0,0.1-0.1,0.1-0.2c0.1,0.1,0.1,0.1,0.1,0.1s0-0.1,0.1-0.1v0.1c0,0,0.4-0.1,0.5-0.1c0.2,0,0.2,0,0.3,0
						c0,0,0,0-0.2,0c-0.1,0-0.2,0-0.2,0s0.1-0.1,0.2-0.1s0.2,0,0.2,0s0,0.1,0,0.2c0,0.1,0.1,0.2,0.3,0.3V13c0,0,0.1,0,0.2,0.1v0.1
						c0,0.1,0,0.2-0.2,0.2c-0.1,0-0.2,0.1-0.1,0.1c0,0,0,0,0.1,0s0.1,0,0.1,0.1c0.1,0,0.2,0,0.2,0s0-0.2,0.1-0.2c0-0.1,0-0.2,0-0.3
						s0-0.2-0.1-0.2s-0.2,0-0.2-0.2s-0.1-0.2-0.3-0.3s-0.3,0-0.4,0s-0.2,0-0.2,0c0,0.1,0,0.1,0,0.1h-0.2c0,0,0,0.1-0.1,0.2l-0.1-0.1
						c0,0,0,0.1-0.1,0.2c0,0-0.1,0-0.1-0.1c0,0,0,0.1-0.1,0.1C11.5,12.7,11.3,12.6,11.3,12.5z M12,13.4C12,13.4,11.9,13.4,12,13.4
						C11.9,13.4,11.9,13.4,12,13.4C11.9,13.4,11.9,13.4,12,13.4L12,13.4L12,13.4C11.9,13.4,11.9,13.4,12,13.4
						C11.9,13.4,11.9,13.4,12,13.4L12,13.4L12,13.4L12,13.4z M12.1,13.4C12,13.4,12,13.4,12.1,13.4C12,13.4,12,13.4,12.1,13.4
						c-0.1,0-0.1,0-0.1,0H12.1L12.1,13.4L12.1,13.4z M12.3,13.4c0,0,0.1-0.1,0.1-0.2c0.1-0.1,0.1-0.1,0-0.2c-0.1-0.1,0-0.1,0-0.2
						c0.1,0,0.1-0.1,0.1-0.1s-0.1-0.1-0.2-0.1s-0.2,0-0.2,0.2s0,0.1,0,0.1c0-0.1,0.1,0,0.1,0.1s-0.1,0.2-0.1,0.2
						c-0.1,0-0.1-0.1-0.2,0.1c0,0,0.1,0,0.1,0.1C12.1,13.4,12.3,13.4,12.3,13.4z M12.8,13.4L12.8,13.4L12.8,13.4c-0.1,0-0.1,0-0.1,0
						H12.8L12.8,13.4z M13,13.4C13,13.4,12.9,13.4,13,13.4C12.9,13.4,12.9,13.4,13,13.4C12.9,13.4,12.9,13.4,13,13.4L13,13.4
						L13,13.4z M11.1,11.5c0,0.1,0.1,0.1,0.2,0.1s0.1,0,0.1-0.1c0,0,0-0.1-0.1,0c-0.1,0-0.2,0-0.2-0.1V11.5z M11.9,11.6
						c0.1,0,0.1,0.1,0,0.1c0,0,0.1,0,0.2,0c0.1-0.1,0.1-0.1,0.1-0.1s-0.1-0.1-0.2-0.1S11.9,11.6,11.9,11.6z M12.1,11.5
						C12.2,11.4,12.2,11.4,12.1,11.5c0.1-0.1-0.1-0.1-0.1-0.1S12.1,11.4,12.1,11.5C12,11.4,12,11.5,12.1,11.5z M11.8,11.3
						c0,0,0.1-0.1,0.2,0C12,11.3,11.9,11.1,11.8,11.3L11.8,11.3z M12.1,12.3c-0.1,0-0.1-0.1-0.1-0.1c0,0.1,0,0.2,0,0.2l-0.1-0.1
						c0,0.1-0.1,0.3-0.1,0.3c-0.1,0-0.1-0.2-0.1-0.2c-0.1,0-0.1,0.2-0.1,0.2c-0.2,0-0.1-0.3-0.1-0.3l-0.2,0.2c0,0-0.1-0.1-0.1-0.2
						c0-0.1,0.1-0.2,0.2-0.2c0,0.1,0,0.1,0,0.1l0.1-0.1c0,0.1,0,0.2,0.1,0.1c0.1-0.1,0.1-0.2,0.1-0.2s0,0-0.1,0.1s-0.1,0-0.1,0
						c0-0.1,0.1-0.1-0.1,0c-0.1,0.1-0.1,0-0.1,0c0-0.1,0,0-0.1,0c-0.1,0.1-0.2,0.1-0.1,0c0-0.1,0.1-0.1,0.3-0.1
						c0.1,0,0.2-0.1,0.2-0.1s0-0.1-0.1-0.1s-0.1,0-0.2,0s0-0.1,0-0.1c0.1,0,0.1,0,0.1-0.1s0-0.1-0.1-0.1s-0.1,0-0.1,0l0,0
						c0,0-0.1,0-0.1-0.1s0.2-0.1,0.2-0.1c0.1-0.1,0.3-0.1,0.3,0c0.1-0.1,0.2-0.1,0.2,0s-0.2,0.1-0.2,0.1c0,0.1-0.1,0.1-0.1,0.1
						c0.2,0,0,0.2,0,0.2l0.1-0.1c0.2,0,0.3,0.2,0.3,0.2c-0.1,0-0.2,0-0.2,0v0.1C12.1,12.1,12.1,12.3,12.1,12.3z M11.7,11.4
						C11.7,11.3,11.7,11.3,11.7,11.4c-0.1-0.1-0.1,0-0.1,0S11.6,11.4,11.7,11.4L11.7,11.4z M12.9,12.3C12.9,12.3,13,12.3,12.9,12.3
						c0.1,0.1,0.3,0.1,0.3,0c0.1,0,0.1-0.1,0.1-0.2s0-0.2-0.2-0.2c-0.1,0-0.4,0-0.6-0.1c-0.1,0-0.2-0.1-0.2-0.1s0.1-0.2,0.2-0.2
						s0.1,0.1,0.3,0.1c0.2,0,0.3,0,0.3-0.2H13c-0.1,0-0.2-0.1-0.3,0c-0.1,0-0.4,0.1-0.4,0.3c0,0.1,0.2,0.2,0.4,0.2s0.5,0,0.5,0.1
						s0,0.2-0.1,0.2C13,12.3,12.9,12.3,12.9,12.3z M13,11.5c0.1,0,0.2,0,0.2,0c-0.2,0-0.2-0.1-0.4,0C12.8,11.5,12.9,11.5,13,11.5z
						 M11.1,12.4c0,0,0-0.1,0-0.2c-0.2-0.1-0.2-0.3-0.2-0.3c0-0.1,0-0.2,0-0.2v-0.1v0.1c0,0,0-0.1-0.1,0c0,0,0,0,0,0.1
						c0,0-0.1-0.1-0.1,0c0,0,0,0,0.1,0.1c0,0.1,0,0.1,0,0.1h-0.1v0.1c0,0,0,0.1,0.2,0.1c0,0,0,0,0,0.1
						C10.8,12.2,10.9,12.4,11.1,12.4z M10.6,11.8L10.6,11.8v-0.1C10.5,11.7,10.5,11.8,10.6,11.8z M10.6,11.4
						C10.6,11.4,10.7,11.4,10.6,11.4L10.6,11.4C10.7,11.5,10.7,11.4,10.6,11.4z M10.8,11.3L10.8,11.3L10.8,11.3
						C10.8,11.4,10.8,11.3,10.8,11.3z M10.9,11.4L10.9,11.4C10.9,11.4,11,11.4,10.9,11.4C10.9,11.3,10.9,11.4,10.9,11.4z"/>
				</g>
			</g>
		</g>
	</g>
</g>
</svg>
