<?xml version="1.0" encoding="utf-8"?>
<!-- Generator: Adobe Illustrator 24.0.1, SVG Export Plug-In . SVG Version: 6.00 Build 0)  -->
<svg version="1.1" id="Layer_1" xmlns="http://www.w3.org/2000/svg" xmlns:xlink="http://www.w3.org/1999/xlink" x="0px" y="0px"
	 viewBox="0 0 40 24" style="enable-background:new 0 0 40 24;" xml:space="preserve">
<style type="text/css">
	.st0{fill:#C40308;}
	.st1{fill:#FBC816;}
	.st2{display:none;}
	.st3{display:inline;}
	.st4{fill:#003895;}
	.st5{display:inline;fill:#003895;}
	.st6{display:inline;fill:#ED2D38;}
	.st7{display:inline;fill:#FBC816;}
	.st8{fill:#F4F935;}
	.st9{fill:#1D5E91;}
	.st10{fill:#6D8C3E;}
	.st11{fill:#D48500;}
</style>
<g>
	<g>
		<rect class="st0" width="40" height="24"/>
		<path class="st1" d="M0,0v24h40V0H0z M39,22.8H1V1.2h38V22.8z"/>
	</g>
	<g>
		<g class="st2">
			<g class="st3">
				<polygon class="st1" points="20.2,5.5 20.2,5.6 20.1,5.6 20.1,5.7 19.9,5.7 19.9,5.6 19.8,5.6 19.8,5.5 19.9,5.5 19.9,5.4 
					20.1,5.4 20,5.5 				"/>
				<path class="st4" d="M20.2,6c0,0.1-0.1,0.2-0.2,0.2c-0.1,0-0.2-0.1-0.2-0.2H20.2z"/>
				<path class="st4" d="M19.9,5.7v0.1h-0.2C19.8,5.8,19.8,5.7,19.9,5.7z"/>
				<path class="st4" d="M20.2,5.9h-0.2V5.7C20.2,5.7,20.2,5.8,20.2,5.9z"/>
				<path class="st1" d="M20.3,5.9C20.3,5.9,20.2,6,20.3,5.9l-0.5,0c0,0,0,0,0,0c0,0,0,0,0,0h0.2V5.7h0.1v0.1L20.3,5.9
					C20.2,5.9,20.3,5.9,20.3,5.9z"/>
			</g>
			<path class="st5" d="M25.1,15.1L24.7,15l0.1-0.4C25,14.7,25.1,14.9,25.1,15.1z M24.4,14.5c-0.3,0-0.5,0.1-0.6,0.3l0.5,0.1
				L24.4,14.5C24.4,14.5,24.4,14.5,24.4,14.5z M24.4,15.5l-0.7-0.2C23.8,15.9,24.3,15.8,24.4,15.5z M24.8,15.7
				c-0.1,0-0.2,0.1-0.1,0.2c0.1,0.1,0.3-0.1,0.3-0.2L24.8,15.7C24.8,15.6,24.8,15.6,24.8,15.7z"/>
			<g class="st3">
				<path class="st1" d="M20,7.4C20,7.4,20,7.4,20,7.4C20,7.4,20,7.4,20,7.4C20,7.3,20,7.3,20,7.4C20,7.3,20,7.3,20,7.4z"/>
				<circle class="st1" cx="20" cy="6.3" r="0.1"/>
				<circle class="st1" cx="20" cy="6.6" r="0.1"/>
				<path class="st1" d="M20.1,6.9C20.1,6.9,20,7,20.1,6.9c-0.1,0.1-0.1,0-0.1,0C19.9,6.8,20,6.8,20.1,6.9C20,6.8,20.1,6.8,20.1,6.9
					z"/>
				<g>
					<path class="st1" d="M18.2,12.1c-0.1,0-0.2,0-0.2-0.1c-0.1-0.1-0.1-0.1-0.2-0.2c-0.1,0-0.2,0-0.3,0c-0.1,0-0.2-0.1-0.3-0.2
						c0-0.1,0-0.2,0.1-0.3c0.1-0.1,0.3-0.1,0.4-0.3c0.1-0.1,0.1-0.3,0-0.4c-0.1-0.1-0.2-0.2-0.2-0.3c-0.2-0.2-0.4-0.4-0.5-0.7
						c0,0.1,0,0.2,0,0.3c0,0,0,0,0,0c0,0,0,0-0.1,0s0,0,0,0c0,0-0.1-0.1-0.2-0.1c-0.1,0-0.1,0-0.2,0.1c0,0.1,0,0.1,0,0.2
						c0,0.1,0.1,0.1,0.1,0.2c0,0,0,0,0,0.1c0,0,0,0,0,0c0,0,0,0,0,0c-0.1,0-0.1-0.1-0.2-0.1c-0.1,0-0.1-0.1-0.2,0
						c-0.1,0-0.1,0-0.1,0.1c0,0,0,0.1,0,0.1c0,0,0.1,0.1,0.1,0.1s0.1,0.1,0.1,0.1c-0.1,0-0.1-0.1-0.2-0.1c-0.1,0-0.1,0-0.2,0.1
						c0,0.1,0,0.1,0.1,0.1c0,0,0.1,0.1,0.1,0.1c0.1,0,0.1,0,0.2,0c0,0,0,0,0,0c0,0,0,0,0,0c0,0,0,0,0,0c0,0-0.1,0-0.1,0
						c0,0-0.1,0-0.1,0.1c0,0,0,0.1,0,0.1c0,0,0.1,0.1,0.1,0.1c0.1,0,0.1,0,0.2,0c0,0,0,0,0.1,0c0,0,0,0,0,0.1c0,0-0.1,0.1-0.1,0.1
						c0,0-0.1,0.1-0.1,0.1c0,0,0,0.1,0.1,0.1c0.1,0,0.2,0.1,0.2,0c0,0,0.1,0,0.1,0c0,0-0.1,0.1-0.1,0.2c0,0.1,0.1,0.1,0.2,0.1
						c0.1,0,0.1,0,0.2-0.1c0,0,0,0,0.1,0c0,0,0,0,0,0.1c0,0,0,0-0.1,0c0,0-0.1,0-0.1,0c-0.1,0-0.1,0.1,0,0.2c0,0.1,0.1,0.1,0.2,0.1
						c0.1,0,0.1,0,0.2-0.1c0,0,0.1,0,0.1,0c0,0,0,0.1,0,0.1c0,0,0,0.1,0,0.1c0,0.1,0,0.2,0.1,0.2c0.1,0,0.2,0,0.3-0.1c0,0,0,0,0,0
						c0,0,0,0,0.1,0c0,0,0,0,0,0.1c0,0,0,0,0,0.1c0,0.1,0,0.1,0.1,0.2c0.1,0,0.2,0,0.2,0C18.1,12.7,18.1,12.4,18.2,12.1z"/>
					<path class="st1" d="M18.1,15.2c-0.1,0-0.3,0.3-0.3,0.3c0-0.2,0.2-0.3,0.2-0.3s-0.4,0-0.5-0.2c0,0-0.2,0.1-0.3,0.1
						c0.1,0.1,0.3,0.2,0.5,0.2c-0.1,0.1-0.3,0.4-0.1,0.7c0.1-0.1,0.6-0.4,0.6-0.4S18.2,15.2,18.1,15.2z"/>
					<path class="st1" d="M17.4,15.3c-0.1-0.1-0.2-0.1-0.2-0.1s-0.1,0.1-0.2,0.2C17.1,15.5,17.4,15.4,17.4,15.3z"/>
					<path class="st1" d="M17.1,15.6c-0.3,0.2-0.7,0.2-1.1,0.2c-0.4,0-0.4,0.2-0.4,0.3c0,0.1,0.1,0.2,0.2,0.2c0.2,0,0.1-0.2,0.1-0.2
						c0.4-0.1,0.6,0.1,0.6,0.1C16.3,16,16.1,16,16.1,16c0.1,0.1,0.1,0.2,0.1,0.2c0.1,0,0.1-0.2,0.1-0.2c0.2,0.1,0.1,0.4,0.1,0.4
						c0.1,0,0.1,0.1,0.1,0.1c0.1,0,0.1-0.2,0.1-0.2s0.1,0,0.1,0.2c0.1-0.2,0.6-0.6,0.8-0.7c0-0.3,0.1-0.4,0.1-0.4
						S17.4,15.4,17.1,15.6z"/>
					<path class="st1" d="M15.7,16.4c0-0.1-0.1-0.3-0.1-0.4C15.3,16.2,15.5,16.4,15.7,16.4z"/>
					<path class="st1" d="M16.1,16.1c0,0,0-0.1-0.1-0.1C16,16,16,16.1,16.1,16.1L16.1,16.1z"/>
					<path class="st1" d="M16.2,16.3c0,0,0.1,0,0.1,0c0,0,0.1-0.1,0-0.2C16.2,16.2,16.2,16.3,16.2,16.3z"/>
					<path class="st1" d="M16.5,16.4c0,0,0,0.1-0.1,0.2l0.1,0.1C16.5,16.6,16.6,16.5,16.5,16.4z"/>
					<path class="st1" d="M16.5,16.9c0,0-0.2,0-0.2,0c0,0,0.1,0.1,0,0.4c0,0,0.1,0.1,0.2-0.2c0,0,0.1,0.1,0.3,0
						C16.7,17.2,16.5,17,16.5,16.9z"/>
					<polygon class="st1" points="16.4,17.3 16.5,17.4 16.6,17.3 16.5,17.2 					"/>
					<path class="st1" d="M15.9,16.5C15.9,16.5,15.9,16.5,15.9,16.5c0-0.1,0-0.1,0-0.1c0,0,0,0,0,0c0,0,0,0,0,0.1
						C15.8,16.4,15.8,16.5,15.9,16.5C15.8,16.5,15.8,16.5,15.9,16.5z"/>
					<path class="st1" d="M15.9,16.3C15.9,16.3,15.9,16.3,15.9,16.3c0,0.1,0,0.1,0,0.1c0,0,0.1,0,0.1,0c0,0,0.1-0.1,0.1-0.1
						c0-0.1,0-0.1-0.1-0.1C16,16.2,16,16.2,15.9,16.3C16,16.2,15.9,16.3,15.9,16.3z"/>
					<path class="st1" d="M16,16.7c0,0,0.1,0,0.1,0c0,0,0.1,0,0.1,0c0,0,0.1,0,0.1-0.1c0,0,0-0.1,0-0.1c0,0,0,0,0,0c0,0,0,0-0.1,0
						c0,0,0,0-0.1,0.1c0,0,0,0-0.1,0c0,0,0,0-0.1,0c0,0,0,0.1-0.1,0.1c0,0-0.1,0-0.1,0c0,0-0.1,0-0.1,0c0,0-0.1,0-0.1,0.1
						c0,0,0,0.1,0,0.1c0,0,0,0,0.1,0.1c0,0,0.1,0.1,0.1,0.1C15.8,16.8,15.9,16.8,16,16.7C15.9,16.7,16,16.7,16,16.7z"/>
					<path class="st1" d="M16.4,16.8C16.5,16.8,16.5,16.8,16.4,16.8c0.1-0.1,0.1-0.1,0-0.1c0,0-0.1-0.1-0.2,0c0,0-0.1,0.1-0.1,0.1
						c0,0-0.1,0-0.1,0c0,0-0.1,0-0.1,0.1c0,0-0.1,0-0.1,0c0,0-0.1,0-0.1,0c0,0,0,0.1,0.1,0.1c0.1,0,0.1,0,0.2,0c0,0,0.1-0.1,0.1-0.1
						C16.3,16.8,16.3,16.8,16.4,16.8z"/>
					<path class="st1" d="M15.6,15.8C15.7,15.8,15.7,15.8,15.6,15.8c0.1,0,0.2,0,0.2-0.1c0,0,0-0.1,0-0.1c0-0.2-0.1-0.4-0.2-0.5
						c0,0-0.1-0.1-0.1,0c0,0-0.1,0-0.1,0.1c0,0.1,0,0.2,0,0.4C15.5,15.6,15.6,15.7,15.6,15.8z"/>
					<path class="st1" d="M15.6,14.8c0-0.1-0.1-0.1-0.2-0.1c-0.1,0-0.2,0.2-0.1,0.3c0,0.1,0.1,0.1,0.2,0
						C15.6,14.9,15.6,14.9,15.6,14.8z"/>
					<path class="st1" d="M14.5,12.6C14.5,12.6,14.6,12.6,14.5,12.6c0.1,0,0.1,0,0.1-0.1l-0.1-0.2l0.2,0l0-0.2l-0.2,0.1l-0.1-0.2
						L14.3,12l0.1,0.2l-0.2,0.1l0.1,0.2l0.2-0.1L14.5,12.6z"/>
					<path class="st1" d="M15.4,14.5c0-0.1,0-0.3-0.1-0.5c0-0.1-0.1-0.3-0.2-0.4s-0.1-0.2-0.2-0.3c-0.1-0.1-0.1-0.4-0.2-0.5
						c0-0.1,0-0.2,0-0.3c0,0,0-0.1,0-0.1c0,0-0.1,0.1-0.1,0.2c0,0-0.2,0-0.2,0c-0.1,0,0,0,0.1,0.1c0.1,0.1,0.2,0.2,0.2,0.3
						c0,0.1,0.1,0.5,0.1,0.6c0,0.1,0,0.2,0.1,0.4c0.1,0.2,0.2,0.4,0.3,0.5C15.3,14.6,15.4,14.6,15.4,14.5z"/>
					<path class="st1" d="M18,13.3c0-0.1,0-0.1,0-0.2l0,0c-0.1,0-0.2,0-0.3-0.2c-0.3,0.1-0.5-0.1-0.5-0.3c-0.2,0-0.4-0.1-0.5-0.3
						c-0.1,0-0.2-0.1-0.3-0.3c-0.3,0-0.4-0.2-0.2-0.5c-0.2-0.1-0.3-0.3-0.1-0.5c-0.3-0.1-0.3-0.3,0-0.4c-0.2-0.2-0.1-0.4,0.3-0.4
						c-0.1-0.3,0.2-0.5,0.5-0.3l0-0.1c-0.3-0.3-0.5-0.8-0.6-1.2c0,0,0,0,0,0c0,0,0,0-0.1,0c-0.1,0.2-0.2,0.4-0.1,0.6
						c0,0.2,0.1,0.4,0.2,0.6c0,0.1,0.1,0.1,0.1,0.2c-0.2-0.2-0.4-0.5-0.5-0.7c0,0,0,0,0-0.1c0,0,0,0-0.1,0c0,0-0.1,0.1-0.1,0.1
						c0,0.2,0,0.4,0.1,0.5c0.1,0.2,0.2,0.3,0.3,0.4c0,0,0,0,0,0c-0.2-0.2-0.3-0.3-0.5-0.6c0,0,0,0,0,0c0,0,0,0,0,0c0,0,0,0,0,0
						c0,0.1,0,0.2,0,0.4c0.1,0.1,0.1,0.2,0.2,0.3c0,0.1,0.1,0.1,0.1,0.2c-0.2-0.1-0.3-0.2-0.4-0.4c0,0,0-0.1-0.1,0c0,0,0,0,0,0.1
						c0,0.1,0,0.2,0.1,0.4c0.1,0.1,0.2,0.2,0.2,0.3c0,0,0.1,0.1,0.1,0.1c-0.1,0-0.3-0.1-0.4-0.2c0,0,0-0.1-0.1-0.1c0,0,0,0,0,0.1
						c0,0.2,0.1,0.4,0.3,0.6c0.1,0,0.1,0.1,0.2,0.1c-0.1,0-0.2,0-0.3-0.1c0,0-0.1,0-0.1-0.1c0,0-0.1,0-0.1,0c0,0,0,0.1,0,0.1
						c0,0.2,0.2,0.3,0.3,0.4c0.1,0,0.1,0,0.2,0.1c-0.1,0-0.1,0.1-0.2,0c-0.1,0-0.1,0-0.2,0c0,0-0.1,0.1,0,0.1c0,0,0.1,0.1,0.1,0.1
						c0.1,0.1,0.3,0.1,0.4,0.1c0,0,0,0,0.1,0c0,0,0,0,0,0c0,0,0,0-0.1,0c0,0-0.1,0-0.1,0c0,0-0.1,0-0.1,0.1c0,0.1,0,0.1,0,0.2
						c0.1,0.1,0.2,0.1,0.3,0.1c0.1,0,0.2,0,0.4,0c0,0-0.1,0.1-0.1,0.1c-0.1,0-0.1,0-0.2,0c-0.1,0-0.1,0-0.1,0.1
						c0,0.1,0.1,0.1,0.1,0.1c0.1,0.1,0.3,0.1,0.5,0.1c0.1,0,0.1,0,0.2,0c-0.1,0-0.1,0-0.2,0.1c0,0-0.1,0-0.1,0.1c0,0,0,0.1,0,0.1
						c0,0,0.1,0,0.1,0.1c0.1,0,0.2,0,0.3-0.1c0,0,0,0,0.1,0c0,0,0,0,0,0.1c0,0,0,0,0,0c0,0-0.1,0-0.1,0c0,0-0.1,0-0.1,0
						c0,0-0.1,0.1-0.1,0.1c0,0,0,0.1,0.1,0.1c0,0,0.1,0,0.1,0c0.2,0,0.4,0,0.6-0.1c0,0.1,0,0.1-0.1,0.1c0,0-0.1,0-0.1,0.1
						c0,0-0.1,0.1-0.1,0.1c0,0,0,0.1,0,0.1c0,0,0.1,0,0.1,0c0.2,0,0.4,0,0.6-0.2l0,0C18,13.4,18,13.3,18,13.3z"/>
					<path class="st1" d="M19,10.6c-0.1-0.1-0.1-0.3-0.1-0.3s0,0.1-0.1,0.2C18.8,10.5,18.9,10.6,19,10.6z"/>
					<path class="st1" d="M19.3,10.1c0,0.2,0,0.5-0.1,0.6c0.2,0,0.4,0,0.7-0.2l-0.2-0.3C19.5,10.2,19.3,10.1,19.3,10.1
						c0.1,0.1,0.3,0.3,0.3,0.3C19.4,10.3,19.3,10.1,19.3,10.1z"/>
					<path class="st1" d="M17.9,8.3c0.1-0.1,0.3,0,0.4,0.1c0.1,0.1,0.4,0.1,0.5,0.1c0.1,0,0.2-0.2,0.3-0.3c0-0.1,0-0.1,0-0.1
						c0,0-0.3,0.2-0.4,0.1c0.1,0,0.1,0.1,0.1,0.1c-0.3-0.3-0.8-0.4-0.9-0.1C17.7,8.4,17.9,8.3,17.9,8.3z"/>
					<path class="st1" d="M17.9,8.5C17.9,8.5,18,8.5,17.9,8.5c0.1,0.1,0.1,0,0.1,0C18.1,8.4,18,8.4,17.9,8.5
						C18,8.4,17.9,8.4,17.9,8.5z"/>
					<polygon class="st1" points="19,7.7 18.9,7.8 19.1,7.9 19.2,7.8 					"/>
					<path class="st1" d="M19.5,7.8C19.6,7.8,19.6,7.8,19.5,7.8c0.1-0.1,0-0.2,0-0.2C19.5,7.6,19.4,7.7,19.5,7.8
						C19.4,7.8,19.5,7.8,19.5,7.8z"/>
					<path class="st1" d="M19.2,8c0.1,0,0.1-0.1,0.8-0.1c0.7,0,0.8,0.1,0.8,0.1c0.1,0,0.2,0,0-0.1c-0.2-0.1,0-0.2,0.1-0.2
						c0.1,0,0.2-0.1-0.2-0.1c-0.3,0-0.4,0-0.7,0c-0.3,0-0.4,0-0.7,0c-0.4,0-0.3,0.1-0.2,0.1c0.1,0,0.3,0.1,0.1,0.2
						C19,8,19.1,8,19.2,8z M20.5,7.6c0.1,0,0.1,0.1,0.1,0.1c0,0.1-0.1,0.1-0.1,0.1s-0.1-0.1-0.1-0.1C20.3,7.7,20.4,7.6,20.5,7.6z
						 M20,7.6c0,0,0.2,0.1,0.2,0.1L20,7.9l-0.2-0.1C19.8,7.7,20,7.6,20,7.6z M19.5,7.6c0.1,0,0.1,0.1,0.1,0.1c0,0.1-0.1,0.1-0.1,0.1
						c-0.1,0-0.1-0.1-0.1-0.1C19.4,7.7,19.5,7.6,19.5,7.6z"/>
					<path class="st1" d="M19.4,8.1C19.6,8.1,20,8.1,20,8.1s0.4,0,0.6-0.1c-0.1,0-0.2,0-0.6,0C19.6,8,19.5,8,19.4,8.1z"/>
					<path class="st1" d="M20,8.2c0.3,0,0.5,0,0.8-0.1l-0.2,0C20.6,8.1,20.4,8.2,20,8.2c-0.4-0.1-0.6-0.1-0.7-0.2l-0.2,0
						C19.5,8.3,19.7,8.2,20,8.2z"/>
					<path class="st1" d="M19.3,7.4c-0.1,0.1-0.2,0-0.3,0c0,0.1-0.1,0.1-0.1,0.1C19.1,7.6,19.3,7.6,19.3,7.4z"/>
					<path class="st1" d="M19.5,7.5l0.4,0c0,0,0.1,0,0.1-0.1c-0.1,0.1-0.2,0.1-0.3,0c-0.1,0.1-0.2,0.1-0.3,0
						C19.4,7.5,19.5,7.5,19.5,7.5z"/>
					<path class="st1" d="M18.9,7.4C18.9,7.4,18.9,7.4,18.9,7.4C18.9,7.4,18.9,7.4,18.9,7.4c-0.1,0-0.1-0.1-0.1-0.1c0,0,0,0-0.1,0
						c0,0,0,0,0,0.1c0,0,0,0,0,0C18.8,7.5,18.8,7.5,18.9,7.4C18.9,7.5,18.9,7.5,18.9,7.4C18.9,7.5,18.9,7.4,18.9,7.4z"/>
					<path class="st1" d="M19.2,7.3C19.2,7.3,19.1,7.3,19.2,7.3C19.1,7.3,19.1,7.3,19.2,7.3C19.1,7.3,19.1,7.4,19.2,7.3
						C19.1,7.4,19.1,7.4,19.2,7.3c-0.1,0.1,0,0.1,0,0.1c0,0,0,0,0,0c0,0,0,0,0,0C19.2,7.4,19.2,7.4,19.2,7.3
						c0.1,0.1,0.1,0.1,0.1,0.1C19.3,7.4,19.3,7.4,19.2,7.3C19.2,7.3,19.2,7.3,19.2,7.3C19.2,7.3,19.2,7.3,19.2,7.3z"/>
					<path class="st1" d="M19.3,7.4C19.3,7.4,19.3,7.4,19.3,7.4C19.3,7.4,19.3,7.4,19.3,7.4C19.3,7.4,19.3,7.4,19.3,7.4
						C19.3,7.3,19.3,7.3,19.3,7.4C19.3,7.3,19.3,7.3,19.3,7.4C19.3,7.3,19.3,7.4,19.3,7.4z"/>
					<path class="st1" d="M19.4,7.4C19.4,7.4,19.4,7.4,19.4,7.4c0.1,0,0.1,0,0.1,0c0,0,0,0,0,0c0,0,0,0,0,0
						C19.5,7.3,19.5,7.3,19.4,7.4C19.5,7.3,19.5,7.3,19.4,7.4C19.4,7.3,19.4,7.3,19.4,7.4C19.4,7.3,19.4,7.3,19.4,7.4
						C19.4,7.3,19.4,7.3,19.4,7.4C19.4,7.4,19.4,7.4,19.4,7.4z"/>
					<path class="st1" d="M19.3,7.2C19.3,7.2,19.3,7.2,19.3,7.2C19.2,7.1,19.2,7.1,19.3,7.2C19.2,7.1,19.2,7.2,19.3,7.2
						C19.2,7.2,19.2,7.2,19.3,7.2c-0.1,0.1,0,0.1,0,0.1c0,0,0,0,0.1,0C19.3,7.3,19.3,7.3,19.3,7.2C19.3,7.2,19.3,7.2,19.3,7.2
						C19.3,7.2,19.3,7.2,19.3,7.2z"/>
					<path class="st1" d="M18.6,7.5C18.6,7.5,18.6,7.5,18.6,7.5C18.7,7.5,18.7,7.5,18.6,7.5C18.7,7.5,18.7,7.4,18.6,7.5
						C18.7,7.4,18.6,7.4,18.6,7.5C18.6,7.4,18.6,7.4,18.6,7.5C18.6,7.4,18.6,7.5,18.6,7.5C18.6,7.5,18.6,7.5,18.6,7.5z"/>
					<path class="st1" d="M18.7,7.4C18.7,7.4,18.7,7.4,18.7,7.4C18.7,7.3,18.7,7.3,18.7,7.4c0-0.1,0-0.1-0.1-0.1c0,0,0,0,0,0
						c0,0,0,0,0,0c0,0,0,0,0,0.1c0,0,0,0.1,0.1,0.1C18.6,7.4,18.6,7.4,18.7,7.4C18.7,7.4,18.7,7.4,18.7,7.4z"/>
					<path class="st1" d="M19.9,7.3C19.9,7.3,19.9,7.3,19.9,7.3C19.9,7.3,19.9,7.3,19.9,7.3c-0.1,0-0.1,0-0.1,0c0,0-0.1,0-0.1,0
						c0,0,0,0,0,0c0,0,0.1,0,0.1,0c0,0,0,0,0,0c0,0,0,0,0,0C19.9,7.4,19.9,7.4,19.9,7.3C19.9,7.3,19.9,7.3,19.9,7.3z"/>
					<path class="st1" d="M20,7.3c0.2,0,0-0.1,0-0.2C20,7.2,19.8,7.3,20,7.3z"/>
					<path class="st1" d="M18.6,7c0,0-0.1,0-0.1,0.1c0,0.1,0.2,0.1,0.2,0.2c0,0,0-0.2,0-0.2c0-0.1,0-0.2,0-0.3
						c0.1-0.1,0.3-0.3,0.4-0.3c0,0,0.1-0.1,0.2-0.2c0,0-0.1,0-0.2,0c0,0.1-0.1,0.1-0.2,0.1c0,0-0.1,0.1-0.2,0.1c0,0,0,0,0,0.1
						c0,0.1-0.1,0.1-0.1,0.1s-0.1,0-0.1,0.1C18.5,6.9,18.6,6.9,18.6,7C18.6,7,18.6,7,18.6,7z"/>
					<path class="st1" d="M18.5,7C18.5,7,18.5,7,18.5,7c0.1-0.1,0-0.1,0-0.1C18.5,6.9,18.4,6.9,18.5,7C18.4,7,18.5,7,18.5,7z"/>
					<path class="st1" d="M18.7,6.6C18.7,6.6,18.7,6.6,18.7,6.6C18.7,6.5,18.7,6.5,18.7,6.6C18.6,6.6,18.6,6.6,18.7,6.6
						C18.6,6.7,18.7,6.7,18.7,6.6z"/>
					<path class="st1" d="M19.1,6.4C19.1,6.4,19.1,6.4,19.1,6.4C19.1,6.3,19,6.3,19.1,6.4C19,6.3,19,6.4,19.1,6.4
						C19,6.4,19,6.4,19.1,6.4z"/>
					<path class="st1" d="M19.5,6.4C19.6,6.4,19.6,6.3,19.5,6.4c0.1-0.1,0-0.1,0-0.1C19.5,6.2,19.5,6.3,19.5,6.4
						C19.5,6.3,19.5,6.4,19.5,6.4z"/>
					<circle class="st1" cx="19.2" cy="6.9" r="0.1"/>
					<path class="st1" d="M19,7c0,0.1,0,0.2,0.2,0.3c0,0,0-0.2,0-0.2c0.1,0,0.2,0.1,0.2,0.1s0,0,0,0c0-0.1-0.1-0.2,0-0.4
						c0-0.2,0.2-0.4,0.3-0.4c0.1-0.1,0.1-0.2,0.1-0.2c0-0.1-0.2,0-0.2,0c0.3,0.2-0.2,0.3-0.1,0.1c0,0,0,0-0.2,0.1
						C19.1,6.6,19,6.9,19,7z M19.2,7C19.1,7,19,6.9,19,6.9c0-0.1,0.1-0.1,0.1-0.1s0.1,0.1,0.1,0.1C19.3,6.9,19.2,7,19.2,7z"/>
					<path class="st1" d="M19.8,6.7c0,0.2-0.1,0.4,0.1,0.6c0,0,0.1-0.2,0.1-0.2s0.1,0.2,0.1,0.2c0.2-0.1,0.1-0.3,0.1-0.6
						c0-0.2,0-0.5,0-0.5L20,6.2l-0.2-0.1C19.8,6.2,19.8,6.4,19.8,6.7z M20,6.3c0.1,0,0.1,0,0.1,0.1c0,0.1,0,0.1-0.1,0.1
						s-0.1,0-0.1-0.1C19.9,6.3,19.9,6.3,20,6.3z M20,6.5c0.1,0,0.1,0.1,0.1,0.1S20.1,6.8,20,6.8s-0.1-0.1-0.1-0.1S19.9,6.5,20,6.5z
						 M20,6.8c0.1,0,0.1,0.1,0.1,0.1C20.1,7,20.1,7,20,7S19.9,7,19.9,6.9C19.9,6.8,19.9,6.8,20,6.8z"/>
					<path class="st1" d="M18.9,14.6c-0.1,0-0.2,0.1-0.3,0.3C18.6,14.8,18.7,14.7,18.9,14.6c-0.2-0.1-0.2-0.1-0.3-0.1
						c0,0-0.1,0-0.1-0.1c0,0-0.1,0.2-0.2,0.2c0.1-0.1,0.1-0.2,0.2-0.2c-0.1-0.1-0.1-0.1-0.2-0.2c-0.1,0.4-0.5,0.6-0.7,0.6
						c0,0,0.2,0.1,0.6,0c0,0-0.2,0.1-0.5,0.1c0.2,0.2,0.6,0.1,0.6,0.1c0.1,0,0.1,0,0,0.1c-0.1,0.3,0.1,0.6,0.1,0.6l0.1-0.4l-0.1,0.4
						c0,0,0.6-0.7,0.7-0.8C19,14.7,19,14.7,18.9,14.6z"/>
					<path class="st1" d="M20.9,15.3c-0.1-0.1-0.2-0.2-0.3-0.3c0,0,0,0,0,0c-0.3,0.1-0.5,0.3-0.6,0.4c-0.1-0.1-0.3-0.3-0.6-0.4
						c0,0,0,0,0,0c-0.1,0.1-0.2,0.2-0.3,0.3c-0.1,0.1-0.2,0.2-0.2,0.3c0,0.1,0,0.1,0,0.2c0,0.1,0.1,0.1,0.1,0.1
						c0.1,0,0.1-0.1,0.1-0.1c0-0.1,0.1-0.1,0.1-0.2c0,0.1,0,0.2-0.1,0.3c0,0.1,0,0.1,0,0.2c0,0.1,0.1,0.1,0.1,0.1
						c0.1,0,0.1-0.1,0.1-0.2c0-0.1,0-0.1,0.1-0.2c0,0,0,0,0,0c0,0,0,0,0,0.1c-0.1,0.1-0.1,0.3-0.1,0.4c0,0,0,0.1,0,0.1
						c0,0,0.1,0.1,0.1,0c0.1,0,0.1-0.1,0.1-0.1c0-0.1,0.1-0.2,0.1-0.3c0,0.1,0,0.2,0,0.3c0,0,0,0.1,0,0.1c0,0,0.1,0.1,0.1,0.1
						c0,0,0.1,0,0.1-0.1c0,0,0-0.1,0-0.1c0-0.1,0-0.2,0-0.3c0,0.1,0.1,0.2,0.1,0.3c0,0,0,0.1,0.1,0.1c0,0,0.1,0,0.1,0s0-0.1,0-0.1
						c0-0.1,0-0.3-0.1-0.4c0,0,0-0.1,0-0.1c0,0,0,0,0,0c0,0.1,0,0.1,0.1,0.2c0,0.1,0.1,0.2,0.1,0.2c0.1,0,0.1-0.1,0.1-0.1
						c0-0.1,0-0.1,0-0.2c0-0.1,0-0.2-0.1-0.3c0,0.1,0.1,0.1,0.1,0.2c0,0.1,0.1,0.1,0.1,0.1c0.1,0,0.1,0,0.1-0.1c0-0.1,0-0.1,0-0.2
						C21,15.4,20.9,15.3,20.9,15.3z M19,15.7c0-0.1,0.1-0.3,0.2-0.3C19.2,15.4,19.1,15.6,19,15.7z M19.5,15.6c0,0.1-0.1,0.3-0.1,0.3
						S19.4,15.6,19.5,15.6C19.4,15.6,19.5,15.6,19.5,15.6z M19.7,15.8c0,0,0,0.1-0.1,0.3C19.7,16.1,19.7,15.9,19.7,15.8
						C19.7,15.7,19.8,15.8,19.7,15.8z M20,16.1c-0.1-0.2,0-0.3,0-0.3C20,15.8,20,15.9,20,16.1z M20.3,15.8
						C20.2,15.8,20.3,15.7,20.3,15.8c0.1,0.1,0.1,0.3,0.1,0.3C20.3,15.9,20.3,15.8,20.3,15.8z M20.5,15.6
						C20.5,15.6,20.6,15.6,20.5,15.6c0.1,0,0.1,0.3,0.1,0.3S20.6,15.7,20.5,15.6z M20.7,15.4c0.1,0.1,0.2,0.2,0.2,0.3
						C20.9,15.6,20.8,15.4,20.7,15.4z"/>
					<path class="st1" d="M18.9,17c0.1-0.1,0.2-0.2,0.3-0.2c-0.1,0-0.1,0-0.1-0.1c0,0,0-0.1,0-0.2c0,0,0-0.1,0-0.2
						c0,0-0.1,0-0.1,0.1c0,0-0.1,0-0.1,0c0,0,0,0,0,0c0,0,0,0,0,0c0,0.1-0.1,0.2-0.1,0.2c-0.1,0.1-0.2,0.1-0.3,0.2
						c-0.1,0-0.1,0.1-0.2,0.1c0,0,0,0,0,0c0,0,0,0.1,0,0.1c0.1,0.1,0.3,0.1,0.4,0.1C18.7,17.2,18.8,17.1,18.9,17z M18.8,16.8
						C18.8,16.7,18.9,16.7,18.8,16.8c0.1,0-0.1,0.2-0.3,0.2C18.5,17,18.7,16.9,18.8,16.8z"/>
					<path class="st1" d="M19.7,17.3c0,0,0.1-0.1,0.1-0.2c0,0,0-0.1,0-0.1c0,0,0-0.1,0-0.1c0-0.1,0-0.1,0-0.2
						c-0.1,0.2-0.3,0.4-0.5,0.6c-0.1,0.1-0.2,0.1-0.2,0.2c-0.1,0.1-0.1,0.2-0.1,0.2c0,0,0,0.1,0,0.1c0,0,0,0,0.1,0
						c0.1,0,0.2-0.1,0.2-0.1c0.1,0,0.2-0.1,0.3-0.1C19.6,17.5,19.6,17.4,19.7,17.3z M19.1,17.6c0.1,0,0.3-0.2,0.3-0.2
						c0.1-0.1,0.1-0.1,0.1,0C19.5,17.4,19.3,17.5,19.1,17.6z"/>
					<path class="st1" d="M19.4,17c0,0-0.1,0-0.1,0c0,0,0-0.1,0-0.1c0,0,0-0.1,0-0.1c0,0,0-0.1,0-0.1c0,0-0.1,0.1-0.1,0.1
						c0,0-0.1,0.1-0.1,0.1C19,17,18.9,17,18.8,17.1c-0.1,0.1-0.2,0.2-0.4,0.3c0,0-0.1,0.1-0.1,0.1c0,0,0.1,0.1,0.1,0.1
						c0,0,0.1,0,0.1,0C18.9,17.5,19.2,17.3,19.4,17z M19.2,17.1c0,0.1-0.2,0.2-0.4,0.2C18.9,17.3,19.1,17.2,19.2,17.1
						C19.2,17,19.2,17,19.2,17.1z"/>
					<path class="st1" d="M20,17.4C20,17.4,20,17.4,20,17.4c0-0.1-0.1-0.2-0.1-0.2c0,0,0,0-0.1,0.1c0,0,0,0.1-0.1,0.1
						c0,0.1-0.1,0.1-0.2,0.2c-0.1,0-0.1,0.1-0.2,0.1c-0.1,0.1-0.1,0.3,0,0.4c0,0,0,0,0.1,0c0,0,0,0,0.1-0.1c0.1-0.1,0.2-0.1,0.3-0.2
						C19.8,17.8,19.9,17.6,20,17.4z M19.4,17.9c0-0.2,0.2-0.2,0.3-0.4C19.7,17.8,19.5,17.8,19.4,17.9z"/>
					<path class="st1" d="M15.3,10.7c0-0.1-0.1-0.2-0.1-0.2c-0.2-0.1-0.3-0.3-0.4-0.4c0.1,0.1,0.3,0.3,0.4,0.4
						c0-0.1,0.1-0.1,0.1-0.1c-0.3-0.2-0.7-0.7-0.9-1.1C14.4,9.8,14.9,10.6,15.3,10.7z"/>
					<path class="st1" d="M15.5,11.7c0,0-0.1-0.1,0.1-0.2c-0.2,0-0.4-0.1-0.6-0.2c0.2,0.1,0.5,0.1,0.7,0.2c0,0,0,0,0,0
						c-0.2-0.1-0.2-0.2-0.2-0.2c-0.4,0-1-0.4-1.1-0.6C14.4,11.3,15.2,11.7,15.5,11.7z"/>
					<path class="st1" d="M15.4,11.2c0-0.1,0-0.1,0-0.2c-0.2-0.1-0.4-0.2-0.6-0.4c0.2,0.1,0.4,0.3,0.6,0.3c0-0.1,0.1-0.1,0.2,0
						l-0.1-0.1c-0.6-0.2-1-0.7-1.1-0.8C14.3,10.6,15,11.2,15.4,11.2z"/>
					<path class="st1" d="M15.4,10.3c0-0.1-0.1-0.2-0.1-0.3c-0.1-0.2-0.3-0.4-0.3-0.6c0.1,0.2,0.2,0.4,0.4,0.6c0-0.1,0.1-0.1,0.2,0
						c-0.1-0.3-0.4-0.3-0.7-1.6C14.5,8.8,14.9,10,15.4,10.3z"/>
					<path class="st1" d="M15.9,8.8c-0.1-0.3-0.1-0.5-0.1-0.8C15.8,8.3,15.8,8.5,15.9,8.8c0-0.2,0.1-0.3,0.2-0.3
						c-0.1-0.3-0.3-1.4-0.2-1.5c-0.4,0.4-0.4,1.7,0,2.2C15.9,9,15.9,8.9,15.9,8.8z"/>
					<path class="st1" d="M15.5,9.4c-0.1-0.3-0.2-0.5-0.2-0.8C15.3,8.9,15.4,9.1,15.5,9.4c0.1,0,0.1,0,0.1,0.1c-0.1-0.3,0-0.5,0-0.5
						c-0.2-0.5-0.4-1.3-0.3-1.6C15,7.7,15.1,9,15.4,9.6C15.4,9.5,15.5,9.4,15.5,9.4z"/>
					<path class="st1" d="M17.2,14.2c0.4,0,0.7-0.3,0.8-0.7c0,0-0.1,0.1-0.3,0.2c0,0.1-0.1,0.1-0.1,0.2c-0.1,0.1-0.2,0.1-0.2,0.2
						c0.1,0,0.2-0.1,0.2-0.2c0,0,0.1-0.1,0.1-0.1c-0.1,0-0.2,0-0.2,0C17.2,14,16.7,14.2,17.2,14.2z"/>
					<path class="st1" d="M15.9,12c0,0-0.2-0.1-0.3-0.1c-0.4,0-1-0.3-1.2-0.4c0.1,0.5,0.7,0.8,1.3,0.7c0,0,0-0.1,0-0.1
						c-0.2,0-0.4-0.1-0.7-0.1c0.2,0.1,0.5,0.1,0.7,0.1C15.8,12,15.9,12,15.9,12z"/>
					<path class="st1" d="M17.3,13.7c0,0-0.1-0.1-0.1-0.2c-0.1,0.1-0.3,0.2-0.4,0.3c0.2-0.1,0.3-0.2,0.4-0.4c0,0,0,0,0,0
						c0,0-0.1,0-0.2,0c0,0-0.3,0.3-0.8,0.4C16.4,14.1,17.1,14.1,17.3,13.7z"/>
					<path class="st1" d="M18.1,13.9L18,14.1L18.1,13.9c0-0.1-0.1-0.2-0.1-0.3c0,0.1-0.1,0.3-0.2,0.4c-0.2,0.2-0.1,0.2,0,0.2
						c0.1,0,0.3-0.1,0.3-0.2C18.1,14,18.1,14,18.1,13.9z"/>
					<path class="st1" d="M16.9,13.4c0,0-0.2-0.1-0.2-0.2c-0.1,0.1-0.3,0.2-0.4,0.2c0.2-0.1,0.3-0.2,0.4-0.3c0,0,0,0,0,0
						c0,0-0.1,0-0.2-0.1c0,0-0.5,0.4-0.9,0.4C15.6,13.5,16,13.9,16.9,13.4z"/>
					<path class="st1" d="M16.1,12.7c-0.1-0.1-0.1-0.1-0.1-0.2c-0.2,0-0.4,0-0.6,0c0.2,0,0.4,0,0.6-0.1c0,0,0,0,0,0
						c-0.2,0-0.3-0.1-0.3-0.1s-0.7,0.1-1.1-0.1C14.9,12.7,15.7,12.8,16.1,12.7z"/>
					<path class="st1" d="M16.5,13c-0.1-0.1,0-0.2,0.1-0.2c0,0,0,0-0.1,0c-0.1,0.1-0.2,0.1-0.3,0.2C16.2,13,16,13,15.9,13
						c0.1,0,0.2,0,0.3-0.1c0.1,0,0.1-0.1,0.2-0.1c-0.1,0-0.2,0-0.2,0c-0.2,0.2-0.9,0.2-1.1,0.1C15.1,13.2,16,13.4,16.5,13z"/>
					<path class="st1" d="M18.1,9c-0.1,0.2-0.4,0.1-0.4,0.1c0.1,0.2,0.3,0.2,0.6,0.1c0.2,0.1,0.2,0.4,0.2,0.4c0.1,0,0.1-0.2,0.1-0.2
						c0.1,0.1,0.1,0.5,0.1,0.6c0.1,0,0.2-0.1,0.2-0.1c0,0.2,0.1,0.7,0.3,0.7c0.1-0.3,0.1-0.6,0.1-0.8c0.3,0.3,0.6,0.3,0.7,0.1
						c-0.3-0.1-0.5-0.5-0.5-0.5c0.2,0,0.2-0.1,0.2-0.1c-0.2,0-0.5-0.3-0.5-0.4c0.1,0,0.1-0.1,0.1-0.1c-0.1,0-0.3-0.3-0.3-0.3
						c-0.3,0.1-0.7-0.1-0.7-0.1c0,0.2-0.3,0.2-0.3,0c-0.3-0.3-0.8-0.1-0.6,0.3C17.5,8.4,17.7,8.6,18.1,9z M19.3,9.6
						c0,0.1,0.2,0.2,0.3,0.2C19.3,9.8,19.3,9.7,19.3,9.6C19.2,9.6,19.3,9.6,19.3,9.6z M19,9.9C19,9.8,19,9.8,19,9.9
						c0.1,0,0.1,0.1,0.1,0.4C19,10.2,19,10,19,9.9z M18.5,9c0,0,0.2,0.2,0.3,0.2c0.1,0-0.1-0.3-0.2-0.4c0.3,0.2,0.3,0.6,0.3,0.6
						L18.5,9L18.5,9z"/>
					<path class="st1" d="M24.1,8.7c0.1-0.2,0.1-0.5,0.1-0.7C24.2,8.3,24.2,8.5,24.1,8.7c0,0.2,0,0.3,0,0.4c0.4-0.5,0.4-1.8,0-2.2
						c0,0.1-0.1,1.2-0.2,1.5C24,8.5,24,8.6,24.1,8.7z"/>
					<path class="st1" d="M24.6,15.3c0,0,0.1,0,0.1,0c0,0,0-0.1-0.1-0.2C24.7,15.3,24.6,15.3,24.6,15.3z"/>
					<path class="st1" d="M24.3,11c0.2-0.1,0.3-0.3,0.3-0.6c0,0,0-0.1,0-0.1c0,0,0,0-0.1,0.1c-0.1,0.1-0.2,0.2-0.4,0.2
						c0,0,0.1-0.1,0.1-0.1c0.1-0.1,0.2-0.2,0.2-0.3c0.1-0.1,0.1-0.2,0.1-0.4c0,0,0-0.1,0-0.1c0,0-0.1,0-0.1,0
						c-0.1,0.2-0.3,0.3-0.4,0.4c0-0.1,0.1-0.1,0.1-0.2c0.1-0.1,0.2-0.2,0.2-0.3c0.1-0.1,0.1-0.2,0-0.4c0,0,0,0,0,0c0,0,0,0,0,0
						c0,0,0,0,0,0c-0.1,0.2-0.3,0.4-0.5,0.6c0,0,0,0,0,0c0.1-0.1,0.2-0.3,0.3-0.4c0.1-0.2,0.1-0.3,0.1-0.5c0,0,0-0.1-0.1-0.1
						c0,0,0,0-0.1,0c0,0,0,0,0,0.1c-0.1,0.3-0.3,0.5-0.5,0.7c0-0.1,0.1-0.1,0.1-0.2C23.9,9.5,24,9.3,24,9.1c0-0.2,0-0.4-0.1-0.6
						c0,0,0,0-0.1,0c0,0,0,0,0,0c-0.1,0.5-0.3,0.9-0.6,1.2l0,0.1c0.3-0.3,0.5,0,0.5,0.3c0.3-0.1,0.5,0.2,0.3,0.4
						c0.3,0.1,0.2,0.4,0,0.4c0.2,0.2,0.1,0.3-0.1,0.5c0.1,0.3,0,0.4-0.2,0.5c0,0.2-0.2,0.3-0.3,0.3c0,0.2-0.2,0.3-0.5,0.3
						c0,0.2-0.2,0.4-0.5,0.3c-0.1,0.2-0.2,0.2-0.3,0.2l0,0c0,0.1,0,0.1,0,0.2c0,0,0,0.1,0,0.1l0,0c0.1,0.2,0.4,0.2,0.6,0.2
						c0,0,0.1,0,0.1,0c0,0,0-0.1,0-0.1c0-0.1,0-0.1-0.1-0.1c0,0-0.1,0-0.1-0.1c0,0-0.1-0.1-0.1-0.1c0.2,0.1,0.4,0.2,0.6,0.1
						c0,0,0.1,0,0.1,0c0,0,0.1,0,0.1-0.1c0,0,0-0.1-0.1-0.1c0,0-0.1,0-0.1,0c0,0-0.1,0-0.1,0c0,0,0,0,0,0c0,0,0,0,0-0.1
						c0,0,0,0,0.1,0c0.1,0.1,0.2,0.1,0.3,0.1c0,0,0.1,0,0.1-0.1c0,0,0-0.1,0-0.1c0,0-0.1-0.1-0.1-0.1c-0.1,0-0.1,0-0.2-0.1
						c0,0,0.1,0,0.2,0c0.2,0,0.3,0,0.5-0.1c0.1,0,0.1-0.1,0.1-0.1c0-0.1-0.1-0.1-0.1-0.1c-0.1,0-0.1,0-0.2,0c0,0-0.1,0-0.1-0.1
						c0.1,0,0.2,0,0.4,0c0.1,0,0.2,0,0.3-0.1c0,0,0.1-0.1,0-0.2c0,0-0.1-0.1-0.1-0.1c0,0-0.1,0-0.1,0c0,0,0,0-0.1,0c0,0,0,0,0,0
						c0,0,0,0,0.1,0c0.1,0,0.3-0.1,0.4-0.1c0,0,0.1-0.1,0.1-0.1s0-0.1,0-0.1c-0.1,0-0.1,0-0.2,0c-0.1,0-0.1,0-0.2,0
						c0.1,0,0.1,0,0.2-0.1c0.2-0.1,0.3-0.2,0.3-0.4c0,0,0-0.1,0-0.1c0,0-0.1,0-0.1,0c0,0-0.1,0-0.1,0.1c-0.1,0.1-0.2,0.1-0.3,0.1
						C24.2,11.1,24.3,11.1,24.3,11z"/>
					<path class="st1" d="M24.4,9c0,0,0.1,0.2,0,0.5c0,0,0.1-0.1,0.1-0.1c0.1-0.3,0.2-0.5,0.2-0.8c0,0.3-0.1,0.5-0.2,0.8
						c0,0,0.1,0.1,0.1,0.2C24.9,9,25,7.7,24.7,7.4C24.7,7.7,24.6,8.5,24.4,9z"/>
					<path class="st1" d="M25.7,10.8c-0.2,0.2-0.8,0.5-1.1,0.6c0,0-0.1,0.1-0.2,0.2c0,0,0,0,0,0c0.2,0,0.5-0.1,0.7-0.2
						c-0.2,0.1-0.4,0.2-0.6,0.2c0.1,0.1,0.1,0.2,0.1,0.2C24.8,11.7,25.6,11.3,25.7,10.8z"/>
					<path class="st1" d="M24.5,10.9L24.4,11c0.1-0.1,0.2,0,0.2,0c0.2-0.1,0.4-0.2,0.6-0.3c-0.2,0.2-0.4,0.3-0.6,0.4
						c0,0,0,0.1,0,0.2c0.4-0.1,1.1-0.6,1-1.1C25.5,10.2,25.1,10.7,24.5,10.9z"/>
					<path class="st1" d="M24.6,10.4c0,0,0.1,0,0.1,0.1c0.2-0.1,0.3-0.2,0.4-0.4c-0.1,0.2-0.3,0.3-0.4,0.4c0,0.1,0,0.1-0.1,0.2
						c0.4-0.2,1-0.9,0.9-1.5C25.4,9.6,25,10.2,24.6,10.4z"/>
					<path class="st1" d="M24.9,15.4C25,15.4,25,15.3,24.9,15.4c0.1-0.1,0-0.1,0-0.1S24.9,15.3,24.9,15.4
						C24.9,15.3,24.9,15.4,24.9,15.4z"/>
					<path class="st1" d="M24.7,9.9C24.8,9.7,25,9.5,25,9.3C25,9.6,24.8,9.8,24.7,9.9c0,0.1,0,0.2-0.1,0.3c0.5-0.3,0.9-1.4,0.6-1.9
						c-0.3,1.4-0.6,1.3-0.7,1.6C24.6,9.8,24.7,9.8,24.7,9.9z"/>
					<path class="st1" d="M24.1,15C24.1,15,24,15.1,24.1,15c-0.1,0.1,0,0.1,0,0.1S24.2,15.1,24.1,15C24.2,15.1,24.1,15,24.1,15z"/>
					<path class="st1" d="M21.9,14.8c0.4,0.1,0.6,0,0.6,0c-0.2,0-0.7-0.3-0.7-0.6c-0.1,0.1-0.1,0.1-0.2,0.2c0,0.1,0.1,0.1,0.2,0.2
						c-0.1,0-0.2-0.2-0.2-0.2c0,0-0.1,0.1-0.1,0.1c-0.1,0-0.1,0.1-0.2,0.1c0.1,0.1,0.2,0.2,0.2,0.3c-0.1-0.2-0.2-0.2-0.3-0.3
						c-0.1,0-0.2,0.1-0.2,0.1c0.2,0.1,0.7,0.8,0.7,0.8l-0.1-0.4l0.1,0.4c0,0,0.2-0.3,0.1-0.6c0-0.1,0-0.1,0-0.1c0,0,0.4,0.1,0.6-0.1
						C22.1,14.9,21.9,14.8,21.9,14.8z"/>
					<path class="st1" d="M21.2,17.1C21.1,17,21,17,20.9,16.9c0,0-0.1-0.1-0.1-0.1c0,0-0.1-0.1-0.1-0.1c0,0,0,0.1,0,0.1
						c0,0,0,0.1,0,0.1c0,0,0,0.1,0,0.1s-0.1,0.1-0.1,0c0.2,0.3,0.5,0.4,0.8,0.5c0,0,0.1,0,0.1,0c0,0,0.1,0,0.1-0.1
						c0-0.1,0-0.1-0.1-0.1C21.4,17.3,21.3,17.2,21.2,17.1z M20.8,17.1C20.8,17,20.8,17,20.8,17.1c0.1,0.1,0.3,0.2,0.4,0.2
						C21,17.3,20.8,17.1,20.8,17.1z"/>
					<path class="st1" d="M22.8,15.2c0,0-0.1,0-0.2,0.1c0,0.1,0.3,0.1,0.4,0.1C22.9,15.4,22.8,15.2,22.8,15.2z"/>
					<path class="st1" d="M22.8,15.1c-0.1,0-0.3-0.1-0.3-0.1c-0.1,0.2-0.5,0.2-0.5,0.2s0.1,0.2,0.2,0.3c0,0-0.2-0.3-0.3-0.3
						c-0.1,0,0,0.4,0,0.4s0.5,0.3,0.6,0.4c0.1-0.2-0.1-0.6-0.1-0.7C22.5,15.3,22.8,15.2,22.8,15.1z"/>
					<path class="st1" d="M25.1,15.4c0-0.1,0-0.1,0-0.2c0,0,0-0.1,0-0.1l-0.5-0.1l0.1-0.5c0,0,0,0-0.1,0c-0.1,0-0.2-0.1-0.3-0.1
						c0,0,0,0,0,0L24.3,15l-0.6-0.1c0,0.1-0.1,0.2-0.1,0.2c0,0,0,0,0,0c0,0.1,0,0.1,0.1,0.1c0.1,0,0.8,0.2,0.8,0.2s0-0.1,0.1-0.1
						c0.1,0,0.1-0.1,0.1-0.2c0.1,0,0.1,0,0.1,0.2C24.8,15.5,25,15.5,25.1,15.4z M24.9,15.2c0.1,0,0.1,0,0.1,0.1c0,0.1,0,0.1-0.1,0.1
						s-0.1,0-0.1-0.1C24.8,15.2,24.9,15.2,24.9,15.2z M23.8,15.2c-0.1,0-0.1,0-0.1-0.1s0-0.1,0.1-0.1s0.1,0,0.1,0.1
						S23.9,15.2,23.8,15.2z M24.1,15.2c-0.1,0-0.1,0-0.1-0.1c0-0.1,0-0.1,0.1-0.1c0.1,0,0.1,0,0.1,0.1
						C24.2,15.2,24.2,15.2,24.1,15.2z M24.4,15.3c-0.1,0-0.1,0-0.1-0.1c0-0.1,0-0.1,0.1-0.1s0.1,0,0.1,0.1
						C24.5,15.3,24.5,15.3,24.4,15.3z M24.5,15c-0.1,0-0.1,0-0.1-0.1c0-0.1,0-0.1,0.1-0.1s0.1,0,0.1,0.1C24.6,15,24.5,15,24.5,15z
						 M24.5,14.8c-0.1,0-0.1,0-0.1-0.1c0-0.1,0-0.1,0.1-0.1c0.1,0,0.1,0,0.1,0.1C24.6,14.7,24.6,14.8,24.5,14.8z"/>
					<path class="st1" d="M21.9,17c-0.1,0-0.1-0.1-0.2-0.1c-0.1-0.1-0.2-0.1-0.3-0.2c-0.1-0.1-0.1-0.1-0.1-0.2c0,0,0,0,0,0
						c0,0,0,0,0,0c0,0-0.1,0-0.1,0c0,0-0.1-0.1-0.1-0.1c0,0.1,0,0.1,0,0.2c0,0,0,0.1,0,0.2c0,0-0.1,0.1-0.1,0.1
						C21,16.9,21,17,21.1,17c0.1,0.1,0.2,0.1,0.3,0.2c0.1,0,0.3,0,0.4-0.1C21.9,17.1,21.9,17.1,21.9,17C21.9,17,21.9,17,21.9,17z
						 M21.2,16.8C21.1,16.7,21.2,16.7,21.2,16.8c0.1,0.1,0.3,0.2,0.4,0.2C21.4,17,21.2,16.8,21.2,16.8z"/>
					<path class="st1" d="M24.5,14.6C24.5,14.6,24.5,14.6,24.5,14.6c-0.1,0.1,0,0.1,0,0.1C24.6,14.7,24.6,14.7,24.5,14.6
						C24.6,14.6,24.6,14.6,24.5,14.6z"/>
					<circle class="st1" cx="24.4" cy="15.2" r="0.1"/>
					<path class="st1" d="M23.5,15.2C23.5,15.2,23.6,15.2,23.5,15.2c0.1,0,0.1-0.1,0.1-0.2C23.6,15,23.5,15,23.5,15.2z"/>
					<path class="st1" d="M24.1,12c0.1,0,0.1,0,0.1,0c0.2,0,0.5,0,0.7-0.1c-0.2,0.1-0.4,0.1-0.7,0.1c0,0.1,0,0.1,0,0.1
						c0.6,0,1.2-0.2,1.3-0.7c-0.2,0.2-0.8,0.4-1.2,0.4C24.3,11.9,24.1,12,24.1,12z"/>
					<path class="st1" d="M21.2,16.5c0.1-0.2-0.1-0.6-0.3-0.6c0,0,0,0.1,0,0.1c0,0,0.1,0.1,0.2,0.2c0,0-0.1-0.1-0.2-0.1
						c0,0.1-0.1,0.2-0.2,0.2l0,0l0.1,0.3l-0.2-0.3c0,0,0,0-0.1,0c0,0.1,0,0.2-0.1,0.3l0.1,0.2l-0.1-0.2c-0.1,0-0.2,0-0.2-0.2
						c0,0.2-0.1,0.2-0.2,0.3c0,0.1,0,0.3,0,0.3c0,0,0-0.3,0-0.3c-0.1,0-0.2-0.1-0.2-0.3c0,0.1-0.1,0.2-0.2,0.2l-0.1,0.2l0.1-0.2
						c-0.1,0-0.1-0.1-0.1-0.3c0,0,0,0-0.1,0l-0.2,0.3l0.1-0.3l0,0c-0.1,0-0.2,0-0.2-0.2c-0.1,0-0.2,0.1-0.2,0.1
						c0-0.1,0.1-0.1,0.2-0.2c0,0,0-0.1,0-0.1c-0.3,0-0.5,0.3-0.3,0.6c0.2-0.1,0.2-0.2,0.2-0.2c0,0.4,0,0.6,0.3,0.3
						c0,0.4,0,0.7,0.3,0c0,0.5,0.2,0.6,0.3,0.6c0.1,0,0.3-0.2,0.3-0.6c0.4,0.7,0.4,0.4,0.3,0c0.3,0.3,0.3,0.1,0.3-0.3
						C20.9,16.3,21,16.4,21.2,16.5z"/>
					<path class="st1" d="M25,15.7c0,0.1-0.2,0.3-0.3,0.3c-0.2,0-0.2-0.2-0.1-0.3c0.1-0.1,0.2-0.2,0.1-0.3c-0.1-0.1-0.2-0.1-0.2,0
						c0,0.1-0.1,0.3-0.3,0.4c-0.2,0.1-0.3,0.1-0.4-0.1c-0.1-0.1-0.1-0.3-0.2-0.5c-0.1-0.2-0.2,0-0.2,0.1c0,0.1,0.3,0.4,0.2,0.5
						c0,0.1-0.2,0.1-0.2,0c-0.1-0.1-0.5-0.4-0.5-0.4s-0.2,0-0.4-0.1c0.1,0.2,0.1,0.4,0.1,0.4s0.7,0.4,0.9,0.5
						c0.1,0.1,0.2,0.2,0.6,0.1s0.8-0.2,1-0.3c0.2-0.1,0.3-0.2,0.2-0.3C25.1,15.5,25,15.6,25,15.7z"/>
					<path class="st1" d="M23.8,15C23.8,15,23.8,15,23.8,15c-0.1,0.1,0,0.1,0,0.1C23.9,15.1,23.9,15.1,23.8,15
						C23.9,15,23.9,15,23.8,15z"/>
					<path class="st1" d="M21.1,17.5c-0.1-0.1-0.2-0.1-0.2-0.2c-0.2-0.1-0.4-0.3-0.5-0.6c0,0.1,0,0.2,0,0.2c0,0,0,0.1,0,0.1
						c0,0,0,0.1,0,0.1c0,0,0.1,0.1,0.1,0.2c0.1,0.1,0.1,0.2,0.2,0.2c0.1,0.1,0.2,0.1,0.3,0.1c0.1,0,0.2,0.1,0.2,0.1c0,0,0,0,0.1,0
						c0,0,0,0,0-0.1C21.2,17.6,21.1,17.6,21.1,17.5z M20.5,17.4C20.5,17.3,20.5,17.3,20.5,17.4c0.1,0.1,0.3,0.2,0.4,0.2
						C20.7,17.5,20.5,17.4,20.5,17.4z"/>
					<path class="st1" d="M24.5,14.8C24.4,14.8,24.4,14.9,24.5,14.8c-0.1,0.1,0,0.1,0,0.1S24.5,15,24.5,14.8
						C24.5,14.9,24.5,14.8,24.5,14.8z"/>
					<path class="st1" d="M22.1,8.5C22.1,8.4,22,8.4,22.1,8.5c-0.1-0.1-0.1,0-0.1,0C21.9,8.5,22,8.5,22.1,8.5
						C22,8.5,22.1,8.5,22.1,8.5z"/>
					<path class="st1" d="M22.1,8.4c0,0.2-0.3,0.2-0.3,0c0,0-0.4,0.2-0.7,0.1c0,0-0.2,0.2-0.3,0.3c0,0,0,0,0.1,0.1
						c0,0.1-0.3,0.3-0.5,0.4c0,0,0,0.1,0.2,0.1c0,0-0.2,0.4-0.5,0.5c0,0.2,0.4,0.2,0.7-0.1c0,0.2-0.1,0.5,0.1,0.8
						c0.1,0,0.3-0.4,0.3-0.7c0,0,0.1,0.1,0.2,0.1c0-0.1-0.1-0.5,0.1-0.6c0,0,0,0.2,0.1,0.2c0-0.1,0-0.3,0.2-0.4
						c0.2,0.1,0.4,0.1,0.6-0.1c-0.1,0-0.4,0.1-0.4-0.1c0.4-0.3,0.6-0.6,0.9-0.3C22.9,8.3,22.4,8.1,22.1,8.4z M20.7,9.6
						c0,0-0.1,0.2-0.3,0.2C20.5,9.8,20.7,9.7,20.7,9.6C20.7,9.6,20.8,9.6,20.7,9.6z M20.9,10.3c0-0.3,0-0.4,0-0.5
						c0-0.1,0.1-0.1,0.1,0C21,10,21,10.2,20.9,10.3z M21.5,9.1l-0.4,0.3c0,0,0-0.4,0.3-0.6c-0.1,0.1-0.2,0.3-0.2,0.4
						C21.3,9.2,21.5,9,21.5,9.1L21.5,9.1z"/>
					<path class="st1" d="M21.3,7.5C21.3,7.5,21.3,7.5,21.3,7.5C21.3,7.5,21.4,7.5,21.3,7.5C21.4,7.5,21.4,7.5,21.3,7.5
						C21.4,7.5,21.4,7.4,21.3,7.5C21.4,7.4,21.4,7.4,21.3,7.5C21.4,7.4,21.3,7.4,21.3,7.5C21.3,7.4,21.3,7.5,21.3,7.5z"/>
					<path class="st1" d="M21.4,8.3c-0.1,0-0.4-0.1-0.4-0.1c0,0,0,0,0,0.1c0,0.1,0.2,0.2,0.3,0.3c0.1,0,0.3,0,0.5-0.1
						c0.1-0.1,0.3-0.1,0.4-0.1c0,0,0.2,0,0.1-0.1c-0.1-0.3-0.6-0.2-0.9,0.1C21.3,8.4,21.3,8.3,21.4,8.3z"/>
					<path class="st1" d="M24.7,14.5l0-0.3l0.1,0.1l0.1-0.2l-0.2,0l0.1-0.2l-0.2-0.1l0,0.2l-0.1-0.1l-0.1,0.2l0.2,0l-0.1,0.2
						C24.5,14.5,24.6,14.5,24.7,14.5z"/>
					<path class="st1" d="M23.5,12.8C23.4,12.8,23.4,12.8,23.5,12.8c0,0,0.1,0.1,0,0.2c0.5,0.4,1.4,0.3,1.4-0.2
						c-0.2,0.1-0.9,0.1-1.1-0.1C23.7,12.8,23.6,12.8,23.5,12.8c0.1,0,0.2,0.1,0.3,0.1c0.1,0.1,0.2,0.1,0.3,0.1c-0.1,0-0.2,0-0.3-0.1
						C23.6,12.9,23.5,12.8,23.5,12.8z"/>
					<path class="st1" d="M24.2,12.3c0,0-0.1,0.1-0.3,0.1c0,0,0,0,0,0c0.2,0,0.4,0.1,0.6,0.1c-0.2,0-0.4,0-0.6,0c0,0,0,0.1-0.1,0.2
						c0.4,0.2,1.2,0,1.4-0.5C24.9,12.4,24.2,12.3,24.2,12.3z"/>
					<path class="st1" d="M25.2,15.5c0-0.1,0-0.1,0-0.2C25.1,15.4,25.1,15.5,25.2,15.5C25.1,15.5,25.2,15.5,25.2,15.5z"/>
					<path class="st1" d="M20.4,6.3C20.4,6.3,20.4,6.4,20.4,6.3c0.1,0.1,0.1,0,0.1,0C20.5,6.3,20.5,6.2,20.4,6.3
						C20.4,6.2,20.4,6.3,20.4,6.3z"/>
					<path class="st1" d="M21.4,7.4C21.5,7.4,21.5,7.3,21.4,7.4c0.1-0.1,0-0.1,0-0.2c0,0,0,0,0,0c0,0,0,0,0,0c0,0,0,0,0,0
						c0,0,0,0,0,0c0,0,0,0,0,0C21.3,7.4,21.3,7.4,21.4,7.4C21.4,7.4,21.4,7.4,21.4,7.4z"/>
					<path class="st1" d="M23.1,13.4c0.8,0.5,1.3,0.1,1.2,0c-0.4,0-0.9-0.4-0.9-0.4c-0.1,0.1-0.2,0.1-0.2,0.1c0,0,0,0,0,0
						c0.1,0.1,0.3,0.2,0.4,0.3c-0.1-0.1-0.3-0.1-0.4-0.2C23.3,13.3,23.1,13.4,23.1,13.4z"/>
					<path class="st1" d="M20.3,6.4c0.1,0.1,0.3,0.3,0.3,0.4c0,0.2-0.1,0.3,0,0.4c0,0.1,0,0,0,0s0.1-0.1,0.2-0.1c0,0,0,0.2,0,0.2
						C21,7.2,21,7.1,21,7c0-0.1-0.1-0.4-0.3-0.6c-0.2-0.2-0.2-0.1-0.2-0.1c0,0.2-0.4,0.1-0.1-0.1c-0.1-0.1-0.2-0.1-0.2,0
						C20.2,6.2,20.2,6.3,20.3,6.4z M20.9,6.9c0,0.1-0.1,0.1-0.1,0.1c-0.1,0-0.1-0.1-0.1-0.1c0-0.1,0.1-0.1,0.1-0.1
						C20.9,6.8,20.9,6.8,20.9,6.9z"/>
					<path class="st1" d="M20.9,6.5c0.1,0,0.3,0.2,0.4,0.3c0.1,0.1,0,0.2,0,0.3c0,0.1,0,0.2,0,0.2c0-0.1,0.2-0.1,0.2-0.2
						c0-0.1,0-0.1-0.1-0.1c0,0,0,0,0-0.1c0,0,0.1-0.1,0-0.2c0-0.1-0.1-0.1-0.1-0.1s-0.1,0-0.1-0.1c0-0.1,0-0.1,0-0.1
						c0,0-0.2-0.1-0.2-0.1c-0.1,0.1-0.2,0-0.2-0.1c-0.1-0.1-0.2,0-0.2,0C20.7,6.4,20.9,6.5,20.9,6.5z"/>
					<circle class="st1" cx="20.8" cy="6.9" r="0.1"/>
					<path class="st1" d="M20.9,6.4C21,6.4,21,6.4,20.9,6.4C21,6.4,21,6.3,20.9,6.4C20.9,6.3,20.9,6.3,20.9,6.4
						C20.9,6.4,20.9,6.4,20.9,6.4z"/>
					<path class="st1" d="M21.5,7C21.5,7,21.6,7,21.5,7c0.1-0.1,0-0.1,0-0.1C21.5,6.9,21.4,6.9,21.5,7C21.4,7,21.5,7,21.5,7z"/>
					<path class="st1" d="M21.3,6.6C21.3,6.7,21.4,6.7,21.3,6.6C21.4,6.6,21.4,6.6,21.3,6.6C21.3,6.5,21.3,6.5,21.3,6.6
						C21.3,6.6,21.3,6.6,21.3,6.6z"/>
					<path class="st1" d="M23.8,13.9c-0.5-0.1-0.8-0.4-0.8-0.4c-0.1,0-0.2,0-0.2,0c0,0,0,0,0,0c0.1,0.1,0.3,0.3,0.4,0.4
						c-0.2-0.1-0.3-0.2-0.4-0.3c0,0.1-0.1,0.2-0.1,0.2C22.9,14.1,23.6,14.1,23.8,13.9z"/>
					<path class="st1" d="M21.1,7.5C21.2,7.5,21.2,7.5,21.1,7.5c0.1,0,0.1,0,0.1,0c0,0,0,0,0-0.1c0,0,0,0-0.1,0
						C21.2,7.4,21.2,7.4,21.1,7.5C21.1,7.4,21.1,7.4,21.1,7.5C21.1,7.4,21.1,7.4,21.1,7.5C21.1,7.4,21.1,7.5,21.1,7.5
						C21.1,7.5,21.1,7.5,21.1,7.5z"/>
					<path class="st1" d="M21,7.4c-0.1,0.1-0.2,0.1-0.3,0c0.1,0.2,0.2,0.2,0.4,0.1C21.1,7.5,21,7.5,21,7.4z"/>
					<path class="st1" d="M20.8,7.1C20.8,7.1,20.8,7.1,20.8,7.1C20.7,7.2,20.7,7.2,20.8,7.1C20.7,7.2,20.7,7.2,20.8,7.1
						c-0.1,0.1-0.1,0.1-0.1,0.1c0,0,0,0,0,0c0,0,0,0,0.1,0c0,0,0,0,0,0C20.8,7.2,20.8,7.2,20.8,7.1C20.8,7.2,20.8,7.1,20.8,7.1z"/>
					<path class="st1" d="M20.9,7.3C20.9,7.3,20.9,7.3,20.9,7.3C20.8,7.3,20.8,7.3,20.9,7.3C20.8,7.3,20.8,7.3,20.9,7.3
						c-0.1,0-0.1,0-0.1,0c0,0,0,0,0,0c0,0,0,0,0,0c0,0,0,0,0,0C20.8,7.4,20.8,7.4,20.9,7.3C20.8,7.4,20.9,7.4,20.9,7.3
						C20.9,7.4,20.9,7.4,20.9,7.3C20.9,7.4,20.9,7.4,20.9,7.3C20.9,7.4,20.9,7.3,20.9,7.3z"/>
					<path class="st1" d="M20.1,7.3C20.1,7.3,20.1,7.3,20.1,7.3C20.1,7.3,20.1,7.3,20.1,7.3C20.1,7.3,20.1,7.3,20.1,7.3
						c-0.1,0.1-0.1,0.1-0.1,0.1c0,0,0,0,0,0c0,0,0,0,0,0c0,0,0.1,0,0.1,0c0,0,0,0,0,0C20.2,7.4,20.2,7.3,20.1,7.3
						C20.2,7.3,20.2,7.3,20.1,7.3z"/>
					<polygon class="st1" points="20.2,7.7 20,7.6 19.8,7.7 20,7.8 					"/>
					<path class="st1" d="M20.5,17.6c-0.1-0.1-0.1-0.1-0.2-0.2c0,0,0-0.1-0.1-0.1c0,0,0-0.1-0.1-0.1c0,0-0.1,0.1-0.1,0.1
						c0,0,0,0.1,0,0.1c0,0.2,0.1,0.4,0.3,0.5c0.1,0.1,0.2,0.1,0.3,0.2c0,0,0,0.1,0.1,0.1c0,0,0,0,0.1,0c0.1-0.1,0.1-0.3,0-0.4
						C20.6,17.7,20.5,17.6,20.5,17.6z M20.2,17.6c0.1,0.1,0.3,0.2,0.3,0.4C20.5,17.8,20.3,17.8,20.2,17.6z"/>
					<path class="st1" d="M20.5,7.4C20.6,7.4,20.6,7.4,20.5,7.4C20.6,7.4,20.6,7.4,20.5,7.4c0.1-0.1,0.1-0.1,0.1-0.1c0,0,0,0,0,0
						c0,0,0,0,0,0C20.5,7.3,20.5,7.3,20.5,7.4C20.5,7.3,20.5,7.3,20.5,7.4C20.5,7.3,20.5,7.3,20.5,7.4C20.5,7.4,20.5,7.4,20.5,7.4
						C20.5,7.4,20.5,7.4,20.5,7.4z"/>
					<path class="st1" d="M20.3,7.4c-0.1,0.1-0.2,0.2-0.3,0c0,0.1,0.1,0.1,0.1,0.1l0.4,0c0,0,0.1,0,0.1-0.1
						C20.5,7.5,20.4,7.5,20.3,7.4z"/>
					<path class="st1" d="M20.8,10.6c-0.1-0.1-0.1-0.4-0.1-0.6c0,0-0.1,0.3-0.3,0.3c0,0,0.2-0.1,0.2-0.3c0,0-0.1,0.1-0.4,0.1
						l-0.2,0.3C20.4,10.6,20.6,10.6,20.8,10.6z"/>
					<path class="st1" d="M20.6,7.4C20.6,7.4,20.6,7.4,20.6,7.4C20.7,7.4,20.7,7.4,20.6,7.4C20.7,7.4,20.7,7.4,20.6,7.4
						C20.7,7.4,20.7,7.3,20.6,7.4C20.7,7.3,20.7,7.3,20.6,7.4C20.7,7.3,20.7,7.3,20.6,7.4z"/>
					<path class="st1" d="M24.1,10.7c0-0.1-0.1-0.1-0.2-0.1c-0.1,0-0.1,0-0.2,0.1c0,0,0.1-0.1,0.1-0.1s0.1-0.1,0.1-0.1
						c0,0,0.1-0.1,0-0.1c0-0.1-0.1-0.1-0.1-0.1c-0.1,0-0.1,0-0.2,0c-0.1,0-0.1,0.1-0.2,0.1c0,0,0,0,0,0c0,0,0,0,0,0c0,0,0,0,0-0.1
						c0.1,0,0.1-0.1,0.1-0.2c0-0.1,0.1-0.1,0-0.2c0-0.1-0.1-0.1-0.2-0.1c-0.1,0-0.1,0-0.2,0.1c0,0,0,0,0,0c0,0,0,0-0.1,0
						c0,0,0,0,0,0c0-0.1,0-0.2,0-0.3c-0.1,0.3-0.3,0.5-0.5,0.7c-0.1,0.1-0.2,0.2-0.2,0.3c-0.1,0.1-0.1,0.3,0,0.4
						c0.1,0.1,0.3,0.1,0.4,0.3c0.1,0.1,0.1,0.2,0.1,0.3c0,0.1-0.1,0.2-0.3,0.2c-0.1,0-0.2,0-0.3,0c-0.1,0-0.1,0.1-0.2,0.2
						C22,12,21.9,12,21.8,12.1c0,0.3,0.1,0.6,0.1,1c0.1,0,0.2,0,0.2,0c0.1,0,0.1-0.1,0.1-0.2c0,0,0,0,0-0.1c0,0,0-0.1,0-0.1
						c0,0,0,0,0.1,0c0,0,0,0,0,0c0.1,0.1,0.2,0.1,0.3,0.1c0.1,0,0.2-0.2,0.1-0.2c0,0,0-0.1,0-0.1c0,0,0-0.1,0-0.1c0,0,0.1,0,0.1,0
						c0.1,0,0.1,0.1,0.2,0.1c0.1,0,0.1,0,0.2-0.1c0-0.1,0-0.1,0-0.2c0,0,0,0-0.1,0c0,0-0.1,0-0.1,0c0,0,0-0.1,0-0.1c0,0,0,0,0.1,0
						c0.1,0,0.1,0.1,0.2,0.1c0.1,0,0.2,0,0.2-0.1c0-0.1,0-0.1-0.1-0.2c0,0,0.1,0,0.1,0c0.1,0,0.2,0,0.2,0c0,0,0.1-0.1,0.1-0.1
						c0-0.1,0-0.1-0.1-0.1c0,0-0.1,0-0.1-0.1c0,0,0,0,0-0.1c0,0,0,0,0.1,0c0.1,0,0.1,0,0.2,0c0,0,0.1,0,0.1-0.1c0,0,0-0.1,0-0.1
						c0,0-0.1-0.1-0.1-0.1c0,0-0.1,0-0.1,0c0,0,0,0,0,0c0,0,0,0,0,0c0,0,0,0,0,0c0.1,0,0.1,0,0.2,0c0.1,0,0.1,0,0.1-0.1
						C24.1,10.8,24.1,10.8,24.1,10.7z"/>
					<path class="st1" d="M22.6,13.7c-0.1,0-0.2,0-0.2,0c0,0.1,0.1,0.1,0.1,0.1c0.1,0.1,0.1,0.1,0.2,0.2c-0.1,0-0.2-0.1-0.2-0.2
						c-0.1-0.1-0.1-0.1-0.1-0.2c-0.2,0-0.3-0.2-0.3-0.2c0.1,0.4,0.3,0.7,0.8,0.7C23.3,14.2,22.8,14,22.6,13.7z"/>
					<path class="st1" d="M22.2,14.1C22.1,14,22,13.7,22,13.7c0,0.1,0,0.2-0.1,0.2l0.1,0.2l-0.1-0.1c0,0,0,0.1-0.1,0.1
						c0,0.2,0.2,0.2,0.3,0.2C22.3,14.3,22.4,14.3,22.2,14.1z"/>
					<polygon class="st1" points="20.8,7.8 20.9,7.9 21.1,7.8 21,7.7 					"/>
					<path class="st1" d="M20.5,7.8C20.5,7.8,20.6,7.8,20.5,7.8c0.1-0.1,0-0.2,0-0.2C20.4,7.6,20.4,7.7,20.5,7.8
						C20.4,7.8,20.4,7.8,20.5,7.8z"/>
					<path class="st1" d="M20,17.7c0,0-0.1,0.2-0.3,0.3c0,0.3,0.1,0.4,0.3,0.5c0.1-0.1,0.3-0.2,0.3-0.5C20.1,17.9,20,17.7,20,17.7z
						 M20,18.2c-0.1-0.1,0-0.3,0-0.3C20,17.9,20.1,18.1,20,18.2z"/>
				</g>
			</g>
			<path class="st6" d="M17.1,9.1c0.2,0,0.2,0,0.3-0.1c0.1,0,0.3-0.1,0.4,0C18,9.1,18,9.1,18.1,9c-0.2-0.2-0.6-0.2-0.8-0.1
				c-0.2,0.1-0.4,0-0.5-0.2C16.7,8.7,16.7,9.1,17.1,9.1z"/>
			<path class="st6" d="M21.9,9c0,0.1,0.1,0.1,0.2,0c0.1-0.1,0.3-0.1,0.4,0c0.1,0,0.1,0.1,0.3,0.1c0.4,0,0.4-0.4,0.3-0.4
				c0,0.3-0.3,0.3-0.5,0.2C22.5,8.8,22.1,8.8,21.9,9z"/>
			<path class="st7" d="M21,10.6c0.1-0.1,0.1-0.3,0.1-0.3s0,0.1,0.1,0.2C21.2,10.5,21.1,10.6,21,10.6z"/>
		</g>
		<path class="st8" d="M25.8,11.8l0.1-0.1c0.9-0.1,1.7-0.8,1.7-1.5c-0.4,0.5-1.4,0.8-1.4,0.8c1-0.4,1.5-1.2,1.3-1.7
			c-0.4,0.6-1.2,1.1-1.4,1.1c1.4-0.9,1.4-2,1.3-2.3c-0.3,0.7-0.7,1.2-1.2,1.5c1.1-0.9,1-2.5,0.7-2.7c-0.1,0.5-0.5,1.7-0.8,2
			c0.5-0.9,0.7-2.7,0.1-3.2c0.1,0.8-0.4,2-0.4,2.1c-0.1,0-0.1,0-0.1,0c0.4-0.8,0.3-2.3-0.2-2.7c-0.1,1.3-0.3,2.1-0.3,2.1l-0.1-0.1
			C25,7.9,24.5,8.8,24.3,9c0-0.2-0.1-0.3-0.1-0.3c-0.1,0.3-0.6,0.9-0.8,1.2c-0.3,0.3-0.4,0.6-0.2,0.9s0.5,0.4,0.5,0.5
			c0,0.2-0.1,0.4-0.3,0.4c-0.3,0-0.5,0-0.6,0.2C22.6,12,22.5,12,22.5,12c0-0.4,0.1-0.7,0.3-1.1l-0.9-1.1c0,0-0.1,0.1-0.1,0.1
			c-0.1-0.1-0.2-0.3-0.2-0.5c0.2,0.1,0.2,0,0.2,0c-0.1-0.3-0.1-0.6,0-0.7C22,9,22.1,8.9,22.1,8.9c0-0.2,0.1-0.5,0.2-0.5
			c0.4,0.2,0.9-0.1,1-0.3c0.3,0,0.3,0.1,0.6,0.1c0.3,0,0.6-0.2,0.6-0.4c0-0.3-0.1-0.4-0.2-0.4c-0.1,0,0,0.2-0.1,0.3
			c0,0-0.2,0.2-0.4,0.1c-0.3-0.1-0.6-0.1-0.8-0.1c0.2-0.3,0.6-0.4,0.8,0c0.3-0.5-0.2-0.9-0.6-0.7c-0.2-0.5-0.7-0.3-1.1-0.1
			c-0.3,0.1-0.6-0.1-0.7-0.2c0-0.1,0-0.2,0.2-0.3c0.1-0.1-0.1-0.2-0.1-0.2s0.1-0.3,0.5-0.3c0.1,0,0.1-0.1,0.1-0.1s0.2-0.1,0.1-0.3
			c0.2-0.1,0.1-0.2,0.1-0.2c0.1-0.1,0.1-0.3-0.1-0.3C22,5,21.9,5,21.9,4.9c0.1-0.1-0.1-0.3-0.2-0.2c-0.1-0.1-0.3-0.2-0.3-0.2
			c0-0.1-0.1-0.2-0.2-0.1c-0.1-0.1-0.4-0.1-0.4-0.1s-0.1-0.1-0.5-0.2h0c0.1-0.1,0.1-0.2,0.1-0.3c0-0.2-0.1-0.3-0.3-0.3V3.5l0.2,0.1
			V3.3l-0.2,0l0-0.2h-0.3l0,0.2l-0.2,0v0.3l0.2-0.1v0.1c-0.2,0-0.3,0.2-0.3,0.3c0,0.1,0,0.2,0.1,0.3h0c-0.3,0-0.5,0.2-0.5,0.2
			s-0.3,0-0.4,0.1c-0.1-0.1-0.3,0-0.2,0.1c0,0-0.2,0.1-0.3,0.2c-0.1-0.1-0.3,0.1-0.2,0.2C18.2,5,18,5,18,5.2c-0.2,0-0.2,0.2-0.1,0.3
			c0,0-0.1,0.1,0.1,0.2c-0.2,0.2,0.1,0.3,0.1,0.3s0,0.1,0.1,0.1c0.4,0,0.5,0.3,0.5,0.3s-0.2,0.1-0.1,0.2c0.2,0.1,0.2,0.2,0.2,0.3
			c-0.1,0.1-0.4,0.3-0.7,0.2c-0.4-0.2-0.9-0.4-1.1,0.1c-0.5-0.2-0.9,0.2-0.6,0.7c0.1-0.3,0.6-0.2,0.8,0c-0.2-0.1-0.5,0-0.8,0.1
			c-0.3,0.1-0.4-0.1-0.4-0.1c-0.1-0.1-0.1-0.3-0.1-0.3c-0.1,0-0.2,0.1-0.2,0.4c0,0.3,0.3,0.4,0.6,0.4c0.3,0,0.3-0.1,0.6-0.1
			c0.1,0.2,0.6,0.5,1,0.3C17.9,8.4,18,8.8,18,8.9c0,0,0.1,0.1,0.3-0.1c0.1,0.2,0.1,0.5,0,0.7c0,0,0,0.1,0.2,0c0,0.2,0,0.4-0.2,0.5
			c0,0-0.1,0-0.1-0.1l-0.9,1.1c0.2,0.4,0.3,0.7,0.3,1.1c-0.1,0-0.1,0-0.2-0.2c-0.1-0.2-0.3-0.2-0.6-0.2c-0.3,0-0.4-0.2-0.3-0.4
			c0-0.2,0.4-0.3,0.5-0.5c0.2-0.2,0-0.5-0.2-0.9C16.4,9.6,16,9,15.9,8.7c0,0-0.1,0.1-0.1,0.3c-0.2-0.2-0.7-1-0.8-1.8l-0.1,0.1
			c0,0-0.2-0.8-0.3-2.1C14,5.6,14,7.1,14.3,7.9c0,0,0,0-0.1,0c-0.1-0.1-0.5-1.4-0.4-2.1C13.2,6.3,13.5,8.1,14,9
			c-0.4-0.3-0.8-1.5-0.8-2c-0.3,0.3-0.4,1.8,0.7,2.7c-0.5-0.3-0.8-0.8-1.2-1.5c-0.1,0.3-0.1,1.4,1.3,2.3c-0.3-0.1-1-0.5-1.4-1.1
			c-0.2,0.5,0.3,1.3,1.3,1.7c0,0-1-0.3-1.4-0.8c0,0.7,0.8,1.3,1.7,1.5l0.1,0.1c0,0-1-0.1-1.6-0.6c-0.1,0.5,0.4,1.2,1.8,1.2
			c-0.3,0.1-1.1,0-1.4-0.2l0-0.2l-0.2,0.1l0-0.3L12.3,12l0.1,0.3l-0.3,0.1c0,0,0.2,0.4,0.2,0.4c0,0,0.2-0.1,0.2-0.1s0,0.1,0,0.2
			c-0.2,0-0.2,0.1-0.2,0.2c0,0,0.2,0.1,0.3,0.2c0.1,0.1,0.3,0.8,0.3,1.1c0,0.4,0.1,1,0.6,1.3c-0.1,0.1-0.1,0.4,0.2,0.5
			c0,0.3-0.1,0.7,0.4,1.1c-0.5,0.2-0.5,0.6-0.1,0.8C14,18,14,18.4,14.4,18.4c0,0.2,0.3,0.3,0.5,0.2c0.1,0.1,0.1,0.3,0,0.6
			c0,0,0.1,0,0.2,0c0.2,0.1,0.3,0.1,0.3,0.1l0-0.4c0,0,0.2,0,0.3-0.1c0,0-0.4-0.2-0.5-0.3c0,0,0.1-0.1,0.1-0.2c0,0,0.2-0.1,0.3-0.3
			c0.1-0.2,0.4-0.5,0.9-0.8c0,0.1,0,0.1,0.1,0.2c0,0,0.7-0.6,0.9-0.5c0,0,0,0.1,0.2,0.3c0.1-0.2,0.8-1.1,1.2-1.4c0,0,0.1,0,0.1,0
			c0,0.3-0.3,0.6-0.4,0.7c-0.1,0.1-0.3,0.5,0,0.8c-0.1,0.1-0.2,0.2-0.3,0.6c-0.1,0.4-0.6,0.7-0.8,0.8c-0.2,0.1-0.1,0.4,0.5,0.4
			c-0.4,0.6-0.1,0.6,0.4,0.4c0,0-0.2,0.3,0,0.5c0,0,0.3-0.2,0.6-0.2c-0.1,0.2-0.1,0.6,0.2,0.7c0,0,0.2-0.3,0.3-0.3
			c0,0.2,0.2,0.6,0.4,0.8c0.3-0.1,0.4-0.6,0.4-0.8c0.1,0,0.3,0.3,0.3,0.3c0.3-0.1,0.3-0.5,0.2-0.7c0.3,0,0.6,0.2,0.6,0.2
			c0.2-0.1,0-0.5,0-0.5c0.5,0.2,0.8,0.2,0.4-0.4c0.6-0.1,0.7-0.4,0.5-0.4c-0.2-0.1-0.8-0.4-0.8-0.8c-0.1-0.4-0.2-0.5-0.3-0.6
			c0.2-0.2,0.1-0.7,0-0.8c-0.1-0.1-0.4-0.4-0.4-0.7c0,0,0.1,0,0.1,0c0.3,0.3,1.1,1.2,1.2,1.4c0.2-0.1,0.2-0.3,0.2-0.3
			c0.2,0,0.9,0.5,0.9,0.5c0.1,0,0.1-0.1,0.1-0.2c0.5,0.1,0.9,0.4,1.1,0.5c0.2,0.2,0.5,0.2,0.8,0.1c0.4-0.1,1.5-0.5,1.7-0.6
			c0.1-0.2,0.2-0.4,0-0.5c0-0.2,0-0.3-0.1-0.3h0c0,0,0,0,0,0c0-0.4-0.2-0.8-0.6-0.9l0-0.3l0.2,0.1l0.1-0.3l-0.2,0l0.1-0.2l-0.4-0.1
			l0,0.3l-0.2-0.1L25.8,15l0.2,0l-0.1,0.2c0,0-0.1,0-0.1,0c-0.4,0-0.8,0.3-1,0.6h0c-0.1,0.1-0.2,0.1-0.2,0.3
			c-0.1,0.1-0.2,0.2-0.2,0.3c0,0.1,0.1,0.2,0.2,0.4s0,0.3-0.1,0.2c-0.1-0.1-0.6-0.5-0.6-0.5c0,0,0.1,0,0.3-0.1c0,0-0.3-0.1-0.4-0.3
			c0.1,0,0.2-0.1,0.2-0.2c-0.1,0-0.5,0-0.6-0.2c0,0,0.1-0.1,0.1-0.2c-0.6,0-1-0.4-1.2-0.8c0,0,0,0,0,0c0.3,0.4,0.6,0.4,0.7,0.3
			c0.1-0.1-0.1-0.3-0.2-0.4c-0.1-0.1,0,0,0.1,0c0.4,0.5,1,0.3,1.1,0.2c0.1,0,0.1-0.1-0.1-0.3c0.6,0.2,1.1-0.1,1.2-0.3
			c0,0-0.4,0-0.6-0.2c0.8,0.3,1.3-0.1,1.3-0.4c0,0-0.2,0-0.6-0.2c0.9,0.2,1.3-0.2,1.3-0.6c-0.2,0.1-1.1,0.2-1.4-0.1
			c1.3,0.3,1.8-0.2,1.9-0.8c-0.3,0.2-1.1,0.2-1.4,0.2c1.4,0,1.9-0.7,1.8-1.2C26.9,11.7,25.8,11.8,25.8,11.8z M21.2,4.8
			c0.1,0,0.3,0.1,0.4,0.3c0.1,0.2-0.1,0.5,0,0.7c-0.1,0-0.2,0.2-0.5,0C21.5,5.7,21.5,5.3,21.2,4.8z M20.3,4.6
			c0.4,0.1,0.5,0.4,0.5,0.6c0,0.2-0.1,0.3,0,0.4c-0.2,0.1-0.4,0.2-0.6,0C20.6,5.3,20.2,4.9,20.3,4.6z M19.7,4.6
			c0.1,0.3-0.3,0.7,0.1,1.1c-0.2,0.2-0.4,0.1-0.6,0c0.1-0.1,0-0.2,0-0.4C19.2,5,19.4,4.7,19.7,4.6z M18.4,5.8c0.1-0.2-0.1-0.5,0-0.7
			c0.1-0.2,0.3-0.3,0.4-0.3c-0.3,0.5-0.3,0.8,0,0.9C18.6,6,18.5,5.8,18.4,5.8z M18.9,6.9C19.1,7,19.2,7.1,20,7.1
			c0.8,0,0.9-0.1,1.1-0.2c0,0.3,0.2,0.5,0.4,0.5c-0.1,0.2-0.5,0.3-0.5,0.3c0,0.1,0.1,0.2,0.2,0.2c-0.2,0.2-0.7,0.4-0.7,0.4
			c0,0.2,0.2,0.3,0.2,0.3c-0.1,0.3-0.5,0.5-0.6,0.5c0,0.2,0,0.3,0.2,0.4C20.2,9.7,20,9.9,20,9.9c0,0,0,0,0,0l0,0l0,0c0,0,0,0,0,0
			c0,0-0.1-0.2-0.3-0.4c0.2-0.1,0.3-0.3,0.2-0.4c-0.1,0-0.5-0.2-0.6-0.5c0,0,0.2-0.1,0.2-0.3c0,0-0.5-0.2-0.7-0.4
			c0.1,0,0.2-0.1,0.2-0.2c-0.1,0-0.4-0.1-0.5-0.3C18.7,7.4,18.9,7.2,18.9,6.9z M13,12.7l-0.1-0.2l0.2,0c0,0,0,0.1,0.1,0.1
			C13.1,12.6,13,12.6,13,12.7z M16.5,15.7c0,0.2,0.1,0.2,0.1,0.2c-0.1,0.1-0.5,0.2-0.6,0.2c0,0.2,0.2,0.2,0.2,0.2
			c-0.1,0.2-0.4,0.3-0.4,0.3c0.2,0.1,0.3,0.1,0.4,0.1c-0.1,0.1-0.3,0.3-1,0.3c-0.6,0-0.7,0-0.7,0c0-0.4-0.3-0.9-0.4-1
			c0.1-0.2,0-0.5-0.2-0.5c0-0.8-0.3-1.1-0.5-1.4c-0.2-0.3-0.4-0.8-0.4-1.1c0-0.2,0-0.3,0-0.3c0.2,0.3,0.8,0.5,1.7,0.3
			c-0.3,0.2-1.2,0.1-1.4,0.1c0,0.4,0.4,0.8,1.3,0.6c-0.4,0.2-0.6,0.2-0.6,0.2c-0.1,0.3,0.5,0.6,1.3,0.4c-0.3,0.2-0.6,0.2-0.6,0.2
			c0.1,0.2,0.6,0.5,1.2,0.3c-0.2,0.2-0.2,0.2-0.1,0.3c0.1,0,0.7,0.3,1.1-0.2c0-0.1,0.2-0.2,0.1,0c-0.1,0.1-0.3,0.3-0.2,0.4
			c0.1,0.1,0.5,0.1,0.7-0.3c0,0,0,0,0,0C17.5,15.3,17,15.6,16.5,15.7z"/>
		<g>
			<g>
				<path class="st1" d="M22,11.2l-0.6-0.7c-0.3,0.2-0.8,0.3-1.4,0c-0.6,0.3-1.1,0.2-1.4,0L18,11.2c0.4,0.7,0.1,1.4,0.1,2.1
					c0,0.7,0.3,1,0.6,1.2c0.3,0.1,1.2,0.5,1.3,0.8c0.1-0.2,1.1-0.6,1.3-0.8c0.3-0.1,0.6-0.5,0.6-1.2C21.9,12.6,21.5,11.9,22,11.2z
					 M21.2,14.3C21,14.5,20.1,14.8,20,15c-0.1-0.2-1-0.6-1.2-0.7c-0.3-0.1-0.6-0.4-0.6-1.1c0-0.6,0.4-1.3,0-2l0.5-0.6
					c0.2,0.2,0.8,0.3,1.3,0c0.5,0.3,1.1,0.2,1.3,0l0.5,0.6c-0.4,0.6,0,1.3,0,2C21.8,13.9,21.5,14.2,21.2,14.3z"/>
				<g>
					<path class="st9" d="M21.7,13.4c0-0.1,0-0.1,0-0.2c0-0.6-0.4-1.3,0-1.9l-0.4-0.5c-0.1,0.1-0.8,0.2-1.3,0
						c-0.5,0.3-1.2,0.2-1.3,0l-0.4,0.5c0.3,0.6,0,1.3,0,1.9c0,0.1,0,0.1,0,0.2H21.7z"/>
					<path class="st10" d="M18.3,13.6c0.1,0.3,0.3,0.5,0.5,0.6c0.2,0.1,1.1,0.5,1.2,0.7c0.1-0.2,0.9-0.5,1.2-0.7
						c0.2-0.1,0.4-0.3,0.5-0.6H18.3z"/>
					<path class="st1" d="M21.7,13.5C21.7,13.5,21.7,13.5,21.7,13.5c0,0.1,0,0.1,0,0.1h-3.4c0,0,0,0,0-0.1c0,0,0,0,0-0.1H21.7z"/>
				</g>
			</g>
			<g>
				<path class="st11" d="M18.7,13.4c0,0,0-0.1,0.1-0.1c0,0,0-0.1,0.1-0.1c0.1,0,0.2-0.2,0.2-0.5c0,0,0,0-0.1,0c0,0-0.1-0.1,0-0.3
					c0.1-0.2,0,0,0,0l0-0.1c0,0-0.2,0.1-0.3-0.1c-0.1-0.2-0.1-0.4-0.1-0.4s-0.2,0-0.2-0.2c0,0-0.1,0,0-0.2c0,0,0,0.1,0.1,0.1
					c0,0,0.1,0,0.1,0c0,0,0,0,0-0.1c0,0-0.1-0.1-0.1-0.1s0.1-0.1,0-0.2c0,0,0-0.1,0.1,0c0,0,0-0.1,0-0.1c0,0,0.1,0,0.1,0.1
					c0,0,0.1,0,0-0.1c0.1,0,0.1,0.1,0.1,0.2c0,0.1,0,0.2,0,0.3c0,0.1,0,0.2,0.1,0.2c0,0.1,0.1,0.1,0.1,0.1c0,0,0.1-0.2,0.3-0.2h0.1
					c0,0,0,0,0,0c0,0,0,0-0.1,0s-0.1,0-0.1-0.1c0-0.1,0-0.1,0-0.1s-0.1,0-0.2-0.1c-0.1-0.1,0-0.2,0-0.2l0,0c0,0,0,0.1,0.1,0.2
					c0,0,0,0,0,0c0,0-0.1,0,0-0.1c0-0.1,0.1-0.1,0.2-0.1c0.1-0.1,0.2-0.1,0.3-0.1c0.1-0.1,0.3-0.1,0.3,0.1c0.1,0,0.2,0.1,0.2,0.1
					s0,0.1-0.1,0.1c0.1,0.1,0.1,0.1,0.1,0.1s-0.1,0.1-0.2,0.1c0.1,0.1,0.2,0.2,0.2,0.2S20.2,12,20,12c0.1,0.1,0.1,0.2,0.1,0.2
					s0.1,0,0.2,0c0.1,0,0.2,0,0.3,0c0.1,0,0.3,0.1,0.3,0.1s0.1,0,0.1,0c0.1,0,0.2-0.1,0.2-0.1c0-0.1,0-0.1-0.3-0.1
					c-0.3,0-0.4,0-0.4-0.1s-0.2-0.2,0-0.3c0.1-0.1,0.4-0.2,0.5-0.2c0.1,0,0.3,0.1,0.4,0c0.1,0.1-0.1,0.3-0.3,0.3
					c-0.2,0-0.3-0.1-0.4-0.1c-0.1,0-0.2,0.2,0,0.2c0.2,0.1,0.3,0.1,0.5,0.1c0.2,0,0.3,0.2,0.3,0.2c0,0.1,0,0.2-0.1,0.2
					c-0.1,0.1-0.2,0.1-0.3,0.1c0,0.1,0,0.3,0.2,0.3c0.2,0,0.2,0.2,0.2,0.4c0,0.2,0,0.2,0,0.2c0,0.1-0.1,0.1-0.1,0.2l-0.6,0
					c0-0.1,0.1-0.1,0.1-0.1c0-0.1,0.1-0.1,0.2-0.1c0.1,0,0.2,0,0.1-0.1c0-0.1,0-0.1-0.1-0.1c0,0.1,0,0.1,0,0.1s-0.2,0-0.4-0.2
					c0,0-0.1,0.1-0.1,0.1c0,0.1,0.1,0.1,0.1,0.1c0,0.1-0.1,0.2-0.1,0.3l-0.6,0c0,0,0-0.1,0.1-0.1c0-0.1,0.2-0.1,0.2-0.1
					c0.1-0.1,0.1-0.2,0.1-0.2S20.2,13,20.2,13c0,0,0,0,0,0c0,0-0.1-0.1,0-0.3c-0.1,0-0.3,0.1-0.6,0.1c-0.1,0.1-0.2,0.3-0.2,0.4
					c0,0.1,0,0.2,0,0.2H18.7z"/>
				<path class="st1" d="M18.8,13.4h-0.1c0,0,0,0,0,0C18.7,13.4,18.8,13.4,18.8,13.4C18.8,13.4,18.8,13.4,18.8,13.4
					C18.8,13.4,18.8,13.4,18.8,13.4C18.8,13.4,18.8,13.4,18.8,13.4z M19,13.4C19,13.4,19,13.4,19,13.4C18.9,13.4,18.9,13.4,19,13.4
					c-0.1,0-0.1,0-0.1,0c0,0,0,0,0,0L19,13.4C19,13.4,19,13.4,19,13.4z M19.4,12.9C19.3,12.8,19.3,12.8,19.4,12.9
					c-0.1-0.1-0.1-0.1-0.1-0.2c-0.1,0-0.1,0.1-0.1,0.1c0,0.1,0,0.1,0,0.2c0,0.1,0,0.1-0.1,0.2c0,0,0,0.1-0.1,0.1c0,0,0,0-0.1,0
					c0,0,0,0-0.1,0c0,0-0.1,0.1,0,0.1c0,0,0,0,0,0c0,0,0.1,0,0.1-0.1c0,0,0.1,0,0.1,0c0,0,0,0,0,0.1c0,0,0,0,0,0h0.2c0,0,0,0,0-0.1
					c0,0,0-0.1,0-0.2c0-0.1,0-0.1,0.1-0.2C19.4,13,19.4,13,19.4,12.9C19.4,12.9,19.4,12.9,19.4,12.9z M19.3,12.5l-0.1,0.1l0,0
					c0,0-0.1,0.1,0,0.2l0.2-0.1c0,0,0,0.2,0.1,0.2c0,0,0.1-0.1,0.1-0.2c0.1,0.1,0.1,0.1,0.1,0.1s0-0.1,0.1-0.1c0,0,0,0.1,0,0.1
					s0.4-0.1,0.5-0.1c0.2,0,0.2,0,0.3,0c0,0,0,0-0.2,0c-0.1,0-0.2,0-0.2,0s0.1-0.1,0.2-0.1c0.1,0,0.2,0,0.2,0s0,0.1,0,0.2
					c0,0.1,0.1,0.2,0.3,0.3c0,0,0-0.1,0-0.1c0,0,0.1,0,0.2,0.1c0,0,0,0.1,0,0.1c0,0.1,0,0.2-0.2,0.2c-0.1,0-0.2,0.1-0.1,0.1
					c0,0,0,0,0.1,0c0.1,0,0.1,0,0.1,0.1c0.1,0,0.2,0,0.2,0s0-0.2,0.1-0.2c0-0.1,0-0.2,0-0.3c0-0.1,0-0.2-0.1-0.2s-0.2,0-0.2-0.2
					c0-0.2-0.1-0.2-0.3-0.3s-0.3,0-0.4,0c-0.1,0-0.2,0-0.2,0c0,0.1,0,0.1,0,0.1l-0.2,0c0,0,0,0.1-0.1,0.2l-0.1-0.1
					c0,0,0,0.1-0.1,0.2c0,0-0.1,0-0.1-0.1c0,0,0,0.1-0.1,0.1C19.5,12.7,19.3,12.6,19.3,12.5z M20,13.4C20,13.4,19.9,13.4,20,13.4
					C19.9,13.4,19.9,13.4,20,13.4C19.9,13.4,19.9,13.4,20,13.4L20,13.4L20,13.4C19.9,13.4,19.9,13.4,20,13.4
					C19.9,13.4,19.9,13.4,20,13.4C20,13.4,20,13.4,20,13.4C20,13.4,20,13.4,20,13.4C20,13.4,20,13.4,20,13.4z M20.1,13.4
					C20,13.4,20,13.4,20.1,13.4C20,13.4,20,13.4,20.1,13.4c-0.1,0-0.1,0-0.1,0L20.1,13.4C20.1,13.4,20.1,13.4,20.1,13.4
					C20.1,13.4,20.1,13.4,20.1,13.4z M20.3,13.4c0,0,0.1-0.1,0.1-0.2c0.1-0.1,0.1-0.1,0-0.2c-0.1-0.1,0-0.1,0-0.2
					c0.1,0,0.1-0.1,0.1-0.1c0,0-0.1-0.1-0.2-0.1c-0.1,0-0.2,0-0.2,0.2s0,0.1,0,0.1c0-0.1,0.1,0,0.1,0.1c0,0.1-0.1,0.2-0.1,0.2
					c-0.1,0-0.1-0.1-0.2,0.1c0,0,0.1,0,0.1,0.1C20.1,13.4,20.3,13.4,20.3,13.4z M20.8,13.4C20.8,13.4,20.8,13.4,20.8,13.4
					C20.8,13.4,20.8,13.4,20.8,13.4c-0.1,0-0.1,0-0.1,0L20.8,13.4C20.8,13.4,20.8,13.4,20.8,13.4z M21,13.4
					C21,13.4,20.9,13.4,21,13.4C20.9,13.4,20.9,13.4,21,13.4C20.9,13.4,20.9,13.4,21,13.4L21,13.4C21,13.4,21,13.4,21,13.4z
					 M19.1,11.5c0,0.1,0.1,0.1,0.2,0.1s0.1,0,0.1-0.1c0,0,0-0.1-0.1,0c-0.1,0-0.2,0-0.2-0.1C19.1,11.4,19.1,11.5,19.1,11.5z
					 M19.9,11.6c0.1,0,0.1,0.1,0,0.1c0,0,0.1,0,0.2,0c0.1-0.1,0.1-0.1,0.1-0.1s-0.1-0.1-0.2-0.1C19.9,11.5,19.9,11.6,19.9,11.6z
					 M20.1,11.5C20.2,11.4,20.2,11.4,20.1,11.5c0.1-0.1-0.1-0.1-0.1-0.1S20.1,11.4,20.1,11.5C20,11.4,20,11.5,20.1,11.5z M19.8,11.3
					c0,0,0.1-0.1,0.2,0C20,11.3,19.9,11.1,19.8,11.3L19.8,11.3z M20.1,12.3c-0.1,0-0.1-0.1-0.1-0.1c0,0.1,0,0.2,0,0.2
					c0,0-0.1-0.1-0.1-0.1c0,0.1-0.1,0.3-0.1,0.3c-0.1,0-0.1-0.2-0.1-0.2c-0.1,0-0.1,0.2-0.1,0.2c-0.2,0-0.1-0.3-0.1-0.3l-0.2,0.2
					c0,0-0.1-0.1-0.1-0.2c0-0.1,0.1-0.2,0.2-0.2c0,0.1,0,0.1,0,0.1c0,0,0.1-0.1,0.1-0.1c0,0.1,0,0.2,0.1,0.1
					c0.1-0.1,0.1-0.2,0.1-0.2s0,0-0.1,0.1c-0.1,0.1-0.1,0-0.1,0c0-0.1,0.1-0.1-0.1,0c-0.1,0.1-0.1,0-0.1,0c0-0.1,0,0-0.1,0
					c-0.1,0.1-0.2,0.1-0.1,0c0-0.1,0.1-0.1,0.3-0.1c0.1,0,0.2-0.1,0.2-0.1c0,0,0-0.1-0.1-0.1c-0.1,0-0.1,0-0.2,0c-0.1,0,0-0.1,0-0.1
					c0.1,0,0.1,0,0.1-0.1s0-0.1-0.1-0.1c-0.1,0-0.1,0-0.1,0c0,0,0,0,0,0s-0.1,0-0.1-0.1c0-0.1,0.2-0.1,0.2-0.1
					c0.1-0.1,0.3-0.1,0.3,0c0.1-0.1,0.2-0.1,0.2,0c0,0.1-0.2,0.1-0.2,0.1c0,0.1-0.1,0.1-0.1,0.1c0.2,0,0,0.2,0,0.2s0.1-0.1,0.1-0.1
					c0.2,0,0.3,0.2,0.3,0.2c-0.1,0-0.2,0-0.2,0l0,0.1C20.1,12.1,20.1,12.3,20.1,12.3z M19.7,11.4C19.7,11.3,19.7,11.3,19.7,11.4
					c-0.1-0.1-0.1,0-0.1,0C19.6,11.4,19.6,11.4,19.7,11.4C19.7,11.4,19.7,11.4,19.7,11.4z M20.9,12.3C20.9,12.3,21,12.3,20.9,12.3
					c0.1,0.1,0.3,0.1,0.3,0c0.1,0,0.1-0.1,0.1-0.2s0-0.2-0.2-0.2c-0.1,0-0.4,0-0.6-0.1c-0.1,0-0.2-0.1-0.2-0.1c0,0,0.1-0.2,0.2-0.2
					c0.1,0,0.1,0.1,0.3,0.1c0.2,0,0.3,0,0.3-0.2c0,0-0.1,0-0.1,0c-0.1,0-0.2-0.1-0.3,0c-0.1,0-0.4,0.1-0.4,0.3
					c0,0.1,0.2,0.2,0.4,0.2s0.5,0,0.5,0.1c0,0.1,0,0.2-0.1,0.2C21,12.3,20.9,12.3,20.9,12.3z M21,11.5c0.1,0,0.2,0,0.2,0
					c-0.2,0-0.2-0.1-0.4,0C20.8,11.5,20.9,11.5,21,11.5z M19.1,12.4c0,0,0-0.1,0-0.2c-0.2-0.1-0.2-0.3-0.2-0.3c0-0.1,0-0.2,0-0.2
					s0-0.1,0-0.1l0,0.1c0,0,0-0.1-0.1,0c0,0,0,0,0,0.1c0,0-0.1-0.1-0.1,0c0,0,0,0,0.1,0.1c0,0.1,0,0.1,0,0.1c0,0-0.1,0-0.1,0l0,0.1
					c0,0,0,0.1,0.2,0.1c0,0,0,0,0,0.1C18.8,12.2,18.9,12.4,19.1,12.4z M18.6,11.8L18.6,11.8c0,0,0-0.1,0-0.1
					C18.5,11.7,18.5,11.8,18.6,11.8z M18.6,11.4C18.6,11.4,18.7,11.4,18.6,11.4L18.6,11.4C18.7,11.5,18.7,11.4,18.6,11.4z
					 M18.8,11.3C18.8,11.3,18.8,11.3,18.8,11.3L18.8,11.3C18.8,11.4,18.8,11.3,18.8,11.3z M18.9,11.4L18.9,11.4
					C18.9,11.4,19,11.4,18.9,11.4C18.9,11.3,18.9,11.4,18.9,11.4z"/>
			</g>
		</g>
	</g>
</g>
</svg>
