<?xml version="1.0" encoding="utf-8"?>
<!-- Generator: Adobe Illustrator 24.0.1, SVG Export Plug-In . SVG Version: 6.00 Build 0)  -->
<svg version="1.1" xmlns="http://www.w3.org/2000/svg" xmlns:xlink="http://www.w3.org/1999/xlink" x="0px" y="0px"
	 viewBox="0 0 100 7" style="enable-background:new 0 0 100 7;" xml:space="preserve">
<style type="text/css">
	.st0{display:none;}
	.st1{display:inline;}
	.st2{fill:#767676;}
	.st3{font-family:'MyriadPro-Bold';}
	.st4{font-size:12px;}
</style>
<g id="Layer_1" class="st0">
	<g class="st1">
		<g>
			<g transform="translate(203.988249, 477.594987)">
				<g>
					<path class="st2" d="M-141.4-477.5c-0.4,0-0.7,0-1.1,0h-2.8v6.7h1.9v-2.4h0.9c0.5,0,0.8,0,1.1,0c1.1-0.1,2-0.8,2-2.1
						C-139.4-476.7-140.3-477.4-141.4-477.5z M-142.1-474.5c-0.1,0-0.3,0-0.5,0h-0.7v-1.6h0.7c0.2,0,0.4,0,0.5,0
						c0.5,0,0.8,0.3,0.8,0.8C-141.4-474.8-141.7-474.6-142.1-474.5z"/>
				</g>
			</g>
		</g>
		<g>
			<g transform="translate(266.641353, 477.594987)">
				<g>
					<path class="st2" d="M-195.7-472.4c-0.1-0.8-0.4-1.3-1.1-1.6c1-0.3,1.5-0.8,1.5-1.7c0-1.2-0.9-1.7-2-1.8c-0.4,0-0.7,0-1.1,0
						h-2.9v6.7h1.9v-2.5h0.4c0.2,0,0.4,0,0.6,0c0.5,0,0.8,0.5,0.9,1.2c0.1,0.5,0.2,0.9,0.3,1.4h2.1
						C-195.4-471.2-195.6-471.7-195.7-472.4z M-199.5-474.6v-1.5h0.7c0.2,0,0.4,0,0.5,0c0.5,0,0.9,0.2,0.9,0.8s-0.4,0.7-0.9,0.8
						c-0.1,0-0.3,0-0.5,0L-199.5-474.6L-199.5-474.6z"/>
				</g>
			</g>
		</g>
		<g>
			<g transform="translate(333.109882, 477.594987)">
				<g>
					<path class="st2" d="M-256.3-472.5l0.6,1.8h2.1l-2.6-6.7h-2.3l-2.6,6.7h2l0.6-1.8H-256.3z M-257.4-476l0.7,2.1h-1.4L-257.4-476
						z"/>
				</g>
			</g>
		</g>
		<g>
			<g transform="translate(402.088581, 477.594987)">
				<g>
					<path class="st2" d="M-314.9-470.8v-6.7h-1.9v2.9c0,0.4,0,1.1,0.1,1.8l-2.8-4.6h-2.4v6.7h1.9v-2.8c0-0.4,0-1-0.1-1.7l2.7,4.5
						L-314.9-470.8L-314.9-470.8z"/>
				</g>
			</g>
		</g>
		<g>
			<g transform="translate(479.802612, 477.594987)">
				<g>
					<path class="st2" d="M-386.2-477.5h-1.9v4.1c0,0.2,0,0.4,0,0.6c0,0.5-0.3,0.9-0.9,0.9c-0.5,0-0.9-0.3-1-1.1v-0.3h-1.9v0.3
						c0,1.5,0.9,2.4,2.9,2.4c1.9,0,2.7-0.9,2.8-2c0-0.5,0-0.7,0-1V-477.5L-386.2-477.5z"/>
				</g>
			</g>
		</g>
		<g>
			<g transform="translate(541.853275, 477.594987)">
				<g>
					<path class="st2" d="M-441.9-472.2h-3.7v-1.3h3.4v-1.4h-3.4v-1.3h3.6v-1.4h-5.5v6.7h5.6V-472.2L-441.9-472.2z"/>
				</g>
			</g>
		</g>
	</g>
	<g class="st1">
		<g>
			<g transform="translate(140.273405, 373.344992)">
				<g>
					<path class="st2" d="M-136.6-373.1c-0.4,0-0.5,0-0.9,0h-2.8v6.6h2.8c0.4,0,0.6,0,0.9,0c1.7-0.2,3.1-1.3,3.1-3.4
						S-134.9-373-136.6-373.1z M-137.1-367.9c-0.2,0-0.4,0-0.7,0h-0.6v-3.9h0.6c0.3,0,0.4,0,0.7,0c1,0.1,1.6,0.7,1.6,1.9
						C-135.5-368.8-136.1-367.9-137.1-367.9z"/>
				</g>
			</g>
		</g>
		<g>
			<g transform="translate(213.469149, 373.344992)">
				<g>
					<path class="st2" d="M-199.2-373.1h-1.9v4c0,0.2,0,0.3,0,0.4c-0.1,0.7-0.5,1.1-1.3,1.1s-1.3-0.4-1.3-1.1c0-0.1,0-0.2,0-0.4v-4
						h-1.9v3.7c0,0.3,0,0.5,0,1c0.1,1.1,1,2.1,3.2,2.1s3.1-1,3.2-2.1c0-0.4,0-0.6,0-1V-373.1z"/>
				</g>
			</g>
		</g>
		<g>
			<g transform="translate(283.552306, 373.344992)">
				<g>
					<path class="st2" d="M-263.5-370.1c0.7-0.2,1.1-0.7,1.1-1.3c0-0.9-0.7-1.6-1.9-1.7c-0.4,0-0.5,0-0.9,0h-3v6.6h2.9
						c0.5,0,0.7,0,1.1,0c1-0.1,2.1-0.7,2.1-2C-262.1-369.3-262.6-369.9-263.5-370.1z M-266.3-371.8h0.9c0.2,0,0.3,0,0.5,0
						c0.4,0,0.6,0.2,0.6,0.6s-0.2,0.6-0.6,0.6c-0.1,0-0.3,0-0.5,0h-0.9V-371.8z M-264.8-367.9c-0.1,0-0.3,0-0.5,0h-1v-1.4h1
						c0.2,0,0.3,0,0.5,0c0.4,0,0.7,0.3,0.7,0.7C-264.1-368.1-264.5-367.9-264.8-367.9z"/>
				</g>
			</g>
		</g>
		<g>
			<g transform="translate(349.920436, 373.344992)">
				<g>
					<path class="st2" d="M-325.7-366.5v-6.6h-1.9v6.6H-325.7z"/>
				</g>
			</g>
		</g>
		<g>
			<g transform="translate(379.439508, 373.344992)">
				<g>
					<path class="st2" d="M-347-366.5v-6.6h-1.9v2.9c0,0.4,0,1.1,0.1,1.8l-2.8-4.5h-2.4v6.6h1.9v-2.8c0-0.4,0-1-0.1-1.7l2.7,4.4
						L-347-366.5L-347-366.5z"/>
				</g>
			</g>
		</g>
		<g>
			<g transform="translate(457.153517, 373.344992)">
				<g>
					<path class="st2" d="M-420.9-373.3c-1.5,0-2.8,0.7-2.8,2c0,1.4,1,1.8,2.6,2.2c0.9,0.2,1.2,0.5,1.2,0.9s-0.4,0.6-0.9,0.6
						c-0.6,0-1.1-0.3-1.3-0.9h-1.9c0.1,1.5,1.4,2.2,3.2,2.2c1.5,0,2.9-0.7,2.9-2c0-1-0.7-1.8-2.3-2.1c-1.2-0.3-1.5-0.5-1.5-1
						c0-0.4,0.3-0.6,0.7-0.6c0.6,0,0.9,0.4,1,0.9h1.9C-418.2-372.4-419-373.3-420.9-373.3z"/>
				</g>
			</g>
		</g>
		<g>
			<g transform="translate(517.999301, 373.344992)">
				<g>
					<path class="st2" d="M-474-370l3.2-3.2h-2.3l-2.8,3v-3h-1.9v6.6h1.9v-2.1l0.5-0.5l2.1,2.6h2.4L-474-370z"/>
				</g>
			</g>
		</g>
		<g>
			<g transform="translate(590.592627, 373.344992)">
				<g>
					<path class="st2" d="M-539.6-373.3c-2.3,0-3.8,1.3-3.8,3.5c0,2.1,1.5,3.5,3.8,3.5s3.8-1.4,3.8-3.5
						C-535.9-372-537.3-373.3-539.6-373.3z M-539.6-367.6c-1.1,0-1.8-0.8-1.8-2.2c0-1.4,0.7-2.2,1.8-2.2s1.8,0.8,1.8,2.2
						S-538.5-367.6-539.6-367.6z"/>
				</g>
			</g>
		</g>
	</g>
</g>
<g id="Layer_2">
	<text transform="matrix(1 0 0 1 1.4092 7.022)" class="st0 st3 st4">PERFECT SHINE</text>
	<g>
		<path class="st2" d="M0,0.2c0.7-0.1,1.7-0.1,3-0.1c1.4,0,2.4,0.2,3,0.6C6.7,1,7.2,1.5,7.2,2.2S6.8,3.5,6.2,3.9
			C5.5,4.4,4.3,4.6,3,4.6c-0.3,0-0.6,0-0.8,0V7H0V0.2z M2.2,3.3c0.2,0,0.4,0,0.8,0c1.2,0,1.9-0.4,1.9-1.1c0-0.6-0.6-1-1.8-1
			c-0.4,0-0.8,0-0.9,0.1V3.3z"/>
		<path class="st2" d="M14.5,4.1h-3.7v1.6h4.1V7H8.6V0.1h6.1v1.3h-3.9v1.4h3.7V4.1z"/>
		<path class="st2" d="M16.5,0.2c0.7-0.1,1.8-0.1,3-0.1c1.5,0,2.5,0.2,3.2,0.5c0.6,0.3,0.9,0.8,0.9,1.5c0,0.9-0.9,1.5-1.8,1.7v0
			C22.6,4,23,4.4,23.2,5.1c0.3,0.8,0.6,1.7,0.8,2h-2.3c-0.1-0.2-0.4-0.8-0.7-1.6c-0.3-0.9-0.7-1.1-1.6-1.1h-0.7V7h-2.2V0.2z
			 M18.7,3.2h0.9c1.1,0,1.8-0.4,1.8-1c0-0.6-0.6-1-1.7-1c-0.5,0-0.9,0-1,0.1V3.2z"/>
		<path class="st2" d="M25.3,0.1h6.1v1.3h-3.8V3h3.6v1.3h-3.6V7h-2.2V0.1z"/>
		<path class="st2" d="M39,4.1h-3.7v1.6h4.1V7h-6.3V0.1h6.1v1.3h-3.9v1.4H39V4.1z"/>
		<path class="st2" d="M48.3,6.9c-0.4,0.1-1.3,0.3-2.5,0.3c-3.4,0-5.2-1.5-5.2-3.5c0-2.4,2.4-3.7,5.4-3.7c1.2,0,2.1,0.2,2.5,0.3
			l-0.5,1.2c-0.4-0.1-1.1-0.3-1.9-0.3c-1.8,0-3.2,0.8-3.2,2.3C42.9,5,44,5.8,46,5.8c0.7,0,1.4-0.1,1.9-0.2L48.3,6.9z"/>
		<path class="st2" d="M51.9,1.4h-2.7V0.1h7.7v1.3h-2.7V7h-2.2V1.4z"/>
		<path class="st2" d="M61.1,5.4c0.6,0.2,1.5,0.4,2.5,0.4c1,0,1.6-0.3,1.6-0.8c0-0.4-0.5-0.7-1.7-1c-1.7-0.4-2.8-1-2.8-2.1
			c0-1.2,1.4-2.1,3.8-2.1c1.1,0,2,0.2,2.5,0.3l-0.5,1.3c-0.4-0.1-1.1-0.3-2.1-0.3c-1,0-1.4,0.3-1.4,0.7c0,0.4,0.5,0.6,1.8,1
			C66.7,3.4,67.5,4,67.5,5c0,1.2-1.3,2.2-4,2.2c-1.1,0-2.3-0.2-2.8-0.4L61.1,5.4z"/>
		<path class="st2" d="M71.3,0.1v2.7H75V0.1h2.2V7H75V4.1h-3.7V7h-2.2V0.1H71.3z"/>
		<path class="st2" d="M81.5,0.1V7h-2.2V0.1H81.5z"/>
		<path class="st2" d="M83.4,7V0.1h2.6l2.1,2.5c0.6,0.7,1.2,1.6,1.6,2.4h0c-0.1-0.9-0.2-1.9-0.2-2.9v-2h2.1V7h-2.4l-2.1-2.7
			c-0.6-0.7-1.3-1.6-1.7-2.4h-0.1c0.1,0.9,0.1,1.9,0.1,3V7H83.4z"/>
		<path class="st2" d="M99.6,4.1h-3.7v1.6h4.1V7h-6.3V0.1h6.1v1.3h-3.9v1.4h3.7V4.1z"/>
	</g>
</g>
</svg>
